<?xml version="1.0" encoding="utf-8" standalone="no"?>
<!DOCTYPE svg PUBLIC "-//W3C//DTD SVG 1.1//EN"
  "http://www.w3.org/Graphics/SVG/1.1/DTD/svg11.dtd">
<svg xmlns:xlink="http://www.w3.org/1999/xlink" width="360pt" height="144pt" viewBox="0 0 360 144" xmlns="http://www.w3.org/2000/svg" version="1.1">
 <metadata>
  <rdf:RDF xmlns:dc="http://purl.org/dc/elements/1.1/" xmlns:cc="http://creativecommons.org/ns#" xmlns:rdf="http://www.w3.org/1999/02/22-rdf-syntax-ns#">
   <cc:Work>
    <dc:type rdf:resource="http://purl.org/dc/dcmitype/StillImage"/>
    <dc:date>2024-08-02T10:36:44.453626</dc:date>
    <dc:format>image/svg+xml</dc:format>
    <dc:creator>
     <cc:Agent>
      <dc:title>Matplotlib v3.7.1, https://matplotlib.org/</dc:title>
     </cc:Agent>
    </dc:creator>
   </cc:Work>
  </rdf:RDF>
 </metadata>
 <defs>
  <style type="text/css">*{stroke-linejoin: round; stroke-linecap: butt}</style>
 </defs>
 <g id="figure_1">
  <g id="patch_1">
   <path d="M 0 144 
L 360 144 
L 360 0 
L 0 0 
z
" style="fill: #ffffff; stroke: #ffffff; stroke-linejoin: miter"/>
  </g>
  <g id="axes_1">
   <g id="patch_2">
    <path d="M 51.495344 127.36975 
L 202.147672 127.36975 
L 202.147672 17.726292 
L 51.495344 17.726292 
z
" style="fill: #ffffff"/>
   </g>
   <g id="matplotlib.axis_1">
    <g id="xtick_1">
     <g id="line2d_1">
      <path d="M 92.582342 127.36975 
L 92.582342 17.726292 
" clip-path="url(#pab8af0766c)" style="fill: none; stroke-dasharray: 1.85,0.8; stroke-dashoffset: 0; stroke: #000000; stroke-opacity: 0.15; stroke-width: 0.5"/>
     </g>
     <g id="line2d_2">
      <path d="M 92.582342 127.36975 
" style="fill: none; stroke: #333333; stroke-width: 1.5; stroke-linecap: square"/>
      <defs>
       <path id="maa571d76dd" d="M 0 0 
L 0 2.75 
" style="stroke: #333333"/>
      </defs>
      <g>
       <use xlink:href="#maa571d76dd" x="92.582342" y="127.36975" style="fill: #333333; stroke: #333333"/>
      </g>
     </g>
     <g id="text_1">
      <text style="fill: #4d4d4d; font: 8.8px 'Helvetica', 'DejaVu Sans', 'Avant Garde', 'Computer Modern Sans serif', 'Arial', sans-serif; text-anchor: middle" x="92.582342" y="138.453" transform="rotate(-0 92.582342 138.453)">Flight</text>
     </g>
    </g>
    <g id="xtick_2">
     <g id="line2d_3">
      <path d="M 161.060673 127.36975 
L 161.060673 17.726292 
" clip-path="url(#pab8af0766c)" style="fill: none; stroke-dasharray: 1.85,0.8; stroke-dashoffset: 0; stroke: #000000; stroke-opacity: 0.15; stroke-width: 0.5"/>
     </g>
     <g id="line2d_4">
      <path d="M 161.060673 127.36975 
" style="fill: none; stroke: #333333; stroke-width: 1.5; stroke-linecap: square"/>
      <g>
       <use xlink:href="#maa571d76dd" x="161.060673" y="127.36975" style="fill: #333333; stroke: #333333"/>
      </g>
     </g>
     <g id="text_2">
      <text style="fill: #4d4d4d; font: 8.8px 'Helvetica', 'DejaVu Sans', 'Avant Garde', 'Computer Modern Sans serif', 'Arial', sans-serif; text-anchor: middle" x="161.060673" y="138.432375" transform="rotate(-0 161.060673 138.432375)">Ground</text>
     </g>
    </g>
   </g>
   <g id="matplotlib.axis_2">
    <g id="ytick_1">
     <g id="line2d_5">
      <path d="M 51.495344 94.825565 
L 202.147672 94.825565 
" clip-path="url(#pab8af0766c)" style="fill: none; stroke-dasharray: 1.85,0.8; stroke-dashoffset: 0; stroke: #000000; stroke-opacity: 0.15; stroke-width: 0.5"/>
     </g>
     <g id="line2d_6">
      <path d="M 51.495344 94.825565 
" style="fill: none; stroke: #333333; stroke-width: 1.5; stroke-linecap: square"/>
      <defs>
       <path id="meeaec81127" d="M 0 0 
L -2.75 0 
" style="stroke: #333333"/>
      </defs>
      <g>
       <use xlink:href="#meeaec81127" x="51.495344" y="94.825565" style="fill: #333333; stroke: #333333"/>
      </g>
     </g>
     <g id="text_3">
      <text style="fill: #4d4d4d; font: 8.8px 'Helvetica', 'DejaVu Sans', 'Avant Garde', 'Computer Modern Sans serif', 'Arial', sans-serif; text-anchor: end" x="46.745344" y="97.981877" transform="rotate(-0 46.745344 97.981877)">100000</text>
     </g>
    </g>
    <g id="ytick_2">
     <g id="line2d_7">
      <path d="M 51.495344 56.045253 
L 202.147672 56.045253 
" clip-path="url(#pab8af0766c)" style="fill: none; stroke-dasharray: 1.85,0.8; stroke-dashoffset: 0; stroke: #000000; stroke-opacity: 0.15; stroke-width: 0.5"/>
     </g>
     <g id="line2d_8">
      <path d="M 51.495344 56.045253 
" style="fill: none; stroke: #333333; stroke-width: 1.5; stroke-linecap: square"/>
      <g>
       <use xlink:href="#meeaec81127" x="51.495344" y="56.045253" style="fill: #333333; stroke: #333333"/>
      </g>
     </g>
     <g id="text_4">
      <text style="fill: #4d4d4d; font: 8.8px 'Helvetica', 'DejaVu Sans', 'Avant Garde', 'Computer Modern Sans serif', 'Arial', sans-serif; text-anchor: end" x="46.745344" y="59.201566" transform="rotate(-0 46.745344 59.201566)">200000</text>
     </g>
    </g>
    <g id="ytick_3"/>
    <g id="ytick_4"/>
    <g id="ytick_5"/>
   </g>
   <g id="PathCollection_1">
    <path d="M 92.582342 70.722631 
C 93.052403 70.722631 93.503274 70.535874 93.835656 70.203492 
C 94.168039 69.871109 94.354796 69.420238 94.354796 68.950177 
C 94.354796 68.480117 94.168039 68.029246 93.835656 67.696863 
C 93.503274 67.364481 93.052403 67.177724 92.582342 67.177724 
C 92.112282 67.177724 91.661411 67.364481 91.329028 67.696863 
C 90.996645 68.029246 90.809888 68.480117 90.809888 68.950177 
C 90.809888 69.420238 90.996645 69.871109 91.329028 70.203492 
C 91.661411 70.535874 92.112282 70.722631 92.582342 70.722631 
L 92.582342 70.722631 
z
" clip-path="url(#pab8af0766c)" style="fill: none"/>
    <path d="M 92.582342 69.679441 
C 93.052403 69.679441 93.503274 69.492684 93.835656 69.160301 
C 94.168039 68.827918 94.354796 68.377047 94.354796 67.906987 
C 94.354796 67.436927 94.168039 66.986056 93.835656 66.653673 
C 93.503274 66.32129 93.052403 66.134533 92.582342 66.134533 
C 92.112282 66.134533 91.661411 66.32129 91.329028 66.653673 
C 90.996645 66.986056 90.809888 67.436927 90.809888 67.906987 
C 90.809888 68.377047 90.996645 68.827918 91.329028 69.160301 
C 91.661411 69.492684 92.112282 69.679441 92.582342 69.679441 
L 92.582342 69.679441 
z
" clip-path="url(#pab8af0766c)" style="fill: none"/>
   </g>
   <g id="LineCollection_1">
    <path d="M 92.582342 100.026586 
L 92.582342 98.852512 
" clip-path="url(#pab8af0766c)" style="fill: none; stroke: #333333; stroke-width: 0.886227"/>
    <path d="M 92.582342 113.807461 
L 92.582342 122.385956 
" clip-path="url(#pab8af0766c)" style="fill: none; stroke: #333333; stroke-width: 0.886227"/>
   </g>
   <g id="PolyCollection_1">
    <defs>
     <path id="md417d6e0d0" d="M 66.902968 -43.973414 
L 66.902968 -43.973414 
L 118.261716 -43.973414 
L 118.261716 -30.192539 
L 66.902968 -30.192539 
z
" style="stroke: #333333; stroke-width: 0.886227"/>
    </defs>
    <g clip-path="url(#pab8af0766c)">
     <use xlink:href="#md417d6e0d0" x="0" y="144" style="fill: #d3894c; fill-opacity: 0.698039; stroke: #333333; stroke-width: 0.886227"/>
    </g>
   </g>
   <g id="LineCollection_2">
    <path d="M 66.902968 108.474101 
L 118.261716 108.474101 
" clip-path="url(#pab8af0766c)" style="fill: none; stroke: #333333; stroke-width: 1.772454"/>
   </g>
   <g id="PathCollection_2">
    <defs>
     <path id="m095dc785c4" d="M 0 1.772454 
C 0.47006 1.772454 0.920931 1.585697 1.253314 1.253314 
C 1.585697 0.920931 1.772454 0.47006 1.772454 0 
C 1.772454 -0.47006 1.585697 -0.920931 1.253314 -1.253314 
C 0.920931 -1.585697 0.47006 -1.772454 0 -1.772454 
C -0.47006 -1.772454 -0.920931 -1.585697 -1.253314 -1.253314 
C -1.585697 -0.920931 -1.772454 -0.47006 -1.772454 0 
C -1.772454 0.47006 -1.585697 0.920931 -1.253314 1.253314 
C -0.920931 1.585697 -0.47006 1.772454 0 1.772454 
z
" style="stroke: #333333; stroke-opacity: 0; stroke-width: 0.886227"/>
    </defs>
    <g clip-path="url(#pab8af0766c)">
     <use xlink:href="#m095dc785c4" x="161.060673" y="69.871985" style="fill: #333333; fill-opacity: 0; stroke: #333333; stroke-opacity: 0; stroke-width: 0.886227"/>
    </g>
   </g>
   <g id="LineCollection_3">
    <path d="M 161.060673 100.529761 
L 161.060673 94.422637 
" clip-path="url(#pab8af0766c)" style="fill: none; stroke: #333333; stroke-width: 0.886227"/>
    <path d="M 161.060673 110.251791 
L 161.060673 117.670271 
" clip-path="url(#pab8af0766c)" style="fill: none; stroke: #333333; stroke-width: 0.886227"/>
   </g>
   <g id="PolyCollection_2">
    <defs>
     <path id="m35ef76fa2e" d="M 135.381299 -43.470239 
L 135.381299 -43.470239 
L 186.740047 -43.470239 
L 186.740047 -33.748209 
L 135.381299 -33.748209 
z
" style="stroke: #333333; stroke-width: 0.886227"/>
    </defs>
    <g clip-path="url(#pab8af0766c)">
     <use xlink:href="#m35ef76fa2e" x="0" y="144" style="fill: #435b97; fill-opacity: 0.698039; stroke: #333333; stroke-width: 0.886227"/>
    </g>
   </g>
   <g id="LineCollection_4">
    <path d="M 135.381299 108.317235 
L 186.740047 108.317235 
" clip-path="url(#pab8af0766c)" style="fill: none; stroke: #333333; stroke-width: 1.772454"/>
   </g>
   <g id="PathCollection_3">
    <path d="M 92.582342 70.722631 
C 93.052403 70.722631 93.503274 70.535874 93.835656 70.203492 
C 94.168039 69.871109 94.354796 69.420238 94.354796 68.950177 
C 94.354796 68.480117 94.168039 68.029246 93.835656 67.696863 
C 93.503274 67.364481 93.052403 67.177724 92.582342 67.177724 
C 92.112282 67.177724 91.661411 67.364481 91.329028 67.696863 
C 90.996645 68.029246 90.809888 68.480117 90.809888 68.950177 
C 90.809888 69.420238 90.996645 69.871109 91.329028 70.203492 
C 91.661411 70.535874 92.112282 70.722631 92.582342 70.722631 
z
" clip-path="url(#pab8af0766c)" style="fill-opacity: 0.501961; stroke: #000000; stroke-opacity: 0.501961; stroke-width: 0.886227"/>
    <path d="M 161.060673 71.644439 
C 161.530734 71.644439 161.981605 71.457682 162.313987 71.1253 
C 162.64637 70.792917 162.833127 70.342046 162.833127 69.871985 
C 162.833127 69.401925 162.64637 68.951054 162.313987 68.618671 
C 161.981605 68.286289 161.530734 68.099532 161.060673 68.099532 
C 160.590613 68.099532 160.139742 68.286289 159.807359 68.618671 
C 159.474976 68.951054 159.288219 69.401925 159.288219 69.871985 
C 159.288219 70.342046 159.474976 70.792917 159.807359 71.1253 
C 160.139742 71.457682 160.590613 71.644439 161.060673 71.644439 
z
" clip-path="url(#pab8af0766c)" style="fill-opacity: 0.501961; stroke: #000000; stroke-opacity: 0.501961; stroke-width: 0.886227"/>
    <path d="M 92.582342 69.679441 
C 93.052403 69.679441 93.503274 69.492684 93.835656 69.160301 
C 94.168039 68.827918 94.354796 68.377047 94.354796 67.906987 
C 94.354796 67.436927 94.168039 66.986056 93.835656 66.653673 
C 93.503274 66.32129 93.052403 66.134533 92.582342 66.134533 
C 92.112282 66.134533 91.661411 66.32129 91.329028 66.653673 
C 90.996645 66.986056 90.809888 67.436927 90.809888 67.906987 
C 90.809888 68.377047 90.996645 68.827918 91.329028 69.160301 
C 91.661411 69.492684 92.112282 69.679441 92.582342 69.679441 
z
" clip-path="url(#pab8af0766c)" style="fill-opacity: 0.501961; stroke: #000000; stroke-opacity: 0.501961; stroke-width: 0.886227"/>
    <path d="M 161.060673 104.093865 
C 161.530734 104.093865 161.981605 103.907108 162.313987 103.574725 
C 162.64637 103.242342 162.833127 102.791471 162.833127 102.321411 
C 162.833127 101.851351 162.64637 101.40048 162.313987 101.068097 
C 161.981605 100.735714 161.530734 100.548957 161.060673 100.548957 
C 160.590613 100.548957 160.139742 100.735714 159.807359 101.068097 
C 159.474976 101.40048 159.288219 101.851351 159.288219 102.321411 
C 159.288219 102.791471 159.474976 103.242342 159.807359 103.574725 
C 160.139742 103.907108 160.590613 104.093865 161.060673 104.093865 
z
" clip-path="url(#pab8af0766c)" style="fill-opacity: 0.501961; stroke: #000000; stroke-opacity: 0.501961; stroke-width: 0.886227"/>
    <path d="M 92.582342 109.226439 
C 93.052403 109.226439 93.503274 109.039682 93.835656 108.707299 
C 94.168039 108.374917 94.354796 107.924046 94.354796 107.453985 
C 94.354796 106.983925 94.168039 106.533054 93.835656 106.200671 
C 93.503274 105.868288 93.052403 105.681531 92.582342 105.681531 
C 92.112282 105.681531 91.661411 105.868288 91.329028 106.200671 
C 90.996645 106.533054 90.809888 106.983925 90.809888 107.453985 
C 90.809888 107.924046 90.996645 108.374917 91.329028 108.707299 
C 91.661411 109.039682 92.112282 109.226439 92.582342 109.226439 
z
" clip-path="url(#pab8af0766c)" style="fill-opacity: 0.501961; stroke: #000000; stroke-opacity: 0.501961; stroke-width: 0.886227"/>
    <path d="M 161.060673 110.089689 
C 161.530734 110.089689 161.981605 109.902932 162.313987 109.570549 
C 162.64637 109.238166 162.833127 108.787295 162.833127 108.317235 
C 162.833127 107.847175 162.64637 107.396304 162.313987 107.063921 
C 161.981605 106.731538 161.530734 106.544781 161.060673 106.544781 
C 160.590613 106.544781 160.139742 106.731538 159.807359 107.063921 
C 159.474976 107.396304 159.288219 107.847175 159.288219 108.317235 
C 159.288219 108.787295 159.474976 109.238166 159.807359 109.570549 
C 160.139742 109.902932 160.590613 110.089689 161.060673 110.089689 
z
" clip-path="url(#pab8af0766c)" style="fill-opacity: 0.501961; stroke: #000000; stroke-opacity: 0.501961; stroke-width: 0.886227"/>
    <path d="M 92.582342 116.828931 
C 93.052403 116.828931 93.503274 116.642174 93.835656 116.309792 
C 94.168039 115.977409 94.354796 115.526538 94.354796 115.056478 
C 94.354796 114.586417 94.168039 114.135546 93.835656 113.803163 
C 93.503274 113.470781 93.052403 113.284024 92.582342 113.284024 
C 92.112282 113.284024 91.661411 113.470781 91.329028 113.803163 
C 90.996645 114.135546 90.809888 114.586417 90.809888 115.056478 
C 90.809888 115.526538 90.996645 115.977409 91.329028 116.309792 
C 91.661411 116.642174 92.112282 116.828931 92.582342 116.828931 
z
" clip-path="url(#pab8af0766c)" style="fill-opacity: 0.501961; stroke: #000000; stroke-opacity: 0.501961; stroke-width: 0.886227"/>
    <path d="M 161.060673 119.442724 
C 161.530734 119.442724 161.981605 119.255967 162.313987 118.923585 
C 162.64637 118.591202 162.833127 118.140331 162.833127 117.670271 
C 162.833127 117.20021 162.64637 116.749339 162.313987 116.416956 
C 161.981605 116.084574 161.530734 115.897817 161.060673 115.897817 
C 160.590613 115.897817 160.139742 116.084574 159.807359 116.416956 
C 159.474976 116.749339 159.288219 117.20021 159.288219 117.670271 
C 159.288219 118.140331 159.474976 118.591202 159.807359 118.923585 
C 160.139742 119.255967 160.590613 119.442724 161.060673 119.442724 
z
" clip-path="url(#pab8af0766c)" style="fill-opacity: 0.501961; stroke: #000000; stroke-opacity: 0.501961; stroke-width: 0.886227"/>
    <path d="M 92.582342 105.321262 
C 93.052403 105.321262 93.503274 105.134505 93.835656 104.802122 
C 94.168039 104.469739 94.354796 104.018868 94.354796 103.548808 
C 94.354796 103.078748 94.168039 102.627877 93.835656 102.295494 
C 93.503274 101.963111 93.052403 101.776354 92.582342 101.776354 
C 92.112282 101.776354 91.661411 101.963111 91.329028 102.295494 
C 90.996645 102.627877 90.809888 103.078748 90.809888 103.548808 
C 90.809888 104.018868 90.996645 104.469739 91.329028 104.802122 
C 91.661411 105.134505 92.112282 105.321262 92.582342 105.321262 
z
" clip-path="url(#pab8af0766c)" style="fill-opacity: 0.501961; stroke: #000000; stroke-opacity: 0.501961; stroke-width: 0.886227"/>
    <path d="M 161.060673 100.510564 
C 161.530734 100.510564 161.981605 100.323807 162.313987 99.991424 
C 162.64637 99.659042 162.833127 99.208171 162.833127 98.73811 
C 162.833127 98.26805 162.64637 97.817179 162.313987 97.484796 
C 161.981605 97.152413 161.530734 96.965656 161.060673 96.965656 
C 160.590613 96.965656 160.139742 97.152413 159.807359 97.484796 
C 159.474976 97.817179 159.288219 98.26805 159.288219 98.73811 
C 159.288219 99.208171 159.474976 99.659042 159.807359 99.991424 
C 160.139742 100.323807 160.590613 100.510564 161.060673 100.510564 
z
" clip-path="url(#pab8af0766c)" style="fill-opacity: 0.501961; stroke: #000000; stroke-opacity: 0.501961; stroke-width: 0.886227"/>
    <path d="M 161.060673 113.036993 
C 161.530734 113.036993 161.981605 112.850236 162.313987 112.517853 
C 162.64637 112.18547 162.833127 111.734599 162.833127 111.264539 
C 162.833127 110.794478 162.64637 110.343607 162.313987 110.011225 
C 161.981605 109.678842 161.530734 109.492085 161.060673 109.492085 
C 160.590613 109.492085 160.139742 109.678842 159.807359 110.011225 
C 159.474976 110.343607 159.288219 110.794478 159.288219 111.264539 
C 159.288219 111.734599 159.474976 112.18547 159.807359 112.517853 
C 160.139742 112.850236 160.590613 113.036993 161.060673 113.036993 
z
" clip-path="url(#pab8af0766c)" style="fill-opacity: 0.501961; stroke: #000000; stroke-opacity: 0.501961; stroke-width: 0.886227"/>
    <path d="M 161.060673 110.427078 
C 161.530734 110.427078 161.981605 110.240321 162.313987 109.907938 
C 162.64637 109.575555 162.833127 109.124684 162.833127 108.654624 
C 162.833127 108.184563 162.64637 107.733692 162.313987 107.40131 
C 161.981605 107.068927 161.530734 106.88217 161.060673 106.88217 
C 160.590613 106.88217 160.139742 107.068927 159.807359 107.40131 
C 159.474976 107.733692 159.288219 108.184563 159.288219 108.654624 
C 159.288219 109.124684 159.474976 109.575555 159.807359 109.907938 
C 160.139742 110.240321 160.590613 110.427078 161.060673 110.427078 
z
" clip-path="url(#pab8af0766c)" style="fill-opacity: 0.501961; stroke: #000000; stroke-opacity: 0.501961; stroke-width: 0.886227"/>
    <path d="M 92.582342 111.832864 
C 93.052403 111.832864 93.503274 111.646107 93.835656 111.313724 
C 94.168039 110.981341 94.354796 110.53047 94.354796 110.06041 
C 94.354796 109.59035 94.168039 109.139479 93.835656 108.807096 
C 93.503274 108.474713 93.052403 108.287956 92.582342 108.287956 
C 92.112282 108.287956 91.661411 108.474713 91.329028 108.807096 
C 90.996645 109.139479 90.809888 109.59035 90.809888 110.06041 
C 90.809888 110.53047 90.996645 110.981341 91.329028 111.313724 
C 91.661411 111.646107 92.112282 111.832864 92.582342 111.832864 
z
" clip-path="url(#pab8af0766c)" style="fill-opacity: 0.501961; stroke: #000000; stroke-opacity: 0.501961; stroke-width: 0.886227"/>
    <path d="M 92.582342 117.532018 
C 93.052403 117.532018 93.503274 117.345262 93.835656 117.012879 
C 94.168039 116.680496 94.354796 116.229625 94.354796 115.759565 
C 94.354796 115.289504 94.168039 114.838633 93.835656 114.50625 
C 93.503274 114.173868 93.052403 113.987111 92.582342 113.987111 
C 92.112282 113.987111 91.661411 114.173868 91.329028 114.50625 
C 90.996645 114.838633 90.809888 115.289504 90.809888 115.759565 
C 90.809888 116.229625 90.996645 116.680496 91.329028 117.012879 
C 91.661411 117.345262 92.112282 117.532018 92.582342 117.532018 
z
" clip-path="url(#pab8af0766c)" style="fill-opacity: 0.501961; stroke: #000000; stroke-opacity: 0.501961; stroke-width: 0.886227"/>
    <path d="M 161.060673 111.011497 
C 161.530734 111.011497 161.981605 110.82474 162.313987 110.492357 
C 162.64637 110.159974 162.833127 109.709103 162.833127 109.239043 
C 162.833127 108.768983 162.64637 108.318112 162.313987 107.985729 
C 161.981605 107.653346 161.530734 107.466589 161.060673 107.466589 
C 160.590613 107.466589 160.139742 107.653346 159.807359 107.985729 
C 159.474976 108.318112 159.288219 108.768983 159.288219 109.239043 
C 159.288219 109.709103 159.474976 110.159974 159.807359 110.492357 
C 160.139742 110.82474 160.590613 111.011497 161.060673 111.011497 
z
" clip-path="url(#pab8af0766c)" style="fill-opacity: 0.501961; stroke: #000000; stroke-opacity: 0.501961; stroke-width: 0.886227"/>
    <path d="M 92.582342 124.15841 
C 93.052403 124.15841 93.503274 123.971653 93.835656 123.639271 
C 94.168039 123.306888 94.354796 122.856017 94.354796 122.385956 
C 94.354796 121.915896 94.168039 121.465025 93.835656 121.132642 
C 93.503274 120.80026 93.052403 120.613503 92.582342 120.613503 
C 92.112282 120.613503 91.661411 120.80026 91.329028 121.132642 
C 90.996645 121.465025 90.809888 121.915896 90.809888 122.385956 
C 90.809888 122.856017 90.996645 123.306888 91.329028 123.639271 
C 91.661411 123.971653 92.112282 124.15841 92.582342 124.15841 
z
" clip-path="url(#pab8af0766c)" style="fill-opacity: 0.501961; stroke: #000000; stroke-opacity: 0.501961; stroke-width: 0.886227"/>
    <path d="M 161.060673 96.195091 
C 161.530734 96.195091 161.981605 96.008334 162.313987 95.675951 
C 162.64637 95.343569 162.833127 94.892697 162.833127 94.422637 
C 162.833127 93.952577 162.64637 93.501706 162.313987 93.169323 
C 161.981605 92.83694 161.530734 92.650183 161.060673 92.650183 
C 160.590613 92.650183 160.139742 92.83694 159.807359 93.169323 
C 159.474976 93.501706 159.288219 93.952577 159.288219 94.422637 
C 159.288219 94.892697 159.474976 95.343569 159.807359 95.675951 
C 160.139742 96.008334 160.590613 96.195091 161.060673 96.195091 
z
" clip-path="url(#pab8af0766c)" style="fill-opacity: 0.501961; stroke: #000000; stroke-opacity: 0.501961; stroke-width: 0.886227"/>
    <path d="M 92.582342 100.624966 
C 93.052403 100.624966 93.503274 100.438209 93.835656 100.105826 
C 94.168039 99.773444 94.354796 99.322572 94.354796 98.852512 
C 94.354796 98.382452 94.168039 97.931581 93.835656 97.599198 
C 93.503274 97.266815 93.052403 97.080058 92.582342 97.080058 
C 92.112282 97.080058 91.661411 97.266815 91.329028 97.599198 
C 90.996645 97.931581 90.809888 98.382452 90.809888 98.852512 
C 90.809888 99.322572 90.996645 99.773444 91.329028 100.105826 
C 91.661411 100.438209 92.112282 100.624966 92.582342 100.624966 
z
" clip-path="url(#pab8af0766c)" style="fill-opacity: 0.501961; stroke: #000000; stroke-opacity: 0.501961; stroke-width: 0.886227"/>
    <path d="M 161.060673 114.438125 
C 161.530734 114.438125 161.981605 114.251368 162.313987 113.918986 
C 162.64637 113.586603 162.833127 113.135732 162.833127 112.665671 
C 162.833127 112.195611 162.64637 111.74474 162.313987 111.412357 
C 161.981605 111.079974 161.530734 110.893218 161.060673 110.893218 
C 160.590613 110.893218 160.139742 111.079974 159.807359 111.412357 
C 159.474976 111.74474 159.288219 112.195611 159.288219 112.665671 
C 159.288219 113.135732 159.474976 113.586603 159.807359 113.918986 
C 160.139742 114.251368 160.590613 114.438125 161.060673 114.438125 
z
" clip-path="url(#pab8af0766c)" style="fill-opacity: 0.501961; stroke: #000000; stroke-opacity: 0.501961; stroke-width: 0.886227"/>
    <path d="M 92.582342 111.266671 
C 93.052403 111.266671 93.503274 111.079914 93.835656 110.747532 
C 94.168039 110.415149 94.354796 109.964278 94.354796 109.494217 
C 94.354796 109.024157 94.168039 108.573286 93.835656 108.240903 
C 93.503274 107.908521 93.052403 107.721764 92.582342 107.721764 
C 92.112282 107.721764 91.661411 107.908521 91.329028 108.240903 
C 90.996645 108.573286 90.809888 109.024157 90.809888 109.494217 
C 90.809888 109.964278 90.996645 110.415149 91.329028 110.747532 
C 91.661411 111.079914 92.112282 111.266671 92.582342 111.266671 
z
" clip-path="url(#pab8af0766c)" style="fill-opacity: 0.501961; stroke: #000000; stroke-opacity: 0.501961; stroke-width: 0.886227"/>
    <path d="M 161.060673 106.574641 
C 161.530734 106.574641 161.981605 106.387885 162.313987 106.055502 
C 162.64637 105.723119 162.833127 105.272248 162.833127 104.802188 
C 162.833127 104.332127 162.64637 103.881256 162.313987 103.548873 
C 161.981605 103.216491 161.530734 103.029734 161.060673 103.029734 
C 160.590613 103.029734 160.139742 103.216491 159.807359 103.548873 
C 159.474976 103.881256 159.288219 104.332127 159.288219 104.802188 
C 159.288219 105.272248 159.474976 105.723119 159.807359 106.055502 
C 160.139742 106.387885 160.590613 106.574641 161.060673 106.574641 
z
" clip-path="url(#pab8af0766c)" style="fill-opacity: 0.501961; stroke: #000000; stroke-opacity: 0.501961; stroke-width: 0.886227"/>
   </g>
  </g>
  <g id="axes_2">
   <g id="patch_3">
    <path d="M 205.747672 127.36975 
L 356.4 127.36975 
L 356.4 17.726292 
L 205.747672 17.726292 
z
" style="fill: #ffffff"/>
   </g>
   <g id="matplotlib.axis_3">
    <g id="xtick_3">
     <g id="line2d_9">
      <path d="M 246.83467 127.36975 
L 246.83467 17.726292 
" clip-path="url(#p69390837ab)" style="fill: none; stroke-dasharray: 1.85,0.8; stroke-dashoffset: 0; stroke: #000000; stroke-opacity: 0.15; stroke-width: 0.5"/>
     </g>
     <g id="line2d_10">
      <path d="M 246.83467 127.36975 
" style="fill: none; stroke: #333333; stroke-width: 1.5; stroke-linecap: square"/>
      <g>
       <use xlink:href="#maa571d76dd" x="246.83467" y="127.36975" style="fill: #333333; stroke: #333333"/>
      </g>
     </g>
     <g id="text_5">
      <text style="fill: #4d4d4d; font: 8.8px 'Helvetica', 'DejaVu Sans', 'Avant Garde', 'Computer Modern Sans serif', 'Arial', sans-serif; text-anchor: middle" x="246.83467" y="138.453" transform="rotate(-0 246.83467 138.453)">Flight</text>
     </g>
    </g>
    <g id="xtick_4">
     <g id="line2d_11">
      <path d="M 315.313001 127.36975 
L 315.313001 17.726292 
" clip-path="url(#p69390837ab)" style="fill: none; stroke-dasharray: 1.85,0.8; stroke-dashoffset: 0; stroke: #000000; stroke-opacity: 0.15; stroke-width: 0.5"/>
     </g>
     <g id="line2d_12">
      <path d="M 315.313001 127.36975 
" style="fill: none; stroke: #333333; stroke-width: 1.5; stroke-linecap: square"/>
      <g>
       <use xlink:href="#maa571d76dd" x="315.313001" y="127.36975" style="fill: #333333; stroke: #333333"/>
      </g>
     </g>
     <g id="text_6">
      <text style="fill: #4d4d4d; font: 8.8px 'Helvetica', 'DejaVu Sans', 'Avant Garde', 'Computer Modern Sans serif', 'Arial', sans-serif; text-anchor: middle" x="315.313001" y="138.432375" transform="rotate(-0 315.313001 138.432375)">Ground</text>
     </g>
    </g>
   </g>
   <g id="matplotlib.axis_4">
    <g id="ytick_6">
     <g id="line2d_13">
      <path d="M 205.747672 94.825565 
L 356.4 94.825565 
" clip-path="url(#p69390837ab)" style="fill: none; stroke-dasharray: 1.85,0.8; stroke-dashoffset: 0; stroke: #000000; stroke-opacity: 0.15; stroke-width: 0.5"/>
     </g>
    </g>
    <g id="ytick_7">
     <g id="line2d_14">
      <path d="M 205.747672 56.045253 
L 356.4 56.045253 
" clip-path="url(#p69390837ab)" style="fill: none; stroke-dasharray: 1.85,0.8; stroke-dashoffset: 0; stroke: #000000; stroke-opacity: 0.15; stroke-width: 0.5"/>
     </g>
    </g>
    <g id="ytick_8"/>
    <g id="ytick_9"/>
    <g id="ytick_10"/>
   </g>
   <g id="PathCollection_4">
    <g clip-path="url(#p69390837ab)">
     <use xlink:href="#m095dc785c4" x="246.83467" y="22.710085" style="fill: #333333; fill-opacity: 0; stroke: #333333; stroke-opacity: 0; stroke-width: 0.886227"/>
    </g>
   </g>
   <g id="LineCollection_5">
    <path d="M 246.83467 75.524216 
L 246.83467 65.790358 
" clip-path="url(#p69390837ab)" style="fill: none; stroke: #333333; stroke-width: 0.886227"/>
    <path d="M 246.83467 107.773147 
L 246.83467 117.175046 
" clip-path="url(#p69390837ab)" style="fill: none; stroke: #333333; stroke-width: 0.886227"/>
   </g>
   <g id="PolyCollection_3">
    <defs>
     <path id="md0eaf08995" d="M 221.155296 -68.475784 
L 221.155296 -68.475784 
L 272.514045 -68.475784 
L 272.514045 -36.226853 
L 221.155296 -36.226853 
z
" style="stroke: #333333; stroke-width: 0.886227"/>
    </defs>
    <g clip-path="url(#p69390837ab)">
     <use xlink:href="#md0eaf08995" x="0" y="144" style="fill: #d3894c; fill-opacity: 0.698039; stroke: #333333; stroke-width: 0.886227"/>
    </g>
   </g>
   <g id="LineCollection_6">
    <path d="M 221.155296 88.752762 
L 272.514045 88.752762 
" clip-path="url(#p69390837ab)" style="fill: none; stroke: #333333; stroke-width: 1.772454"/>
   </g>
   <g id="PathCollection_5">
    <g clip-path="url(#p69390837ab)">
     <use xlink:href="#m095dc785c4" x="315.313001" y="62.874854" style="fill: #333333; fill-opacity: 0; stroke: #333333; stroke-opacity: 0; stroke-width: 0.886227"/>
    </g>
   </g>
   <g id="LineCollection_7">
    <path d="M 315.313001 90.700503 
L 315.313001 80.136358 
" clip-path="url(#p69390837ab)" style="fill: none; stroke: #333333; stroke-width: 0.886227"/>
    <path d="M 315.313001 103.072586 
L 315.313001 112.301136 
" clip-path="url(#p69390837ab)" style="fill: none; stroke: #333333; stroke-width: 0.886227"/>
   </g>
   <g id="PolyCollection_4">
    <defs>
     <path id="m32953d267c" d="M 289.633627 -53.299497 
L 289.633627 -53.299497 
L 340.992376 -53.299497 
L 340.992376 -40.927414 
L 289.633627 -40.927414 
z
" style="stroke: #333333; stroke-width: 0.886227"/>
    </defs>
    <g clip-path="url(#p69390837ab)">
     <use xlink:href="#m32953d267c" x="0" y="144" style="fill: #435b97; fill-opacity: 0.698039; stroke: #333333; stroke-width: 0.886227"/>
    </g>
   </g>
   <g id="LineCollection_8">
    <path d="M 289.633627 98.257041 
L 340.992376 98.257041 
" clip-path="url(#p69390837ab)" style="fill: none; stroke: #333333; stroke-width: 1.772454"/>
   </g>
   <g id="PathCollection_6">
    <path d="M 246.83467 67.562812 
C 247.304731 67.562812 247.755602 67.376055 248.087985 67.043672 
C 248.420367 66.711289 248.607124 66.260418 248.607124 65.790358 
C 248.607124 65.320297 248.420367 64.869426 248.087985 64.537044 
C 247.755602 64.204661 247.304731 64.017904 246.83467 64.017904 
C 246.36461 64.017904 245.913739 64.204661 245.581356 64.537044 
C 245.248974 64.869426 245.062217 65.320297 245.062217 65.790358 
C 245.062217 66.260418 245.248974 66.711289 245.581356 67.043672 
C 245.913739 67.376055 246.36461 67.562812 246.83467 67.562812 
z
" clip-path="url(#p69390837ab)" style="fill-opacity: 0.501961; stroke: #000000; stroke-opacity: 0.501961; stroke-width: 0.886227"/>
    <path d="M 315.313001 64.647308 
C 315.783062 64.647308 316.233933 64.460551 316.566316 64.128168 
C 316.898698 63.795785 317.085455 63.344914 317.085455 62.874854 
C 317.085455 62.404794 316.898698 61.953922 316.566316 61.62154 
C 316.233933 61.289157 315.783062 61.1024 315.313001 61.1024 
C 314.842941 61.1024 314.39207 61.289157 314.059687 61.62154 
C 313.727304 61.953922 313.540548 62.404794 313.540548 62.874854 
C 313.540548 63.344914 313.727304 63.795785 314.059687 64.128168 
C 314.39207 64.460551 314.842941 64.647308 315.313001 64.647308 
z
" clip-path="url(#p69390837ab)" style="fill-opacity: 0.501961; stroke: #000000; stroke-opacity: 0.501961; stroke-width: 0.886227"/>
    <path d="M 246.83467 24.482539 
C 247.304731 24.482539 247.755602 24.295782 248.087985 23.963399 
C 248.420367 23.631017 248.607124 23.180145 248.607124 22.710085 
C 248.607124 22.240025 248.420367 21.789154 248.087985 21.456771 
C 247.755602 21.124388 247.304731 20.937631 246.83467 20.937631 
C 246.36461 20.937631 245.913739 21.124388 245.581356 21.456771 
C 245.248974 21.789154 245.062217 22.240025 245.062217 22.710085 
C 245.062217 23.180145 245.248974 23.631017 245.581356 23.963399 
C 245.913739 24.295782 246.36461 24.482539 246.83467 24.482539 
z
" clip-path="url(#p69390837ab)" style="fill-opacity: 0.501961; stroke: #000000; stroke-opacity: 0.501961; stroke-width: 0.886227"/>
    <path d="M 315.313001 91.60389 
C 315.783062 91.60389 316.233933 91.417133 316.566316 91.08475 
C 316.898698 90.752367 317.085455 90.301496 317.085455 89.831436 
C 317.085455 89.361376 316.898698 88.910505 316.566316 88.578122 
C 316.233933 88.245739 315.783062 88.058982 315.313001 88.058982 
C 314.842941 88.058982 314.39207 88.245739 314.059687 88.578122 
C 313.727304 88.910505 313.540548 89.361376 313.540548 89.831436 
C 313.540548 90.301496 313.727304 90.752367 314.059687 91.08475 
C 314.39207 91.417133 314.842941 91.60389 315.313001 91.60389 
z
" clip-path="url(#p69390837ab)" style="fill-opacity: 0.501961; stroke: #000000; stroke-opacity: 0.501961; stroke-width: 0.886227"/>
    <path d="M 246.83467 89.502773 
C 247.304731 89.502773 247.755602 89.316016 248.087985 88.983633 
C 248.420367 88.65125 248.607124 88.200379 248.607124 87.730319 
C 248.607124 87.260259 248.420367 86.809388 248.087985 86.477005 
C 247.755602 86.144622 247.304731 85.957865 246.83467 85.957865 
C 246.36461 85.957865 245.913739 86.144622 245.581356 86.477005 
C 245.248974 86.809388 245.062217 87.260259 245.062217 87.730319 
C 245.062217 88.200379 245.248974 88.65125 245.581356 88.983633 
C 245.913739 89.316016 246.36461 89.502773 246.83467 89.502773 
z
" clip-path="url(#p69390837ab)" style="fill-opacity: 0.501961; stroke: #000000; stroke-opacity: 0.501961; stroke-width: 0.886227"/>
    <path d="M 246.83467 91.547659 
C 247.304731 91.547659 247.755602 91.360902 248.087985 91.028519 
C 248.420367 90.696136 248.607124 90.245265 248.607124 89.775205 
C 248.607124 89.305144 248.420367 88.854273 248.087985 88.521891 
C 247.755602 88.189508 247.304731 88.002751 246.83467 88.002751 
C 246.36461 88.002751 245.913739 88.189508 245.581356 88.521891 
C 245.248974 88.854273 245.062217 89.305144 245.062217 89.775205 
C 245.062217 90.245265 245.248974 90.696136 245.581356 91.028519 
C 245.913739 91.360902 246.36461 91.547659 246.83467 91.547659 
z
" clip-path="url(#p69390837ab)" style="fill-opacity: 0.501961; stroke: #000000; stroke-opacity: 0.501961; stroke-width: 0.886227"/>
    <path d="M 315.313001 101.428106 
C 315.783062 101.428106 316.233933 101.241349 316.566316 100.908967 
C 316.898698 100.576584 317.085455 100.125713 317.085455 99.655652 
C 317.085455 99.185592 316.898698 98.734721 316.566316 98.402338 
C 316.233933 98.069956 315.783062 97.883199 315.313001 97.883199 
C 314.842941 97.883199 314.39207 98.069956 314.059687 98.402338 
C 313.727304 98.734721 313.540548 99.185592 313.540548 99.655652 
C 313.540548 100.125713 313.727304 100.576584 314.059687 100.908967 
C 314.39207 101.241349 314.842941 101.428106 315.313001 101.428106 
z
" clip-path="url(#p69390837ab)" style="fill-opacity: 0.501961; stroke: #000000; stroke-opacity: 0.501961; stroke-width: 0.886227"/>
    <path d="M 246.83467 109.904319 
C 247.304731 109.904319 247.755602 109.717562 248.087985 109.385179 
C 248.420367 109.052796 248.607124 108.601925 248.607124 108.131865 
C 248.607124 107.661805 248.420367 107.210934 248.087985 106.878551 
C 247.755602 106.546168 247.304731 106.359411 246.83467 106.359411 
C 246.36461 106.359411 245.913739 106.546168 245.581356 106.878551 
C 245.248974 107.210934 245.062217 107.661805 245.062217 108.131865 
C 245.062217 108.601925 245.248974 109.052796 245.581356 109.385179 
C 245.913739 109.717562 246.36461 109.904319 246.83467 109.904319 
z
" clip-path="url(#p69390837ab)" style="fill-opacity: 0.501961; stroke: #000000; stroke-opacity: 0.501961; stroke-width: 0.886227"/>
    <path d="M 315.313001 95.080157 
C 315.783062 95.080157 316.233933 94.8934 316.566316 94.561017 
C 316.898698 94.228635 317.085455 93.777764 317.085455 93.307703 
C 317.085455 92.837643 316.898698 92.386772 316.566316 92.054389 
C 316.233933 91.722006 315.783062 91.535249 315.313001 91.535249 
C 314.842941 91.535249 314.39207 91.722006 314.059687 92.054389 
C 313.727304 92.386772 313.540548 92.837643 313.540548 93.307703 
C 313.540548 93.777764 313.727304 94.228635 314.059687 94.561017 
C 314.39207 94.8934 314.842941 95.080157 315.313001 95.080157 
z
" clip-path="url(#p69390837ab)" style="fill-opacity: 0.501961; stroke: #000000; stroke-opacity: 0.501961; stroke-width: 0.886227"/>
    <path d="M 315.313001 103.952705 
C 315.783062 103.952705 316.233933 103.765948 316.566316 103.433565 
C 316.898698 103.101182 317.085455 102.650311 317.085455 102.180251 
C 317.085455 101.71019 316.898698 101.259319 316.566316 100.926937 
C 316.233933 100.594554 315.783062 100.407797 315.313001 100.407797 
C 314.842941 100.407797 314.39207 100.594554 314.059687 100.926937 
C 313.727304 101.259319 313.540548 101.71019 313.540548 102.180251 
C 313.540548 102.650311 313.727304 103.101182 314.059687 103.433565 
C 314.39207 103.765948 314.842941 103.952705 315.313001 103.952705 
z
" clip-path="url(#p69390837ab)" style="fill-opacity: 0.501961; stroke: #000000; stroke-opacity: 0.501961; stroke-width: 0.886227"/>
    <path d="M 315.313001 114.07359 
C 315.783062 114.07359 316.233933 113.886833 316.566316 113.554451 
C 316.898698 113.222068 317.085455 112.771197 317.085455 112.301136 
C 317.085455 111.831076 316.898698 111.380205 316.566316 111.047822 
C 316.233933 110.71544 315.783062 110.528683 315.313001 110.528683 
C 314.842941 110.528683 314.39207 110.71544 314.059687 111.047822 
C 313.727304 111.380205 313.540548 111.831076 313.540548 112.301136 
C 313.540548 112.771197 313.727304 113.222068 314.059687 113.554451 
C 314.39207 113.886833 314.842941 114.07359 315.313001 114.07359 
z
" clip-path="url(#p69390837ab)" style="fill-opacity: 0.501961; stroke: #000000; stroke-opacity: 0.501961; stroke-width: 0.886227"/>
    <path d="M 246.83467 116.405063 
C 247.304731 116.405063 247.755602 116.218306 248.087985 115.885923 
C 248.420367 115.55354 248.607124 115.102669 248.607124 114.632609 
C 248.607124 114.162549 248.420367 113.711677 248.087985 113.379295 
C 247.755602 113.046912 247.304731 112.860155 246.83467 112.860155 
C 246.36461 112.860155 245.913739 113.046912 245.581356 113.379295 
C 245.248974 113.711677 245.062217 114.162549 245.062217 114.632609 
C 245.062217 115.102669 245.248974 115.55354 245.581356 115.885923 
C 245.913739 116.218306 246.36461 116.405063 246.83467 116.405063 
z
" clip-path="url(#p69390837ab)" style="fill-opacity: 0.501961; stroke: #000000; stroke-opacity: 0.501961; stroke-width: 0.886227"/>
    <path d="M 246.83467 74.41568 
C 247.304731 74.41568 247.755602 74.228923 248.087985 73.896541 
C 248.420367 73.564158 248.607124 73.113287 248.607124 72.643226 
C 248.607124 72.173166 248.420367 71.722295 248.087985 71.389912 
C 247.755602 71.05753 247.304731 70.870773 246.83467 70.870773 
C 246.36461 70.870773 245.913739 71.05753 245.581356 71.389912 
C 245.248974 71.722295 245.062217 72.173166 245.062217 72.643226 
C 245.062217 73.113287 245.248974 73.564158 245.581356 73.896541 
C 245.913739 74.228923 246.36461 74.41568 246.83467 74.41568 
z
" clip-path="url(#p69390837ab)" style="fill-opacity: 0.501961; stroke: #000000; stroke-opacity: 0.501961; stroke-width: 0.886227"/>
    <path d="M 315.313001 105.142485 
C 315.783062 105.142485 316.233933 104.955728 316.566316 104.623345 
C 316.898698 104.290962 317.085455 103.840091 317.085455 103.370031 
C 317.085455 102.89997 316.898698 102.449099 316.566316 102.116717 
C 316.233933 101.784334 315.783062 101.597577 315.313001 101.597577 
C 314.842941 101.597577 314.39207 101.784334 314.059687 102.116717 
C 313.727304 102.449099 313.540548 102.89997 313.540548 103.370031 
C 313.540548 103.840091 313.727304 104.290962 314.059687 104.623345 
C 314.39207 104.955728 314.842941 105.142485 315.313001 105.142485 
z
" clip-path="url(#p69390837ab)" style="fill-opacity: 0.501961; stroke: #000000; stroke-opacity: 0.501961; stroke-width: 0.886227"/>
    <path d="M 246.83467 118.9475 
C 247.304731 118.9475 247.755602 118.760743 248.087985 118.42836 
C 248.420367 118.095977 248.607124 117.645106 248.607124 117.175046 
C 248.607124 116.704986 248.420367 116.254115 248.087985 115.921732 
C 247.755602 115.589349 247.304731 115.402592 246.83467 115.402592 
C 246.36461 115.402592 245.913739 115.589349 245.581356 115.921732 
C 245.248974 116.254115 245.062217 116.704986 245.062217 117.175046 
C 245.062217 117.645106 245.248974 118.095977 245.581356 118.42836 
C 245.913739 118.760743 246.36461 118.9475 246.83467 118.9475 
z
" clip-path="url(#p69390837ab)" style="fill-opacity: 0.501961; stroke: #000000; stroke-opacity: 0.501961; stroke-width: 0.886227"/>
    <path d="M 315.313001 112.14427 
C 315.783062 112.14427 316.233933 111.957513 316.566316 111.62513 
C 316.898698 111.292747 317.085455 110.841876 317.085455 110.371816 
C 317.085455 109.901756 316.898698 109.450885 316.566316 109.118502 
C 316.233933 108.786119 315.783062 108.599362 315.313001 108.599362 
C 314.842941 108.599362 314.39207 108.786119 314.059687 109.118502 
C 313.727304 109.450885 313.540548 109.901756 313.540548 110.371816 
C 313.540548 110.841876 313.727304 111.292747 314.059687 111.62513 
C 314.39207 111.957513 314.842941 112.14427 315.313001 112.14427 
z
" clip-path="url(#p69390837ab)" style="fill-opacity: 0.501961; stroke: #000000; stroke-opacity: 0.501961; stroke-width: 0.886227"/>
    <path d="M 246.83467 108.469447 
C 247.304731 108.469447 247.755602 108.282691 248.087985 107.950308 
C 248.420367 107.617925 248.607124 107.167054 248.607124 106.696994 
C 248.607124 106.226933 248.420367 105.776062 248.087985 105.443679 
C 247.755602 105.111297 247.304731 104.92454 246.83467 104.92454 
C 246.36461 104.92454 245.913739 105.111297 245.581356 105.443679 
C 245.248974 105.776062 245.062217 106.226933 245.062217 106.696994 
C 245.062217 107.167054 245.248974 107.617925 245.581356 107.950308 
C 245.913739 108.282691 246.36461 108.469447 246.83467 108.469447 
z
" clip-path="url(#p69390837ab)" style="fill-opacity: 0.501961; stroke: #000000; stroke-opacity: 0.501961; stroke-width: 0.886227"/>
    <path d="M 315.313001 98.630882 
C 315.783062 98.630882 316.233933 98.444126 316.566316 98.111743 
C 316.898698 97.77936 317.085455 97.328489 317.085455 96.858429 
C 317.085455 96.388368 316.898698 95.937497 316.566316 95.605114 
C 316.233933 95.272732 315.783062 95.085975 315.313001 95.085975 
C 314.842941 95.085975 314.39207 95.272732 314.059687 95.605114 
C 313.727304 95.937497 313.540548 96.388368 313.540548 96.858429 
C 313.540548 97.328489 313.727304 97.77936 314.059687 98.111743 
C 314.39207 98.444126 314.842941 98.630882 315.313001 98.630882 
z
" clip-path="url(#p69390837ab)" style="fill-opacity: 0.501961; stroke: #000000; stroke-opacity: 0.501961; stroke-width: 0.886227"/>
    <path d="M 246.83467 85.939638 
C 247.304731 85.939638 247.755602 85.752881 248.087985 85.420498 
C 248.420367 85.088115 248.607124 84.637244 248.607124 84.167184 
C 248.607124 83.697124 248.420367 83.246253 248.087985 82.91387 
C 247.755602 82.581487 247.304731 82.39473 246.83467 82.39473 
C 246.36461 82.39473 245.913739 82.581487 245.581356 82.91387 
C 245.248974 83.246253 245.062217 83.697124 245.062217 84.167184 
C 245.062217 84.637244 245.248974 85.088115 245.581356 85.420498 
C 245.913739 85.752881 246.36461 85.939638 246.83467 85.939638 
z
" clip-path="url(#p69390837ab)" style="fill-opacity: 0.501961; stroke: #000000; stroke-opacity: 0.501961; stroke-width: 0.886227"/>
    <path d="M 315.313001 81.908812 
C 315.783062 81.908812 316.233933 81.722055 316.566316 81.389672 
C 316.898698 81.05729 317.085455 80.606419 317.085455 80.136358 
C 317.085455 79.666298 316.898698 79.215427 316.566316 78.883044 
C 316.233933 78.550661 315.783062 78.363904 315.313001 78.363904 
C 314.842941 78.363904 314.39207 78.550661 314.059687 78.883044 
C 313.727304 79.215427 313.540548 79.666298 313.540548 80.136358 
C 313.540548 80.606419 313.727304 81.05729 314.059687 81.389672 
C 314.39207 81.722055 314.842941 81.908812 315.313001 81.908812 
z
" clip-path="url(#p69390837ab)" style="fill-opacity: 0.501961; stroke: #000000; stroke-opacity: 0.501961; stroke-width: 0.886227"/>
   </g>
  </g>
  <g id="patch_4">
   <path d="M 51.495344 127.36975 
L 202.147672 127.36975 
L 202.147672 17.726292 
L 51.495344 17.726292 
L 51.495344 127.36975 
z
" style="fill: none; stroke: #7f7f7f; stroke-linejoin: miter"/>
  </g>
  <g id="patch_5">
   <path d="M 205.747672 127.36975 
L 356.4 127.36975 
L 356.4 17.726292 
L 205.747672 17.726292 
L 205.747672 127.36975 
z
" style="fill: none; stroke: #7f7f7f; stroke-linejoin: miter"/>
  </g>
  <g id="text_7">
   <text style="font: 11px 'Helvetica', 'DejaVu Sans', 'Avant Garde', 'Computer Modern Sans serif', 'Arial', sans-serif" transform="translate(11.490781 104.649115) rotate(-90)">Read Counts</text>
  </g>
  <g id="patch_6">
   <path d="M 51.495344 17.726292 
L 202.147672 17.726292 
L 202.147672 3.71275 
L 51.495344 3.71275 
z
" style="fill: #cccccc; stroke: #7f7f7f; stroke-linejoin: miter"/>
  </g>
  <g id="text_8">
   <text style="fill: #1a1a1a; font: 8.8px 'Helvetica', 'DejaVu Sans', 'Avant Garde', 'Computer Modern Sans serif', 'Arial', sans-serif; text-anchor: middle" x="126.821508" y="13.875833" transform="rotate(-0 126.821508 13.875833)">Bacteria</text>
  </g>
  <g id="patch_7">
   <path d="M 205.747672 17.726292 
L 356.4 17.726292 
L 356.4 3.6 
L 205.747672 3.6 
z
" style="fill: #cccccc; stroke: #7f7f7f; stroke-linejoin: miter"/>
  </g>
  <g id="text_9">
   <text style="fill: #1a1a1a; font: 8.8px 'Helvetica', 'DejaVu Sans', 'Avant Garde', 'Computer Modern Sans serif', 'Arial', sans-serif; text-anchor: middle" x="281.073836" y="13.819458" transform="rotate(-0 281.073836 13.819458)">Fungi</text>
  </g>
 </g>
 <defs>
  <clipPath id="pab8af0766c">
   <rect x="51.495344" y="17.726292" width="150.652328" height="109.643458"/>
  </clipPath>
  <clipPath id="p69390837ab">
   <rect x="205.747672" y="17.726292" width="150.652328" height="109.643458"/>
  </clipPath>
 </defs>
</svg>
