<?xml version="1.0" encoding="utf-8" standalone="no"?>
<!DOCTYPE svg PUBLIC "-//W3C//DTD SVG 1.1//EN"
  "http://www.w3.org/Graphics/SVG/1.1/DTD/svg11.dtd">
<svg xmlns:xlink="http://www.w3.org/1999/xlink" width="288pt" height="216pt" viewBox="0 0 288 216" xmlns="http://www.w3.org/2000/svg" version="1.1">
 <metadata>
  <rdf:RDF xmlns:dc="http://purl.org/dc/elements/1.1/" xmlns:cc="http://creativecommons.org/ns#" xmlns:rdf="http://www.w3.org/1999/02/22-rdf-syntax-ns#">
   <cc:Work>
    <dc:type rdf:resource="http://purl.org/dc/dcmitype/StillImage"/>
    <dc:date>2024-08-02T10:47:30.092545</dc:date>
    <dc:format>image/svg+xml</dc:format>
    <dc:creator>
     <cc:Agent>
      <dc:title>Matplotlib v3.7.1, https://matplotlib.org/</dc:title>
     </cc:Agent>
    </dc:creator>
   </cc:Work>
  </rdf:RDF>
 </metadata>
 <defs>
  <style type="text/css">*{stroke-linejoin: round; stroke-linecap: butt}</style>
 </defs>
 <g id="figure_1">
  <g id="patch_1">
   <path d="M 0 216 
L 288 216 
L 288 0 
L 0 0 
z
" style="fill: #ffffff; stroke: #ffffff; stroke-linejoin: miter"/>
  </g>
  <g id="axes_1">
   <g id="patch_2">
    <path d="M 35.530875 107.138271 
L 151.878667 107.138271 
L 151.878667 17.006292 
L 35.530875 17.006292 
z
" style="fill: #ffffff"/>
   </g>
   <g id="matplotlib.axis_1">
    <g id="xtick_1">
     <g id="line2d_1">
      <path d="M 67.262091 107.138271 
L 67.262091 17.006292 
" clip-path="url(#p2027dbe4ad)" style="fill: none; stroke-dasharray: 1.85,0.8; stroke-dashoffset: 0; stroke: #000000; stroke-opacity: 0.15; stroke-width: 0.5"/>
     </g>
    </g>
    <g id="xtick_2">
     <g id="line2d_2">
      <path d="M 120.147451 107.138271 
L 120.147451 17.006292 
" clip-path="url(#p2027dbe4ad)" style="fill: none; stroke-dasharray: 1.85,0.8; stroke-dashoffset: 0; stroke: #000000; stroke-opacity: 0.15; stroke-width: 0.5"/>
     </g>
    </g>
   </g>
   <g id="matplotlib.axis_2">
    <g id="ytick_1">
     <g id="line2d_3">
      <path d="M 35.530875 99.468923 
L 151.878667 99.468923 
" clip-path="url(#p2027dbe4ad)" style="fill: none; stroke-dasharray: 1.85,0.8; stroke-dashoffset: 0; stroke: #000000; stroke-opacity: 0.15; stroke-width: 0.5"/>
     </g>
     <g id="line2d_4">
      <path d="M 35.530875 99.468923 
" style="fill: none; stroke: #333333; stroke-width: 1.5; stroke-linecap: square"/>
      <defs>
       <path id="m02c22b8052" d="M 0 0 
L -2.75 0 
" style="stroke: #333333"/>
      </defs>
      <g>
       <use xlink:href="#m02c22b8052" x="35.530875" y="99.468923" style="fill: #333333; stroke: #333333"/>
      </g>
     </g>
     <g id="text_1">
      <text style="fill: #4d4d4d; font: 8.8px 'Helvetica', 'DejaVu Sans', 'Avant Garde', 'Computer Modern Sans serif', 'Arial', sans-serif; text-anchor: end" x="30.780875" y="102.625236" transform="rotate(-0 30.780875 102.625236)">0</text>
     </g>
    </g>
    <g id="ytick_2">
     <g id="line2d_5">
      <path d="M 35.530875 76.981466 
L 151.878667 76.981466 
" clip-path="url(#p2027dbe4ad)" style="fill: none; stroke-dasharray: 1.85,0.8; stroke-dashoffset: 0; stroke: #000000; stroke-opacity: 0.15; stroke-width: 0.5"/>
     </g>
     <g id="line2d_6">
      <path d="M 35.530875 76.981466 
" style="fill: none; stroke: #333333; stroke-width: 1.5; stroke-linecap: square"/>
      <g>
       <use xlink:href="#m02c22b8052" x="35.530875" y="76.981466" style="fill: #333333; stroke: #333333"/>
      </g>
     </g>
     <g id="text_2">
      <text style="fill: #4d4d4d; font: 8.8px 'Helvetica', 'DejaVu Sans', 'Avant Garde', 'Computer Modern Sans serif', 'Arial', sans-serif; text-anchor: end" x="30.780875" y="80.137778" transform="rotate(-0 30.780875 80.137778)">50</text>
     </g>
    </g>
    <g id="ytick_3">
     <g id="line2d_7">
      <path d="M 35.530875 54.494008 
L 151.878667 54.494008 
" clip-path="url(#p2027dbe4ad)" style="fill: none; stroke-dasharray: 1.85,0.8; stroke-dashoffset: 0; stroke: #000000; stroke-opacity: 0.15; stroke-width: 0.5"/>
     </g>
     <g id="line2d_8">
      <path d="M 35.530875 54.494008 
" style="fill: none; stroke: #333333; stroke-width: 1.5; stroke-linecap: square"/>
      <g>
       <use xlink:href="#m02c22b8052" x="35.530875" y="54.494008" style="fill: #333333; stroke: #333333"/>
      </g>
     </g>
     <g id="text_3">
      <text style="fill: #4d4d4d; font: 8.8px 'Helvetica', 'DejaVu Sans', 'Avant Garde', 'Computer Modern Sans serif', 'Arial', sans-serif; text-anchor: end" x="30.780875" y="57.650321" transform="rotate(-0 30.780875 57.650321)">100</text>
     </g>
    </g>
    <g id="ytick_4">
     <g id="line2d_9">
      <path d="M 35.530875 32.00655 
L 151.878667 32.00655 
" clip-path="url(#p2027dbe4ad)" style="fill: none; stroke-dasharray: 1.85,0.8; stroke-dashoffset: 0; stroke: #000000; stroke-opacity: 0.15; stroke-width: 0.5"/>
     </g>
     <g id="line2d_10">
      <path d="M 35.530875 32.00655 
" style="fill: none; stroke: #333333; stroke-width: 1.5; stroke-linecap: square"/>
      <g>
       <use xlink:href="#m02c22b8052" x="35.530875" y="32.00655" style="fill: #333333; stroke: #333333"/>
      </g>
     </g>
     <g id="text_4">
      <text style="fill: #4d4d4d; font: 8.8px 'Helvetica', 'DejaVu Sans', 'Avant Garde', 'Computer Modern Sans serif', 'Arial', sans-serif; text-anchor: end" x="30.780875" y="35.162863" transform="rotate(-0 30.780875 35.162863)">150</text>
     </g>
    </g>
    <g id="ytick_5"/>
    <g id="ytick_6"/>
    <g id="ytick_7"/>
    <g id="ytick_8"/>
   </g>
   <g id="PathCollection_1">
    <path d="M 67.262091 69.758936 
C 67.732151 69.758936 68.183022 69.57218 68.515405 69.239797 
C 68.847788 68.907414 69.034545 68.456543 69.034545 67.986483 
C 69.034545 67.516422 68.847788 67.065551 68.515405 66.733168 
C 68.183022 66.400786 67.732151 66.214029 67.262091 66.214029 
C 66.792031 66.214029 66.34116 66.400786 66.008777 66.733168 
C 65.676394 67.065551 65.489637 67.516422 65.489637 67.986483 
C 65.489637 68.456543 65.676394 68.907414 66.008777 69.239797 
C 66.34116 69.57218 66.792031 69.758936 67.262091 69.758936 
z
" clip-path="url(#p2027dbe4ad)" style="fill: #d3894c; fill-opacity: 0.6"/>
    <path d="M 67.262091 78.75392 
C 67.732151 78.75392 68.183022 78.567163 68.515405 78.23478 
C 68.847788 77.902397 69.034545 77.451526 69.034545 76.981466 
C 69.034545 76.511405 68.847788 76.060534 68.515405 75.728152 
C 68.183022 75.395769 67.732151 75.209012 67.262091 75.209012 
C 66.792031 75.209012 66.34116 75.395769 66.008777 75.728152 
C 65.676394 76.060534 65.489637 76.511405 65.489637 76.981466 
C 65.489637 77.451526 65.676394 77.902397 66.008777 78.23478 
C 66.34116 78.567163 66.792031 78.75392 67.262091 78.75392 
z
" clip-path="url(#p2027dbe4ad)" style="fill: #435b97; fill-opacity: 0.6"/>
    <path d="M 67.262091 74.256428 
C 67.732151 74.256428 68.183022 74.069671 68.515405 73.737288 
C 68.847788 73.404906 69.034545 72.954034 69.034545 72.483974 
C 69.034545 72.013914 68.847788 71.563043 68.515405 71.23066 
C 68.183022 70.898277 67.732151 70.71152 67.262091 70.71152 
C 66.792031 70.71152 66.34116 70.898277 66.008777 71.23066 
C 65.676394 71.563043 65.489637 72.013914 65.489637 72.483974 
C 65.489637 72.954034 65.676394 73.404906 66.008777 73.737288 
C 66.34116 74.069671 66.792031 74.256428 67.262091 74.256428 
z
" clip-path="url(#p2027dbe4ad)" style="fill: #d3894c; fill-opacity: 0.6"/>
    <path d="M 67.262091 88.648401 
C 67.732151 88.648401 68.183022 88.461644 68.515405 88.129261 
C 68.847788 87.796878 69.034545 87.346007 69.034545 86.875947 
C 69.034545 86.405887 68.847788 85.955016 68.515405 85.622633 
C 68.183022 85.29025 67.732151 85.103493 67.262091 85.103493 
C 66.792031 85.103493 66.34116 85.29025 66.008777 85.622633 
C 65.676394 85.955016 65.489637 86.405887 65.489637 86.875947 
C 65.489637 87.346007 65.676394 87.796878 66.008777 88.129261 
C 66.34116 88.461644 66.792031 88.648401 67.262091 88.648401 
z
" clip-path="url(#p2027dbe4ad)" style="fill: #435b97; fill-opacity: 0.6"/>
    <path d="M 67.262091 89.547899 
C 67.732151 89.547899 68.183022 89.361142 68.515405 89.02876 
C 68.847788 88.696377 69.034545 88.245506 69.034545 87.775445 
C 69.034545 87.305385 68.847788 86.854514 68.515405 86.522131 
C 68.183022 86.189748 67.732151 86.002992 67.262091 86.002992 
C 66.792031 86.002992 66.34116 86.189748 66.008777 86.522131 
C 65.676394 86.854514 65.489637 87.305385 65.489637 87.775445 
C 65.489637 88.245506 65.676394 88.696377 66.008777 89.02876 
C 66.34116 89.361142 66.792031 89.547899 67.262091 89.547899 
z
" clip-path="url(#p2027dbe4ad)" style="fill: #d3894c; fill-opacity: 0.6"/>
    <path d="M 67.262091 86.399655 
C 67.732151 86.399655 68.183022 86.212898 68.515405 85.880515 
C 68.847788 85.548133 69.034545 85.097262 69.034545 84.627201 
C 69.034545 84.157141 68.847788 83.70627 68.515405 83.373887 
C 68.183022 83.041504 67.732151 82.854747 67.262091 82.854747 
C 66.792031 82.854747 66.34116 83.041504 66.008777 83.373887 
C 65.676394 83.70627 65.489637 84.157141 65.489637 84.627201 
C 65.489637 85.097262 65.676394 85.548133 66.008777 85.880515 
C 66.34116 86.212898 66.792031 86.399655 67.262091 86.399655 
z
" clip-path="url(#p2027dbe4ad)" style="fill: #435b97; fill-opacity: 0.6"/>
    <path d="M 67.262091 88.198652 
C 67.732151 88.198652 68.183022 88.011895 68.515405 87.679512 
C 68.847788 87.347129 69.034545 86.896258 69.034545 86.426198 
C 69.034545 85.956138 68.847788 85.505267 68.515405 85.172884 
C 68.183022 84.840501 67.732151 84.653744 67.262091 84.653744 
C 66.792031 84.653744 66.34116 84.840501 66.008777 85.172884 
C 65.676394 85.505267 65.489637 85.956138 65.489637 86.426198 
C 65.489637 86.896258 65.676394 87.347129 66.008777 87.679512 
C 66.34116 88.011895 66.792031 88.198652 67.262091 88.198652 
z
" clip-path="url(#p2027dbe4ad)" style="fill: #d3894c; fill-opacity: 0.6"/>
    <path d="M 67.262091 94.045391 
C 67.732151 94.045391 68.183022 93.858634 68.515405 93.526251 
C 68.847788 93.193868 69.034545 92.742997 69.034545 92.272937 
C 69.034545 91.802877 68.847788 91.352006 68.515405 91.019623 
C 68.183022 90.68724 67.732151 90.500483 67.262091 90.500483 
C 66.792031 90.500483 66.34116 90.68724 66.008777 91.019623 
C 65.676394 91.352006 65.489637 91.802877 65.489637 92.272937 
C 65.489637 92.742997 65.676394 93.193868 66.008777 93.526251 
C 66.34116 93.858634 66.792031 94.045391 67.262091 94.045391 
z
" clip-path="url(#p2027dbe4ad)" style="fill: #435b97; fill-opacity: 0.6"/>
    <path d="M 67.262091 89.997648 
C 67.732151 89.997648 68.183022 89.810891 68.515405 89.478509 
C 68.847788 89.146126 69.034545 88.695255 69.034545 88.225195 
C 69.034545 87.755134 68.847788 87.304263 68.515405 86.97188 
C 68.183022 86.639498 67.732151 86.452741 67.262091 86.452741 
C 66.792031 86.452741 66.34116 86.639498 66.008777 86.97188 
C 65.676394 87.304263 65.489637 87.755134 65.489637 88.225195 
C 65.489637 88.695255 65.676394 89.146126 66.008777 89.478509 
C 66.34116 89.810891 66.792031 89.997648 67.262091 89.997648 
z
" clip-path="url(#p2027dbe4ad)" style="fill: #d3894c; fill-opacity: 0.6"/>
    <path d="M 67.262091 84.600659 
C 67.732151 84.600659 68.183022 84.413902 68.515405 84.081519 
C 68.847788 83.749136 69.034545 83.298265 69.034545 82.828205 
C 69.034545 82.358144 68.847788 81.907273 68.515405 81.574891 
C 68.183022 81.242508 67.732151 81.055751 67.262091 81.055751 
C 66.792031 81.055751 66.34116 81.242508 66.008777 81.574891 
C 65.676394 81.907273 65.489637 82.358144 65.489637 82.828205 
C 65.489637 83.298265 65.676394 83.749136 66.008777 84.081519 
C 66.34116 84.413902 66.792031 84.600659 67.262091 84.600659 
z
" clip-path="url(#p2027dbe4ad)" style="fill: #435b97; fill-opacity: 0.6"/>
    <path d="M 67.262091 84.600659 
C 67.732151 84.600659 68.183022 84.413902 68.515405 84.081519 
C 68.847788 83.749136 69.034545 83.298265 69.034545 82.828205 
C 69.034545 82.358144 68.847788 81.907273 68.515405 81.574891 
C 68.183022 81.242508 67.732151 81.055751 67.262091 81.055751 
C 66.792031 81.055751 66.34116 81.242508 66.008777 81.574891 
C 65.676394 81.907273 65.489637 82.358144 65.489637 82.828205 
C 65.489637 83.298265 65.676394 83.749136 66.008777 84.081519 
C 66.34116 84.413902 66.792031 84.600659 67.262091 84.600659 
z
" clip-path="url(#p2027dbe4ad)" style="fill: #435b97; fill-opacity: 0.6"/>
    <path d="M 67.262091 84.150909 
C 67.732151 84.150909 68.183022 83.964152 68.515405 83.63177 
C 68.847788 83.299387 69.034545 82.848516 69.034545 82.378456 
C 69.034545 81.908395 68.847788 81.457524 68.515405 81.125141 
C 68.183022 80.792759 67.732151 80.606002 67.262091 80.606002 
C 66.792031 80.606002 66.34116 80.792759 66.008777 81.125141 
C 65.676394 81.457524 65.489637 81.908395 65.489637 82.378456 
C 65.489637 82.848516 65.676394 83.299387 66.008777 83.63177 
C 66.34116 83.964152 66.792031 84.150909 67.262091 84.150909 
z
" clip-path="url(#p2027dbe4ad)" style="fill: #435b97; fill-opacity: 0.6"/>
    <path d="M 120.147451 45.022733 
C 120.617511 45.022733 121.068382 44.835976 121.400765 44.503593 
C 121.733148 44.171211 121.919905 43.720339 121.919905 43.250279 
C 121.919905 42.780219 121.733148 42.329348 121.400765 41.996965 
C 121.068382 41.664582 120.617511 41.477825 120.147451 41.477825 
C 119.677391 41.477825 119.226519 41.664582 118.894137 41.996965 
C 118.561754 42.329348 118.374997 42.780219 118.374997 43.250279 
C 118.374997 43.720339 118.561754 44.171211 118.894137 44.503593 
C 119.226519 44.835976 119.677391 45.022733 120.147451 45.022733 
z
" clip-path="url(#p2027dbe4ad)" style="fill: #d3894c; fill-opacity: 0.6"/>
    <path d="M 120.147451 73.35693 
C 120.617511 73.35693 121.068382 73.170173 121.400765 72.83779 
C 121.733148 72.505407 121.919905 72.054536 121.919905 71.584476 
C 121.919905 71.114416 121.733148 70.663545 121.400765 70.331162 
C 121.068382 69.998779 120.617511 69.812022 120.147451 69.812022 
C 119.677391 69.812022 119.226519 69.998779 118.894137 70.331162 
C 118.561754 70.663545 118.374997 71.114416 118.374997 71.584476 
C 118.374997 72.054536 118.561754 72.505407 118.894137 72.83779 
C 119.226519 73.170173 119.677391 73.35693 120.147451 73.35693 
z
" clip-path="url(#p2027dbe4ad)" style="fill: #d3894c; fill-opacity: 0.6"/>
    <path d="M 120.147451 54.917214 
C 120.617511 54.917214 121.068382 54.730457 121.400765 54.398075 
C 121.733148 54.065692 121.919905 53.614821 121.919905 53.144761 
C 121.919905 52.6747 121.733148 52.223829 121.400765 51.891446 
C 121.068382 51.559064 120.617511 51.372307 120.147451 51.372307 
C 119.677391 51.372307 119.226519 51.559064 118.894137 51.891446 
C 118.561754 52.223829 118.374997 52.6747 118.374997 53.144761 
C 118.374997 53.614821 118.561754 54.065692 118.894137 54.398075 
C 119.226519 54.730457 119.677391 54.917214 120.147451 54.917214 
z
" clip-path="url(#p2027dbe4ad)" style="fill: #435b97; fill-opacity: 0.6"/>
    <path d="M 120.147451 74.256428 
C 120.617511 74.256428 121.068382 74.069671 121.400765 73.737288 
C 121.733148 73.404906 121.919905 72.954034 121.919905 72.483974 
C 121.919905 72.013914 121.733148 71.563043 121.400765 71.23066 
C 121.068382 70.898277 120.617511 70.71152 120.147451 70.71152 
C 119.677391 70.71152 119.226519 70.898277 118.894137 71.23066 
C 118.561754 71.563043 118.374997 72.013914 118.374997 72.483974 
C 118.374997 72.954034 118.561754 73.404906 118.894137 73.737288 
C 119.226519 74.069671 119.677391 74.256428 120.147451 74.256428 
z
" clip-path="url(#p2027dbe4ad)" style="fill: #d3894c; fill-opacity: 0.6"/>
    <path d="M 120.147451 67.510191 
C 120.617511 67.510191 121.068382 67.323434 121.400765 66.991051 
C 121.733148 66.658668 121.919905 66.207797 121.919905 65.737737 
C 121.919905 65.267677 121.733148 64.816806 121.400765 64.484423 
C 121.068382 64.15204 120.617511 63.965283 120.147451 63.965283 
C 119.677391 63.965283 119.226519 64.15204 118.894137 64.484423 
C 118.561754 64.816806 118.374997 65.267677 118.374997 65.737737 
C 118.374997 66.207797 118.561754 66.658668 118.894137 66.991051 
C 119.226519 67.323434 119.677391 67.510191 120.147451 67.510191 
z
" clip-path="url(#p2027dbe4ad)" style="fill: #435b97; fill-opacity: 0.6"/>
    <path d="M 120.147451 46.37198 
C 120.617511 46.37198 121.068382 46.185224 121.400765 45.852841 
C 121.733148 45.520458 121.919905 45.069587 121.919905 44.599527 
C 121.919905 44.129466 121.733148 43.678595 121.400765 43.346212 
C 121.068382 43.01383 120.617511 42.827073 120.147451 42.827073 
C 119.677391 42.827073 119.226519 43.01383 118.894137 43.346212 
C 118.561754 43.678595 118.374997 44.129466 118.374997 44.599527 
C 118.374997 45.069587 118.561754 45.520458 118.894137 45.852841 
C 119.226519 46.185224 119.677391 46.37198 120.147451 46.37198 
z
" clip-path="url(#p2027dbe4ad)" style="fill: #d3894c; fill-opacity: 0.6"/>
    <path d="M 120.147451 48.170977 
C 120.617511 48.170977 121.068382 47.98422 121.400765 47.651837 
C 121.733148 47.319455 121.919905 46.868583 121.919905 46.398523 
C 121.919905 45.928463 121.733148 45.477592 121.400765 45.145209 
C 121.068382 44.812826 120.617511 44.626069 120.147451 44.626069 
C 119.677391 44.626069 119.226519 44.812826 118.894137 45.145209 
C 118.561754 45.477592 118.374997 45.928463 118.374997 46.398523 
C 118.374997 46.868583 118.561754 47.319455 118.894137 47.651837 
C 119.226519 47.98422 119.677391 48.170977 120.147451 48.170977 
z
" clip-path="url(#p2027dbe4ad)" style="fill: #435b97; fill-opacity: 0.6"/>
    <path d="M 120.147451 36.927248 
C 120.617511 36.927248 121.068382 36.740491 121.400765 36.408109 
C 121.733148 36.075726 121.919905 35.624855 121.919905 35.154794 
C 121.919905 34.684734 121.733148 34.233863 121.400765 33.90148 
C 121.068382 33.569097 120.617511 33.382341 120.147451 33.382341 
C 119.677391 33.382341 119.226519 33.569097 118.894137 33.90148 
C 118.561754 34.233863 118.374997 34.684734 118.374997 35.154794 
C 118.374997 35.624855 118.561754 36.075726 118.894137 36.408109 
C 119.226519 36.740491 119.677391 36.927248 120.147451 36.927248 
z
" clip-path="url(#p2027dbe4ad)" style="fill: #d3894c; fill-opacity: 0.6"/>
    <path d="M 120.147451 65.261445 
C 120.617511 65.261445 121.068382 65.074688 121.400765 64.742305 
C 121.733148 64.409922 121.919905 63.959051 121.919905 63.488991 
C 121.919905 63.018931 121.733148 62.56806 121.400765 62.235677 
C 121.068382 61.903294 120.617511 61.716537 120.147451 61.716537 
C 119.677391 61.716537 119.226519 61.903294 118.894137 62.235677 
C 118.561754 62.56806 118.374997 63.018931 118.374997 63.488991 
C 118.374997 63.959051 118.561754 64.409922 118.894137 64.742305 
C 119.226519 65.074688 119.677391 65.261445 120.147451 65.261445 
z
" clip-path="url(#p2027dbe4ad)" style="fill: #435b97; fill-opacity: 0.6"/>
   </g>
   <g id="PathCollection_2">
    <defs>
     <path id="m7fd7453d81" d="M 0 1.772454 
C 0.47006 1.772454 0.920931 1.585697 1.253314 1.253314 
C 1.585697 0.920931 1.772454 0.47006 1.772454 0 
C 1.772454 -0.47006 1.585697 -0.920931 1.253314 -1.253314 
C 0.920931 -1.585697 0.47006 -1.772454 0 -1.772454 
C -0.47006 -1.772454 -0.920931 -1.585697 -1.253314 -1.253314 
C -1.585697 -0.920931 -1.772454 -0.47006 -1.772454 0 
C -1.772454 0.47006 -1.585697 0.920931 -1.253314 1.253314 
C -0.920931 1.585697 -0.47006 1.772454 0 1.772454 
z
" style="stroke: #333333; stroke-opacity: 0; stroke-width: 0.886227"/>
    </defs>
    <g clip-path="url(#p2027dbe4ad)">
     <use xlink:href="#m7fd7453d81" x="67.262091" y="67.986483" style="fill: #333333; fill-opacity: 0; stroke: #333333; stroke-opacity: 0; stroke-width: 0.886227"/>
    </g>
   </g>
   <g id="LineCollection_1">
    <path d="M 67.262091 81.029208 
L 67.262091 72.483974 
" clip-path="url(#p2027dbe4ad)" style="fill: none; stroke: #333333; stroke-width: 0.886227"/>
    <path d="M 67.262091 87.100822 
L 67.262091 92.272937 
" clip-path="url(#p2027dbe4ad)" style="fill: none; stroke: #333333; stroke-width: 0.886227"/>
   </g>
   <g id="PolyCollection_1">
    <defs>
     <path id="m0ea5c1261d" d="M 47.430081 -134.970792 
L 47.430081 -134.970792 
L 87.094101 -134.970792 
L 87.094101 -128.899178 
L 47.430081 -128.899178 
z
" style="stroke: #333333; stroke-width: 0.886227"/>
    </defs>
    <g clip-path="url(#p2027dbe4ad)">
     <use xlink:href="#m0ea5c1261d" x="0" y="216" style="fill: #ffffff; fill-opacity: 0.6; stroke: #333333; stroke-width: 0.886227"/>
    </g>
   </g>
   <g id="LineCollection_2">
    <path d="M 47.430081 83.727703 
L 87.094101 83.727703 
" clip-path="url(#p2027dbe4ad)" style="fill: none; stroke: #333333; stroke-width: 1.772454"/>
   </g>
   <g id="LineCollection_3">
    <path d="M 120.147451 44.599527 
L 120.147451 35.154794 
" clip-path="url(#p2027dbe4ad)" style="fill: none; stroke: #333333; stroke-width: 0.886227"/>
    <path d="M 120.147451 65.737737 
L 120.147451 72.483974 
" clip-path="url(#p2027dbe4ad)" style="fill: none; stroke: #333333; stroke-width: 0.886227"/>
   </g>
   <g id="PolyCollection_2">
    <defs>
     <path id="m9b8da5809a" d="M 100.315441 -171.400473 
L 100.315441 -171.400473 
L 139.979461 -171.400473 
L 139.979461 -150.262263 
L 100.315441 -150.262263 
z
" style="stroke: #333333; stroke-width: 0.886227"/>
    </defs>
    <g clip-path="url(#p2027dbe4ad)">
     <use xlink:href="#m9b8da5809a" x="0" y="216" style="fill: #ffffff; fill-opacity: 0.6; stroke: #333333; stroke-width: 0.886227"/>
    </g>
   </g>
   <g id="LineCollection_4">
    <path d="M 100.315441 53.144761 
L 139.979461 53.144761 
" clip-path="url(#p2027dbe4ad)" style="fill: none; stroke: #333333; stroke-width: 1.772454"/>
   </g>
   <g id="text_5">
    <g clip-path="url(#p2027dbe4ad)">
     <text style="font: 8px 'Helvetica', 'DejaVu Sans', 'Avant Garde', 'Computer Modern Sans serif', 'Arial', sans-serif; text-anchor: middle" x="120.147451" y="101.594498" transform="rotate(-0 120.147451 101.594498)">n = 9</text>
    </g>
   </g>
   <g id="text_6">
    <g clip-path="url(#p2027dbe4ad)">
     <text style="font: 8px 'Helvetica', 'DejaVu Sans', 'Avant Garde', 'Computer Modern Sans serif', 'Arial', sans-serif; text-anchor: middle" x="67.262091" y="101.594498" transform="rotate(-0 67.262091 101.594498)">n = 12</text>
    </g>
   </g>
  </g>
  <g id="axes_2">
   <g id="patch_3">
    <path d="M 154.758667 107.138271 
L 271.106458 107.138271 
L 271.106458 17.006292 
L 154.758667 17.006292 
z
" style="fill: #ffffff"/>
   </g>
   <g id="matplotlib.axis_3">
    <g id="xtick_3">
     <g id="line2d_11">
      <path d="M 186.489883 107.138271 
L 186.489883 17.006292 
" clip-path="url(#p1a88087739)" style="fill: none; stroke-dasharray: 1.85,0.8; stroke-dashoffset: 0; stroke: #000000; stroke-opacity: 0.15; stroke-width: 0.5"/>
     </g>
    </g>
    <g id="xtick_4">
     <g id="line2d_12">
      <path d="M 239.375242 107.138271 
L 239.375242 17.006292 
" clip-path="url(#p1a88087739)" style="fill: none; stroke-dasharray: 1.85,0.8; stroke-dashoffset: 0; stroke: #000000; stroke-opacity: 0.15; stroke-width: 0.5"/>
     </g>
    </g>
   </g>
   <g id="matplotlib.axis_4">
    <g id="ytick_9">
     <g id="line2d_13">
      <path d="M 154.758667 99.468923 
L 271.106458 99.468923 
" clip-path="url(#p1a88087739)" style="fill: none; stroke-dasharray: 1.85,0.8; stroke-dashoffset: 0; stroke: #000000; stroke-opacity: 0.15; stroke-width: 0.5"/>
     </g>
    </g>
    <g id="ytick_10">
     <g id="line2d_14">
      <path d="M 154.758667 76.981466 
L 271.106458 76.981466 
" clip-path="url(#p1a88087739)" style="fill: none; stroke-dasharray: 1.85,0.8; stroke-dashoffset: 0; stroke: #000000; stroke-opacity: 0.15; stroke-width: 0.5"/>
     </g>
    </g>
    <g id="ytick_11">
     <g id="line2d_15">
      <path d="M 154.758667 54.494008 
L 271.106458 54.494008 
" clip-path="url(#p1a88087739)" style="fill: none; stroke-dasharray: 1.85,0.8; stroke-dashoffset: 0; stroke: #000000; stroke-opacity: 0.15; stroke-width: 0.5"/>
     </g>
    </g>
    <g id="ytick_12">
     <g id="line2d_16">
      <path d="M 154.758667 32.00655 
L 271.106458 32.00655 
" clip-path="url(#p1a88087739)" style="fill: none; stroke-dasharray: 1.85,0.8; stroke-dashoffset: 0; stroke: #000000; stroke-opacity: 0.15; stroke-width: 0.5"/>
     </g>
    </g>
    <g id="ytick_13"/>
    <g id="ytick_14"/>
    <g id="ytick_15"/>
    <g id="ytick_16"/>
   </g>
   <g id="PathCollection_3">
    <path d="M 186.489883 73.35693 
C 186.959943 73.35693 187.410814 73.170173 187.743197 72.83779 
C 188.07558 72.505407 188.262336 72.054536 188.262336 71.584476 
C 188.262336 71.114416 188.07558 70.663545 187.743197 70.331162 
C 187.410814 69.998779 186.959943 69.812022 186.489883 69.812022 
C 186.019822 69.812022 185.568951 69.998779 185.236568 70.331162 
C 184.904186 70.663545 184.717429 71.114416 184.717429 71.584476 
C 184.717429 72.054536 184.904186 72.505407 185.236568 72.83779 
C 185.568951 73.170173 186.019822 73.35693 186.489883 73.35693 
z
" clip-path="url(#p1a88087739)" style="fill: #d3894c; fill-opacity: 0.6"/>
    <path d="M 186.489883 81.002665 
C 186.959943 81.002665 187.410814 80.815908 187.743197 80.483526 
C 188.07558 80.151143 188.262336 79.700272 188.262336 79.230211 
C 188.262336 78.760151 188.07558 78.30928 187.743197 77.976897 
C 187.410814 77.644515 186.959943 77.457758 186.489883 77.457758 
C 186.019822 77.457758 185.568951 77.644515 185.236568 77.976897 
C 184.904186 78.30928 184.717429 78.760151 184.717429 79.230211 
C 184.717429 79.700272 184.904186 80.151143 185.236568 80.483526 
C 185.568951 80.815908 186.019822 81.002665 186.489883 81.002665 
z
" clip-path="url(#p1a88087739)" style="fill: #435b97; fill-opacity: 0.6"/>
    <path d="M 186.489883 58.515208 
C 186.959943 58.515208 187.410814 58.328451 187.743197 57.996068 
C 188.07558 57.663685 188.262336 57.212814 188.262336 56.742754 
C 188.262336 56.272694 188.07558 55.821822 187.743197 55.48944 
C 187.410814 55.157057 186.959943 54.9703 186.489883 54.9703 
C 186.019822 54.9703 185.568951 55.157057 185.236568 55.48944 
C 184.904186 55.821822 184.717429 56.272694 184.717429 56.742754 
C 184.717429 57.212814 184.904186 57.663685 185.236568 57.996068 
C 185.568951 58.328451 186.019822 58.515208 186.489883 58.515208 
z
" clip-path="url(#p1a88087739)" style="fill: #d3894c; fill-opacity: 0.6"/>
    <path d="M 186.489883 91.796645 
C 186.959943 91.796645 187.410814 91.609888 187.743197 91.277505 
C 188.07558 90.945123 188.262336 90.494251 188.262336 90.024191 
C 188.262336 89.554131 188.07558 89.10326 187.743197 88.770877 
C 187.410814 88.438494 186.959943 88.251737 186.489883 88.251737 
C 186.019822 88.251737 185.568951 88.438494 185.236568 88.770877 
C 184.904186 89.10326 184.717429 89.554131 184.717429 90.024191 
C 184.717429 90.494251 184.904186 90.945123 185.236568 91.277505 
C 185.568951 91.609888 186.019822 91.796645 186.489883 91.796645 
z
" clip-path="url(#p1a88087739)" style="fill: #435b97; fill-opacity: 0.6"/>
    <path d="M 186.489883 89.09815 
C 186.959943 89.09815 187.410814 88.911393 187.743197 88.57901 
C 188.07558 88.246628 188.262336 87.795756 188.262336 87.325696 
C 188.262336 86.855636 188.07558 86.404765 187.743197 86.072382 
C 187.410814 85.739999 186.959943 85.553242 186.489883 85.553242 
C 186.019822 85.553242 185.568951 85.739999 185.236568 86.072382 
C 184.904186 86.404765 184.717429 86.855636 184.717429 87.325696 
C 184.717429 87.795756 184.904186 88.246628 185.236568 88.57901 
C 185.568951 88.911393 186.019822 89.09815 186.489883 89.09815 
z
" clip-path="url(#p1a88087739)" style="fill: #d3894c; fill-opacity: 0.6"/>
    <path d="M 186.489883 95.844387 
C 186.959943 95.844387 187.410814 95.65763 187.743197 95.325248 
C 188.07558 94.992865 188.262336 94.541994 188.262336 94.071934 
C 188.262336 93.601873 188.07558 93.151002 187.743197 92.818619 
C 187.410814 92.486237 186.959943 92.29948 186.489883 92.29948 
C 186.019822 92.29948 185.568951 92.486237 185.236568 92.818619 
C 184.904186 93.151002 184.717429 93.601873 184.717429 94.071934 
C 184.717429 94.541994 184.904186 94.992865 185.236568 95.325248 
C 185.568951 95.65763 186.019822 95.844387 186.489883 95.844387 
z
" clip-path="url(#p1a88087739)" style="fill: #d3894c; fill-opacity: 0.6"/>
    <path d="M 186.489883 92.696143 
C 186.959943 92.696143 187.410814 92.509386 187.743197 92.177004 
C 188.07558 91.844621 188.262336 91.39375 188.262336 90.923689 
C 188.262336 90.453629 188.07558 90.002758 187.743197 89.670375 
C 187.410814 89.337993 186.959943 89.151236 186.489883 89.151236 
C 186.019822 89.151236 185.568951 89.337993 185.236568 89.670375 
C 184.904186 90.002758 184.717429 90.453629 184.717429 90.923689 
C 184.717429 91.39375 184.904186 91.844621 185.236568 92.177004 
C 185.568951 92.509386 186.019822 92.696143 186.489883 92.696143 
z
" clip-path="url(#p1a88087739)" style="fill: #435b97; fill-opacity: 0.6"/>
    <path d="M 186.489883 95.844387 
C 186.959943 95.844387 187.410814 95.65763 187.743197 95.325248 
C 188.07558 94.992865 188.262336 94.541994 188.262336 94.071934 
C 188.262336 93.601873 188.07558 93.151002 187.743197 92.818619 
C 187.410814 92.486237 186.959943 92.29948 186.489883 92.29948 
C 186.019822 92.29948 185.568951 92.486237 185.236568 92.818619 
C 184.904186 93.151002 184.717429 93.601873 184.717429 94.071934 
C 184.717429 94.541994 184.904186 94.992865 185.236568 95.325248 
C 185.568951 95.65763 186.019822 95.844387 186.489883 95.844387 
z
" clip-path="url(#p1a88087739)" style="fill: #d3894c; fill-opacity: 0.6"/>
    <path d="M 186.489883 85.949906 
C 186.959943 85.949906 187.410814 85.763149 187.743197 85.430766 
C 188.07558 85.098384 188.262336 84.647512 188.262336 84.177452 
C 188.262336 83.707392 188.07558 83.256521 187.743197 82.924138 
C 187.410814 82.591755 186.959943 82.404998 186.489883 82.404998 
C 186.019822 82.404998 185.568951 82.591755 185.236568 82.924138 
C 184.904186 83.256521 184.717429 83.707392 184.717429 84.177452 
C 184.717429 84.647512 184.904186 85.098384 185.236568 85.430766 
C 185.568951 85.763149 186.019822 85.949906 186.489883 85.949906 
z
" clip-path="url(#p1a88087739)" style="fill: #435b97; fill-opacity: 0.6"/>
    <path d="M 186.489883 66.160943 
C 186.959943 66.160943 187.410814 65.974186 187.743197 65.641804 
C 188.07558 65.309421 188.262336 64.85855 188.262336 64.388489 
C 188.262336 63.918429 188.07558 63.467558 187.743197 63.135175 
C 187.410814 62.802792 186.959943 62.616036 186.489883 62.616036 
C 186.019822 62.616036 185.568951 62.802792 185.236568 63.135175 
C 184.904186 63.467558 184.717429 63.918429 184.717429 64.388489 
C 184.717429 64.85855 184.904186 65.309421 185.236568 65.641804 
C 185.568951 65.974186 186.019822 66.160943 186.489883 66.160943 
z
" clip-path="url(#p1a88087739)" style="fill: #435b97; fill-opacity: 0.6"/>
    <path d="M 186.489883 72.457431 
C 186.959943 72.457431 187.410814 72.270674 187.743197 71.938292 
C 188.07558 71.605909 188.262336 71.155038 188.262336 70.684978 
C 188.262336 70.214917 188.07558 69.764046 187.743197 69.431663 
C 187.410814 69.099281 186.959943 68.912524 186.489883 68.912524 
C 186.019822 68.912524 185.568951 69.099281 185.236568 69.431663 
C 184.904186 69.764046 184.717429 70.214917 184.717429 70.684978 
C 184.717429 71.155038 184.904186 71.605909 185.236568 71.938292 
C 185.568951 72.270674 186.019822 72.457431 186.489883 72.457431 
z
" clip-path="url(#p1a88087739)" style="fill: #435b97; fill-opacity: 0.6"/>
    <path d="M 239.375242 81.452414 
C 239.845303 81.452414 240.296174 81.265658 240.628557 80.933275 
C 240.960939 80.600892 241.147696 80.150021 241.147696 79.679961 
C 241.147696 79.2099 240.960939 78.759029 240.628557 78.426646 
C 240.296174 78.094264 239.845303 77.907507 239.375242 77.907507 
C 238.905182 77.907507 238.454311 78.094264 238.121928 78.426646 
C 237.789545 78.759029 237.602789 79.2099 237.602789 79.679961 
C 237.602789 80.150021 237.789545 80.600892 238.121928 80.933275 
C 238.454311 81.265658 238.905182 81.452414 239.375242 81.452414 
z
" clip-path="url(#p1a88087739)" style="fill: #d3894c; fill-opacity: 0.6"/>
    <path d="M 239.375242 97.193635 
C 239.845303 97.193635 240.296174 97.006878 240.628557 96.674495 
C 240.960939 96.342112 241.147696 95.891241 241.147696 95.421181 
C 241.147696 94.951121 240.960939 94.50025 240.628557 94.167867 
C 240.296174 93.835484 239.845303 93.648727 239.375242 93.648727 
C 238.905182 93.648727 238.454311 93.835484 238.121928 94.167867 
C 237.789545 94.50025 237.602789 94.951121 237.602789 95.421181 
C 237.602789 95.891241 237.789545 96.342112 238.121928 96.674495 
C 238.454311 97.006878 238.905182 97.193635 239.375242 97.193635 
z
" clip-path="url(#p1a88087739)" style="fill: #d3894c; fill-opacity: 0.6"/>
    <path d="M 239.375242 95.394638 
C 239.845303 95.394638 240.296174 95.207881 240.628557 94.875499 
C 240.960939 94.543116 241.147696 94.092245 241.147696 93.622184 
C 241.147696 93.152124 240.960939 92.701253 240.628557 92.36887 
C 240.296174 92.036487 239.845303 91.849731 239.375242 91.849731 
C 238.905182 91.849731 238.454311 92.036487 238.121928 92.36887 
C 237.789545 92.701253 237.602789 93.152124 237.602789 93.622184 
C 237.602789 94.092245 237.789545 94.543116 238.121928 94.875499 
C 238.454311 95.207881 238.905182 95.394638 239.375242 95.394638 
z
" clip-path="url(#p1a88087739)" style="fill: #435b97; fill-opacity: 0.6"/>
    <path d="M 239.375242 95.844387 
C 239.845303 95.844387 240.296174 95.65763 240.628557 95.325248 
C 240.960939 94.992865 241.147696 94.541994 241.147696 94.071934 
C 241.147696 93.601873 240.960939 93.151002 240.628557 92.818619 
C 240.296174 92.486237 239.845303 92.29948 239.375242 92.29948 
C 238.905182 92.29948 238.454311 92.486237 238.121928 92.818619 
C 237.789545 93.151002 237.602789 93.601873 237.602789 94.071934 
C 237.602789 94.541994 237.789545 94.992865 238.121928 95.325248 
C 238.454311 95.65763 238.905182 95.844387 239.375242 95.844387 
z
" clip-path="url(#p1a88087739)" style="fill: #d3894c; fill-opacity: 0.6"/>
    <path d="M 239.375242 94.49514 
C 239.845303 94.49514 240.296174 94.308383 240.628557 93.976 
C 240.960939 93.643617 241.147696 93.192746 241.147696 92.722686 
C 241.147696 92.252626 240.960939 91.801755 240.628557 91.469372 
C 240.296174 91.136989 239.845303 90.950232 239.375242 90.950232 
C 238.905182 90.950232 238.454311 91.136989 238.121928 91.469372 
C 237.789545 91.801755 237.602789 92.252626 237.602789 92.722686 
C 237.602789 93.192746 237.789545 93.643617 238.121928 93.976 
C 238.454311 94.308383 238.905182 94.49514 239.375242 94.49514 
z
" clip-path="url(#p1a88087739)" style="fill: #435b97; fill-opacity: 0.6"/>
    <path d="M 239.375242 89.09815 
C 239.845303 89.09815 240.296174 88.911393 240.628557 88.57901 
C 240.960939 88.246628 241.147696 87.795756 241.147696 87.325696 
C 241.147696 86.855636 240.960939 86.404765 240.628557 86.072382 
C 240.296174 85.739999 239.845303 85.553242 239.375242 85.553242 
C 238.905182 85.553242 238.454311 85.739999 238.121928 86.072382 
C 237.789545 86.404765 237.602789 86.855636 237.602789 87.325696 
C 237.602789 87.795756 237.789545 88.246628 238.121928 88.57901 
C 238.454311 88.911393 238.905182 89.09815 239.375242 89.09815 
z
" clip-path="url(#p1a88087739)" style="fill: #d3894c; fill-opacity: 0.6"/>
    <path d="M 239.375242 89.997648 
C 239.845303 89.997648 240.296174 89.810891 240.628557 89.478509 
C 240.960939 89.146126 241.147696 88.695255 241.147696 88.225195 
C 241.147696 87.755134 240.960939 87.304263 240.628557 86.97188 
C 240.296174 86.639498 239.845303 86.452741 239.375242 86.452741 
C 238.905182 86.452741 238.454311 86.639498 238.121928 86.97188 
C 237.789545 87.304263 237.602789 87.755134 237.602789 88.225195 
C 237.602789 88.695255 237.789545 89.146126 238.121928 89.478509 
C 238.454311 89.810891 238.905182 89.997648 239.375242 89.997648 
z
" clip-path="url(#p1a88087739)" style="fill: #435b97; fill-opacity: 0.6"/>
    <path d="M 239.375242 96.294137 
C 239.845303 96.294137 240.296174 96.10738 240.628557 95.774997 
C 240.960939 95.442614 241.147696 94.991743 241.147696 94.521683 
C 241.147696 94.051622 240.960939 93.600751 240.628557 93.268369 
C 240.296174 92.935986 239.845303 92.749229 239.375242 92.749229 
C 238.905182 92.749229 238.454311 92.935986 238.121928 93.268369 
C 237.789545 93.600751 237.602789 94.051622 237.602789 94.521683 
C 237.602789 94.991743 237.789545 95.442614 238.121928 95.774997 
C 238.454311 96.10738 238.905182 96.294137 239.375242 96.294137 
z
" clip-path="url(#p1a88087739)" style="fill: #d3894c; fill-opacity: 0.6"/>
    <path d="M 239.375242 95.844387 
C 239.845303 95.844387 240.296174 95.65763 240.628557 95.325248 
C 240.960939 94.992865 241.147696 94.541994 241.147696 94.071934 
C 241.147696 93.601873 240.960939 93.151002 240.628557 92.818619 
C 240.296174 92.486237 239.845303 92.29948 239.375242 92.29948 
C 238.905182 92.29948 238.454311 92.486237 238.121928 92.818619 
C 237.789545 93.151002 237.602789 93.601873 237.602789 94.071934 
C 237.602789 94.541994 237.789545 94.992865 238.121928 95.325248 
C 238.454311 95.65763 238.905182 95.844387 239.375242 95.844387 
z
" clip-path="url(#p1a88087739)" style="fill: #435b97; fill-opacity: 0.6"/>
   </g>
   <g id="LineCollection_5">
    <path d="M 186.489883 71.134727 
L 186.489883 56.742754 
" clip-path="url(#p1a88087739)" style="fill: none; stroke: #333333; stroke-width: 0.886227"/>
    <path d="M 186.489883 90.47394 
L 186.489883 94.071934 
" clip-path="url(#p1a88087739)" style="fill: none; stroke: #333333; stroke-width: 0.886227"/>
   </g>
   <g id="PolyCollection_3">
    <defs>
     <path id="ma101a61a8e" d="M 166.657873 -144.865273 
L 166.657873 -144.865273 
L 206.321893 -144.865273 
L 206.321893 -125.52606 
L 166.657873 -125.52606 
z
" style="stroke: #333333; stroke-width: 0.886227"/>
    </defs>
    <g clip-path="url(#p1a88087739)">
     <use xlink:href="#ma101a61a8e" x="0" y="216" style="fill: #ffffff; fill-opacity: 0.6; stroke: #333333; stroke-width: 0.886227"/>
    </g>
   </g>
   <g id="LineCollection_6">
    <path d="M 166.657873 84.177452 
L 206.321893 84.177452 
" clip-path="url(#p1a88087739)" style="fill: none; stroke: #333333; stroke-width: 1.772454"/>
   </g>
   <g id="LineCollection_7">
    <path d="M 239.375242 88.225195 
L 239.375242 79.679961 
" clip-path="url(#p1a88087739)" style="fill: none; stroke: #333333; stroke-width: 0.886227"/>
    <path d="M 239.375242 94.071934 
L 239.375242 95.421181 
" clip-path="url(#p1a88087739)" style="fill: none; stroke: #333333; stroke-width: 0.886227"/>
   </g>
   <g id="PolyCollection_4">
    <defs>
     <path id="m13f673c464" d="M 219.543232 -127.774805 
L 219.543232 -127.774805 
L 259.207252 -127.774805 
L 259.207252 -121.928066 
L 219.543232 -121.928066 
z
" style="stroke: #333333; stroke-width: 0.886227"/>
    </defs>
    <g clip-path="url(#p1a88087739)">
     <use xlink:href="#m13f673c464" x="0" y="216" style="fill: #ffffff; fill-opacity: 0.6; stroke: #333333; stroke-width: 0.886227"/>
    </g>
   </g>
   <g id="LineCollection_8">
    <path d="M 219.543232 93.622184 
L 259.207252 93.622184 
" clip-path="url(#p1a88087739)" style="fill: none; stroke: #333333; stroke-width: 1.772454"/>
   </g>
   <g id="text_7">
    <g clip-path="url(#p1a88087739)">
     <text style="font: 8px 'Helvetica', 'DejaVu Sans', 'Avant Garde', 'Computer Modern Sans serif', 'Arial', sans-serif; text-anchor: middle" x="239.375242" y="101.594498" transform="rotate(-0 239.375242 101.594498)">n = 9</text>
    </g>
   </g>
   <g id="text_8">
    <g clip-path="url(#p1a88087739)">
     <text style="font: 8px 'Helvetica', 'DejaVu Sans', 'Avant Garde', 'Computer Modern Sans serif', 'Arial', sans-serif; text-anchor: middle" x="186.489883" y="101.594498" transform="rotate(-0 186.489883 101.594498)">n = 11</text>
    </g>
   </g>
  </g>
  <g id="axes_3">
   <g id="patch_4">
    <path d="M 35.530875 200.15025 
L 151.878667 200.15025 
L 151.878667 110.018271 
L 35.530875 110.018271 
z
" style="fill: #ffffff"/>
   </g>
   <g id="matplotlib.axis_5">
    <g id="xtick_5">
     <g id="line2d_17">
      <path d="M 67.262091 200.15025 
L 67.262091 110.018271 
" clip-path="url(#pc81ec66006)" style="fill: none; stroke-dasharray: 1.85,0.8; stroke-dashoffset: 0; stroke: #000000; stroke-opacity: 0.15; stroke-width: 0.5"/>
     </g>
     <g id="line2d_18">
      <path d="M 67.262091 200.15025 
" style="fill: none; stroke: #333333; stroke-width: 1.5; stroke-linecap: square"/>
      <defs>
       <path id="md59d28c2d5" d="M 0 0 
L 0 2.75 
" style="stroke: #333333"/>
      </defs>
      <g>
       <use xlink:href="#md59d28c2d5" x="67.262091" y="200.15025" style="fill: #333333; stroke: #333333"/>
      </g>
     </g>
     <g id="text_9">
      <text style="fill: #4d4d4d; font: 8.8px 'Helvetica', 'DejaVu Sans', 'Avant Garde', 'Computer Modern Sans serif', 'Arial', sans-serif; text-anchor: middle" x="67.262091" y="211.2335" transform="rotate(-0 67.262091 211.2335)">February</text>
     </g>
    </g>
    <g id="xtick_6">
     <g id="line2d_19">
      <path d="M 120.147451 200.15025 
L 120.147451 110.018271 
" clip-path="url(#pc81ec66006)" style="fill: none; stroke-dasharray: 1.85,0.8; stroke-dashoffset: 0; stroke: #000000; stroke-opacity: 0.15; stroke-width: 0.5"/>
     </g>
     <g id="line2d_20">
      <path d="M 120.147451 200.15025 
" style="fill: none; stroke: #333333; stroke-width: 1.5; stroke-linecap: square"/>
      <g>
       <use xlink:href="#md59d28c2d5" x="120.147451" y="200.15025" style="fill: #333333; stroke: #333333"/>
      </g>
     </g>
     <g id="text_10">
      <text style="fill: #4d4d4d; font: 8.8px 'Helvetica', 'DejaVu Sans', 'Avant Garde', 'Computer Modern Sans serif', 'Arial', sans-serif; text-anchor: middle" x="120.147451" y="211.212875" transform="rotate(-0 120.147451 211.212875)">April</text>
     </g>
    </g>
   </g>
   <g id="matplotlib.axis_6">
    <g id="ytick_17">
     <g id="line2d_21">
      <path d="M 35.530875 191.127029 
L 151.878667 191.127029 
" clip-path="url(#pc81ec66006)" style="fill: none; stroke-dasharray: 1.85,0.8; stroke-dashoffset: 0; stroke: #000000; stroke-opacity: 0.15; stroke-width: 0.5"/>
     </g>
     <g id="line2d_22">
      <path d="M 35.530875 191.127029 
" style="fill: none; stroke: #333333; stroke-width: 1.5; stroke-linecap: square"/>
      <g>
       <use xlink:href="#m02c22b8052" x="35.530875" y="191.127029" style="fill: #333333; stroke: #333333"/>
      </g>
     </g>
     <g id="text_11">
      <text style="fill: #4d4d4d; font: 8.8px 'Helvetica', 'DejaVu Sans', 'Avant Garde', 'Computer Modern Sans serif', 'Arial', sans-serif; text-anchor: end" x="30.780875" y="194.283341" transform="rotate(-0 30.780875 194.283341)">0</text>
     </g>
    </g>
    <g id="ytick_18">
     <g id="line2d_23">
      <path d="M 35.530875 173.542472 
L 151.878667 173.542472 
" clip-path="url(#pc81ec66006)" style="fill: none; stroke-dasharray: 1.85,0.8; stroke-dashoffset: 0; stroke: #000000; stroke-opacity: 0.15; stroke-width: 0.5"/>
     </g>
     <g id="line2d_24">
      <path d="M 35.530875 173.542472 
" style="fill: none; stroke: #333333; stroke-width: 1.5; stroke-linecap: square"/>
      <g>
       <use xlink:href="#m02c22b8052" x="35.530875" y="173.542472" style="fill: #333333; stroke: #333333"/>
      </g>
     </g>
     <g id="text_12">
      <text style="fill: #4d4d4d; font: 8.8px 'Helvetica', 'DejaVu Sans', 'Avant Garde', 'Computer Modern Sans serif', 'Arial', sans-serif; text-anchor: end" x="30.780875" y="176.698784" transform="rotate(-0 30.780875 176.698784)">1</text>
     </g>
    </g>
    <g id="ytick_19">
     <g id="line2d_25">
      <path d="M 35.530875 155.957915 
L 151.878667 155.957915 
" clip-path="url(#pc81ec66006)" style="fill: none; stroke-dasharray: 1.85,0.8; stroke-dashoffset: 0; stroke: #000000; stroke-opacity: 0.15; stroke-width: 0.5"/>
     </g>
     <g id="line2d_26">
      <path d="M 35.530875 155.957915 
" style="fill: none; stroke: #333333; stroke-width: 1.5; stroke-linecap: square"/>
      <g>
       <use xlink:href="#m02c22b8052" x="35.530875" y="155.957915" style="fill: #333333; stroke: #333333"/>
      </g>
     </g>
     <g id="text_13">
      <text style="fill: #4d4d4d; font: 8.8px 'Helvetica', 'DejaVu Sans', 'Avant Garde', 'Computer Modern Sans serif', 'Arial', sans-serif; text-anchor: end" x="30.780875" y="159.114228" transform="rotate(-0 30.780875 159.114228)">2</text>
     </g>
    </g>
    <g id="ytick_20">
     <g id="line2d_27">
      <path d="M 35.530875 138.373358 
L 151.878667 138.373358 
" clip-path="url(#pc81ec66006)" style="fill: none; stroke-dasharray: 1.85,0.8; stroke-dashoffset: 0; stroke: #000000; stroke-opacity: 0.15; stroke-width: 0.5"/>
     </g>
     <g id="line2d_28">
      <path d="M 35.530875 138.373358 
" style="fill: none; stroke: #333333; stroke-width: 1.5; stroke-linecap: square"/>
      <g>
       <use xlink:href="#m02c22b8052" x="35.530875" y="138.373358" style="fill: #333333; stroke: #333333"/>
      </g>
     </g>
     <g id="text_14">
      <text style="fill: #4d4d4d; font: 8.8px 'Helvetica', 'DejaVu Sans', 'Avant Garde', 'Computer Modern Sans serif', 'Arial', sans-serif; text-anchor: end" x="30.780875" y="141.529671" transform="rotate(-0 30.780875 141.529671)">3</text>
     </g>
    </g>
    <g id="ytick_21">
     <g id="line2d_29">
      <path d="M 35.530875 120.788801 
L 151.878667 120.788801 
" clip-path="url(#pc81ec66006)" style="fill: none; stroke-dasharray: 1.85,0.8; stroke-dashoffset: 0; stroke: #000000; stroke-opacity: 0.15; stroke-width: 0.5"/>
     </g>
     <g id="line2d_30">
      <path d="M 35.530875 120.788801 
" style="fill: none; stroke: #333333; stroke-width: 1.5; stroke-linecap: square"/>
      <g>
       <use xlink:href="#m02c22b8052" x="35.530875" y="120.788801" style="fill: #333333; stroke: #333333"/>
      </g>
     </g>
     <g id="text_15">
      <text style="fill: #4d4d4d; font: 8.8px 'Helvetica', 'DejaVu Sans', 'Avant Garde', 'Computer Modern Sans serif', 'Arial', sans-serif; text-anchor: end" x="30.780875" y="123.945114" transform="rotate(-0 30.780875 123.945114)">4</text>
     </g>
    </g>
    <g id="ytick_22"/>
    <g id="ytick_23"/>
    <g id="ytick_24"/>
    <g id="ytick_25"/>
    <g id="ytick_26"/>
    <g id="ytick_27"/>
   </g>
   <g id="PathCollection_4">
    <path d="M 67.262091 184.810226 
C 67.732151 184.810226 68.183022 184.623469 68.515405 184.291086 
C 68.847788 183.958703 69.034545 183.507832 69.034545 183.037772 
C 69.034545 182.567712 68.847788 182.116841 68.515405 181.784458 
C 68.183022 181.452075 67.732151 181.265318 67.262091 181.265318 
C 66.792031 181.265318 66.34116 181.452075 66.008777 181.784458 
C 65.676394 182.116841 65.489637 182.567712 65.489637 183.037772 
C 65.489637 183.507832 65.676394 183.958703 66.008777 184.291086 
C 66.34116 184.623469 66.792031 184.810226 67.262091 184.810226 
z
" clip-path="url(#pc81ec66006)" style="fill: #d3894c; fill-opacity: 0.6"/>
    <path d="M 67.262091 187.135797 
C 67.732151 187.135797 68.183022 186.94904 68.515405 186.616658 
C 68.847788 186.284275 69.034545 185.833404 69.034545 185.363343 
C 69.034545 184.893283 68.847788 184.442412 68.515405 184.110029 
C 68.183022 183.777646 67.732151 183.59089 67.262091 183.59089 
C 66.792031 183.59089 66.34116 183.777646 66.008777 184.110029 
C 65.676394 184.442412 65.489637 184.893283 65.489637 185.363343 
C 65.489637 185.833404 65.676394 186.284275 66.008777 186.616658 
C 66.34116 186.94904 66.792031 187.135797 67.262091 187.135797 
z
" clip-path="url(#pc81ec66006)" style="fill: #435b97; fill-opacity: 0.6"/>
    <path d="M 67.262091 186.27832 
C 67.732151 186.27832 68.183022 186.091563 68.515405 185.75918 
C 68.847788 185.426797 69.034545 184.975926 69.034545 184.505866 
C 69.034545 184.035806 68.847788 183.584935 68.515405 183.252552 
C 68.183022 182.920169 67.732151 182.733412 67.262091 182.733412 
C 66.792031 182.733412 66.34116 182.920169 66.008777 183.252552 
C 65.676394 183.584935 65.489637 184.035806 65.489637 184.505866 
C 65.489637 184.975926 65.676394 185.426797 66.008777 185.75918 
C 66.34116 186.091563 66.792031 186.27832 67.262091 186.27832 
z
" clip-path="url(#pc81ec66006)" style="fill: #d3894c; fill-opacity: 0.6"/>
    <path d="M 67.262091 188.25394 
C 67.732151 188.25394 68.183022 188.067183 68.515405 187.7348 
C 68.847788 187.402417 69.034545 186.951546 69.034545 186.481486 
C 69.034545 186.011426 68.847788 185.560555 68.515405 185.228172 
C 68.183022 184.895789 67.732151 184.709032 67.262091 184.709032 
C 66.792031 184.709032 66.34116 184.895789 66.008777 185.228172 
C 65.676394 185.560555 65.489637 186.011426 65.489637 186.481486 
C 65.489637 186.951546 65.676394 187.402417 66.008777 187.7348 
C 66.34116 188.067183 66.792031 188.25394 67.262091 188.25394 
z
" clip-path="url(#pc81ec66006)" style="fill: #435b97; fill-opacity: 0.6"/>
    <path d="M 67.262091 187.25586 
C 67.732151 187.25586 68.183022 187.069103 68.515405 186.736721 
C 68.847788 186.404338 69.034545 185.953467 69.034545 185.483406 
C 69.034545 185.013346 68.847788 184.562475 68.515405 184.230092 
C 68.183022 183.89771 67.732151 183.710953 67.262091 183.710953 
C 66.792031 183.710953 66.34116 183.89771 66.008777 184.230092 
C 65.676394 184.562475 65.489637 185.013346 65.489637 185.483406 
C 65.489637 185.953467 65.676394 186.404338 66.008777 186.736721 
C 66.34116 187.069103 66.792031 187.25586 67.262091 187.25586 
z
" clip-path="url(#pc81ec66006)" style="fill: #d3894c; fill-opacity: 0.6"/>
    <path d="M 67.262091 187.330016 
C 67.732151 187.330016 68.183022 187.14326 68.515405 186.810877 
C 68.847788 186.478494 69.034545 186.027623 69.034545 185.557563 
C 69.034545 185.087502 68.847788 184.636631 68.515405 184.304248 
C 68.183022 183.971866 67.732151 183.785109 67.262091 183.785109 
C 66.792031 183.785109 66.34116 183.971866 66.008777 184.304248 
C 65.676394 184.636631 65.489637 185.087502 65.489637 185.557563 
C 65.489637 186.027623 65.676394 186.478494 66.008777 186.810877 
C 66.34116 187.14326 66.792031 187.330016 67.262091 187.330016 
z
" clip-path="url(#pc81ec66006)" style="fill: #435b97; fill-opacity: 0.6"/>
    <path d="M 67.262091 185.713392 
C 67.732151 185.713392 68.183022 185.526635 68.515405 185.194252 
C 68.847788 184.86187 69.034545 184.410999 69.034545 183.940938 
C 69.034545 183.470878 68.847788 183.020007 68.515405 182.687624 
C 68.183022 182.355241 67.732151 182.168484 67.262091 182.168484 
C 66.792031 182.168484 66.34116 182.355241 66.008777 182.687624 
C 65.676394 183.020007 65.489637 183.470878 65.489637 183.940938 
C 65.489637 184.410999 65.676394 184.86187 66.008777 185.194252 
C 66.34116 185.526635 66.792031 185.713392 67.262091 185.713392 
z
" clip-path="url(#pc81ec66006)" style="fill: #d3894c; fill-opacity: 0.6"/>
    <path d="M 67.262091 188.936369 
C 67.732151 188.936369 68.183022 188.749612 68.515405 188.417229 
C 68.847788 188.084847 69.034545 187.633975 69.034545 187.163915 
C 69.034545 186.693855 68.847788 186.242984 68.515405 185.910601 
C 68.183022 185.578218 67.732151 185.391461 67.262091 185.391461 
C 66.792031 185.391461 66.34116 185.578218 66.008777 185.910601 
C 65.676394 186.242984 65.489637 186.693855 65.489637 187.163915 
C 65.489637 187.633975 65.676394 188.084847 66.008777 188.417229 
C 66.34116 188.749612 66.792031 188.936369 67.262091 188.936369 
z
" clip-path="url(#pc81ec66006)" style="fill: #435b97; fill-opacity: 0.6"/>
    <path d="M 67.262091 186.432321 
C 67.732151 186.432321 68.183022 186.245564 68.515405 185.913181 
C 68.847788 185.580799 69.034545 185.129928 69.034545 184.659867 
C 69.034545 184.189807 68.847788 183.738936 68.515405 183.406553 
C 68.183022 183.07417 67.732151 182.887413 67.262091 182.887413 
C 66.792031 182.887413 66.34116 183.07417 66.008777 183.406553 
C 65.676394 183.738936 65.489637 184.189807 65.489637 184.659867 
C 65.489637 185.129928 65.676394 185.580799 66.008777 185.913181 
C 66.34116 186.245564 66.792031 186.432321 67.262091 186.432321 
z
" clip-path="url(#pc81ec66006)" style="fill: #d3894c; fill-opacity: 0.6"/>
    <path d="M 67.262091 186.888875 
C 67.732151 186.888875 68.183022 186.702118 68.515405 186.369736 
C 68.847788 186.037353 69.034545 185.586482 69.034545 185.116421 
C 69.034545 184.646361 68.847788 184.19549 68.515405 183.863107 
C 68.183022 183.530725 67.732151 183.343968 67.262091 183.343968 
C 66.792031 183.343968 66.34116 183.530725 66.008777 183.863107 
C 65.676394 184.19549 65.489637 184.646361 65.489637 185.116421 
C 65.489637 185.586482 65.676394 186.037353 66.008777 186.369736 
C 66.34116 186.702118 66.792031 186.888875 67.262091 186.888875 
z
" clip-path="url(#pc81ec66006)" style="fill: #435b97; fill-opacity: 0.6"/>
    <path d="M 67.262091 186.120989 
C 67.732151 186.120989 68.183022 185.934232 68.515405 185.60185 
C 68.847788 185.269467 69.034545 184.818596 69.034545 184.348536 
C 69.034545 183.878475 68.847788 183.427604 68.515405 183.095221 
C 68.183022 182.762839 67.732151 182.576082 67.262091 182.576082 
C 66.792031 182.576082 66.34116 182.762839 66.008777 183.095221 
C 65.676394 183.427604 65.489637 183.878475 65.489637 184.348536 
C 65.489637 184.818596 65.676394 185.269467 66.008777 185.60185 
C 66.34116 185.934232 66.792031 186.120989 67.262091 186.120989 
z
" clip-path="url(#pc81ec66006)" style="fill: #435b97; fill-opacity: 0.6"/>
    <path d="M 67.262091 187.822439 
C 67.732151 187.822439 68.183022 187.635682 68.515405 187.3033 
C 68.847788 186.970917 69.034545 186.520046 69.034545 186.049985 
C 69.034545 185.579925 68.847788 185.129054 68.515405 184.796671 
C 68.183022 184.464288 67.732151 184.277532 67.262091 184.277532 
C 66.792031 184.277532 66.34116 184.464288 66.008777 184.796671 
C 65.676394 185.129054 65.489637 185.579925 65.489637 186.049985 
C 65.489637 186.520046 65.676394 186.970917 66.008777 187.3033 
C 66.34116 187.635682 66.792031 187.822439 67.262091 187.822439 
z
" clip-path="url(#pc81ec66006)" style="fill: #435b97; fill-opacity: 0.6"/>
    <path d="M 120.147451 165.953729 
C 120.617511 165.953729 121.068382 165.766972 121.400765 165.43459 
C 121.733148 165.102207 121.919905 164.651336 121.919905 164.181275 
C 121.919905 163.711215 121.733148 163.260344 121.400765 162.927961 
C 121.068382 162.595579 120.617511 162.408822 120.147451 162.408822 
C 119.677391 162.408822 119.226519 162.595579 118.894137 162.927961 
C 118.561754 163.260344 118.374997 163.711215 118.374997 164.181275 
C 118.374997 164.651336 118.561754 165.102207 118.894137 165.43459 
C 119.226519 165.766972 119.677391 165.953729 120.147451 165.953729 
z
" clip-path="url(#pc81ec66006)" style="fill: #d3894c; fill-opacity: 0.6"/>
    <path d="M 120.147451 174.767451 
C 120.617511 174.767451 121.068382 174.580694 121.400765 174.248311 
C 121.733148 173.915928 121.919905 173.465057 121.919905 172.994997 
C 121.919905 172.524937 121.733148 172.074066 121.400765 171.741683 
C 121.068382 171.4093 120.617511 171.222543 120.147451 171.222543 
C 119.677391 171.222543 119.226519 171.4093 118.894137 171.741683 
C 118.561754 172.074066 118.374997 172.524937 118.374997 172.994997 
C 118.374997 173.465057 118.561754 173.915928 118.894137 174.248311 
C 119.226519 174.580694 119.677391 174.767451 120.147451 174.767451 
z
" clip-path="url(#pc81ec66006)" style="fill: #d3894c; fill-opacity: 0.6"/>
    <path d="M 120.147451 168.449823 
C 120.617511 168.449823 121.068382 168.263066 121.400765 167.930683 
C 121.733148 167.5983 121.919905 167.147429 121.919905 166.677369 
C 121.919905 166.207309 121.733148 165.756438 121.400765 165.424055 
C 121.068382 165.091672 120.617511 164.904915 120.147451 164.904915 
C 119.677391 164.904915 119.226519 165.091672 118.894137 165.424055 
C 118.561754 165.756438 118.374997 166.207309 118.374997 166.677369 
C 118.374997 167.147429 118.561754 167.5983 118.894137 167.930683 
C 119.226519 168.263066 119.677391 168.449823 120.147451 168.449823 
z
" clip-path="url(#pc81ec66006)" style="fill: #435b97; fill-opacity: 0.6"/>
    <path d="M 120.147451 176.639146 
C 120.617511 176.639146 121.068382 176.452389 121.400765 176.120007 
C 121.733148 175.787624 121.919905 175.336753 121.919905 174.866692 
C 121.919905 174.396632 121.733148 173.945761 121.400765 173.613378 
C 121.068382 173.280996 120.617511 173.094239 120.147451 173.094239 
C 119.677391 173.094239 119.226519 173.280996 118.894137 173.613378 
C 118.561754 173.945761 118.374997 174.396632 118.374997 174.866692 
C 118.374997 175.336753 118.561754 175.787624 118.894137 176.120007 
C 119.226519 176.452389 119.677391 176.639146 120.147451 176.639146 
z
" clip-path="url(#pc81ec66006)" style="fill: #d3894c; fill-opacity: 0.6"/>
    <path d="M 120.147451 163.426598 
C 120.617511 163.426598 121.068382 163.239841 121.400765 162.907458 
C 121.733148 162.575075 121.919905 162.124204 121.919905 161.654144 
C 121.919905 161.184084 121.733148 160.733213 121.400765 160.40083 
C 121.068382 160.068447 120.617511 159.88169 120.147451 159.88169 
C 119.677391 159.88169 119.226519 160.068447 118.894137 160.40083 
C 118.561754 160.733213 118.374997 161.184084 118.374997 161.654144 
C 118.374997 162.124204 118.561754 162.575075 118.894137 162.907458 
C 119.226519 163.239841 119.677391 163.426598 120.147451 163.426598 
z
" clip-path="url(#pc81ec66006)" style="fill: #435b97; fill-opacity: 0.6"/>
    <path d="M 120.147451 166.873549 
C 120.617511 166.873549 121.068382 166.686792 121.400765 166.354409 
C 121.733148 166.022027 121.919905 165.571155 121.919905 165.101095 
C 121.919905 164.631035 121.733148 164.180164 121.400765 163.847781 
C 121.068382 163.515398 120.617511 163.328641 120.147451 163.328641 
C 119.677391 163.328641 119.226519 163.515398 118.894137 163.847781 
C 118.561754 164.180164 118.374997 164.631035 118.374997 165.101095 
C 118.374997 165.571155 118.561754 166.022027 118.894137 166.354409 
C 119.226519 166.686792 119.677391 166.873549 120.147451 166.873549 
z
" clip-path="url(#pc81ec66006)" style="fill: #d3894c; fill-opacity: 0.6"/>
    <path d="M 120.147451 158.692845 
C 120.617511 158.692845 121.068382 158.506088 121.400765 158.173705 
C 121.733148 157.841322 121.919905 157.390451 121.919905 156.920391 
C 121.919905 156.450331 121.733148 155.999459 121.400765 155.667077 
C 121.068382 155.334694 120.617511 155.147937 120.147451 155.147937 
C 119.677391 155.147937 119.226519 155.334694 118.894137 155.667077 
C 118.561754 155.999459 118.374997 156.450331 118.374997 156.920391 
C 118.374997 157.390451 118.561754 157.841322 118.894137 158.173705 
C 119.226519 158.506088 119.677391 158.692845 120.147451 158.692845 
z
" clip-path="url(#pc81ec66006)" style="fill: #435b97; fill-opacity: 0.6"/>
    <path d="M 120.147451 130.970007 
C 120.617511 130.970007 121.068382 130.78325 121.400765 130.450867 
C 121.733148 130.118485 121.919905 129.667613 121.919905 129.197553 
C 121.919905 128.727493 121.733148 128.276622 121.400765 127.944239 
C 121.068382 127.611856 120.617511 127.425099 120.147451 127.425099 
C 119.677391 127.425099 119.226519 127.611856 118.894137 127.944239 
C 118.561754 128.276622 118.374997 128.727493 118.374997 129.197553 
C 118.374997 129.667613 118.561754 130.118485 118.894137 130.450867 
C 119.226519 130.78325 119.677391 130.970007 120.147451 130.970007 
z
" clip-path="url(#pc81ec66006)" style="fill: #d3894c; fill-opacity: 0.6"/>
    <path d="M 120.147451 167.234955 
C 120.617511 167.234955 121.068382 167.048198 121.400765 166.715815 
C 121.733148 166.383432 121.919905 165.932561 121.919905 165.462501 
C 121.919905 164.992441 121.733148 164.54157 121.400765 164.209187 
C 121.068382 163.876804 120.617511 163.690047 120.147451 163.690047 
C 119.677391 163.690047 119.226519 163.876804 118.894137 164.209187 
C 118.561754 164.54157 118.374997 164.992441 118.374997 165.462501 
C 118.374997 165.932561 118.561754 166.383432 118.894137 166.715815 
C 119.226519 167.048198 119.677391 167.234955 120.147451 167.234955 
z
" clip-path="url(#pc81ec66006)" style="fill: #435b97; fill-opacity: 0.6"/>
   </g>
   <g id="LineCollection_9">
    <path d="M 67.262091 184.466533 
L 67.262091 183.037772 
" clip-path="url(#pc81ec66006)" style="fill: none; stroke: #333333; stroke-width: 0.886227"/>
    <path d="M 67.262091 185.680668 
L 67.262091 187.163915 
" clip-path="url(#pc81ec66006)" style="fill: none; stroke: #333333; stroke-width: 0.886227"/>
   </g>
   <g id="PolyCollection_5">
    <defs>
     <path id="ma6b375312c" d="M 47.430081 -31.533467 
L 47.430081 -31.533467 
L 87.094101 -31.533467 
L 87.094101 -30.319332 
L 47.430081 -30.319332 
z
" style="stroke: #333333; stroke-width: 0.886227"/>
    </defs>
    <g clip-path="url(#pc81ec66006)">
     <use xlink:href="#ma6b375312c" x="0" y="216" style="fill: #ffffff; fill-opacity: 0.6; stroke: #333333; stroke-width: 0.886227"/>
    </g>
   </g>
   <g id="LineCollection_10">
    <path d="M 47.430081 185.239882 
L 87.094101 185.239882 
" clip-path="url(#pc81ec66006)" style="fill: none; stroke: #333333; stroke-width: 1.772454"/>
   </g>
   <g id="PathCollection_5">
    <path d="M 120.147451 176.639146 
C 120.617511 176.639146 121.068382 176.452389 121.400765 176.120007 
C 121.733148 175.787624 121.919905 175.336753 121.919905 174.866692 
C 121.919905 174.396632 121.733148 173.945761 121.400765 173.613378 
C 121.068382 173.280996 120.617511 173.094239 120.147451 173.094239 
C 119.677391 173.094239 119.226519 173.280996 118.894137 173.613378 
C 118.561754 173.945761 118.374997 174.396632 118.374997 174.866692 
C 118.374997 175.336753 118.561754 175.787624 118.894137 176.120007 
C 119.226519 176.452389 119.677391 176.639146 120.147451 176.639146 
L 120.147451 176.639146 
z
" clip-path="url(#pc81ec66006)" style="fill: none"/>
    <path d="M 120.147451 130.970007 
C 120.617511 130.970007 121.068382 130.78325 121.400765 130.450867 
C 121.733148 130.118485 121.919905 129.667613 121.919905 129.197553 
C 121.919905 128.727493 121.733148 128.276622 121.400765 127.944239 
C 121.068382 127.611856 120.617511 127.425099 120.147451 127.425099 
C 119.677391 127.425099 119.226519 127.611856 118.894137 127.944239 
C 118.561754 128.276622 118.374997 128.727493 118.374997 129.197553 
C 118.374997 129.667613 118.561754 130.118485 118.894137 130.450867 
C 119.226519 130.78325 119.677391 130.970007 120.147451 130.970007 
L 120.147451 130.970007 
z
" clip-path="url(#pc81ec66006)" style="fill: none"/>
   </g>
   <g id="LineCollection_11">
    <path d="M 120.147451 161.654144 
L 120.147451 156.920391 
" clip-path="url(#pc81ec66006)" style="fill: none; stroke: #333333; stroke-width: 0.886227"/>
    <path d="M 120.147451 166.677369 
L 120.147451 172.994997 
" clip-path="url(#pc81ec66006)" style="fill: none; stroke: #333333; stroke-width: 0.886227"/>
   </g>
   <g id="PolyCollection_6">
    <defs>
     <path id="m0e7637dc5f" d="M 100.315441 -54.345856 
L 100.315441 -54.345856 
L 139.979461 -54.345856 
L 139.979461 -49.322631 
L 100.315441 -49.322631 
z
" style="stroke: #333333; stroke-width: 0.886227"/>
    </defs>
    <g clip-path="url(#pc81ec66006)">
     <use xlink:href="#m0e7637dc5f" x="0" y="216" style="fill: #ffffff; fill-opacity: 0.6; stroke: #333333; stroke-width: 0.886227"/>
    </g>
   </g>
   <g id="LineCollection_12">
    <path d="M 100.315441 165.101095 
L 139.979461 165.101095 
" clip-path="url(#pc81ec66006)" style="fill: none; stroke: #333333; stroke-width: 1.772454"/>
   </g>
   <g id="text_16">
    <g clip-path="url(#pc81ec66006)">
     <text style="font: 8px 'Helvetica', 'DejaVu Sans', 'Avant Garde', 'Computer Modern Sans serif', 'Arial', sans-serif; text-anchor: middle" x="120.147451" y="196.679565" transform="rotate(-0 120.147451 196.679565)">n = 9</text>
    </g>
   </g>
   <g id="text_17">
    <g clip-path="url(#pc81ec66006)">
     <text style="font: 8px 'Helvetica', 'DejaVu Sans', 'Avant Garde', 'Computer Modern Sans serif', 'Arial', sans-serif; text-anchor: middle" x="67.262091" y="196.679565" transform="rotate(-0 67.262091 196.679565)">n = 12</text>
    </g>
   </g>
  </g>
  <g id="axes_4">
   <g id="patch_5">
    <path d="M 154.758667 200.15025 
L 271.106458 200.15025 
L 271.106458 110.018271 
L 154.758667 110.018271 
z
" style="fill: #ffffff"/>
   </g>
   <g id="matplotlib.axis_7">
    <g id="xtick_7">
     <g id="line2d_31">
      <path d="M 186.489883 200.15025 
L 186.489883 110.018271 
" clip-path="url(#pae836bccac)" style="fill: none; stroke-dasharray: 1.85,0.8; stroke-dashoffset: 0; stroke: #000000; stroke-opacity: 0.15; stroke-width: 0.5"/>
     </g>
     <g id="line2d_32">
      <path d="M 186.489883 200.15025 
" style="fill: none; stroke: #333333; stroke-width: 1.5; stroke-linecap: square"/>
      <g>
       <use xlink:href="#md59d28c2d5" x="186.489883" y="200.15025" style="fill: #333333; stroke: #333333"/>
      </g>
     </g>
     <g id="text_18">
      <text style="fill: #4d4d4d; font: 8.8px 'Helvetica', 'DejaVu Sans', 'Avant Garde', 'Computer Modern Sans serif', 'Arial', sans-serif; text-anchor: middle" x="186.489883" y="211.2335" transform="rotate(-0 186.489883 211.2335)">February</text>
     </g>
    </g>
    <g id="xtick_8">
     <g id="line2d_33">
      <path d="M 239.375242 200.15025 
L 239.375242 110.018271 
" clip-path="url(#pae836bccac)" style="fill: none; stroke-dasharray: 1.85,0.8; stroke-dashoffset: 0; stroke: #000000; stroke-opacity: 0.15; stroke-width: 0.5"/>
     </g>
     <g id="line2d_34">
      <path d="M 239.375242 200.15025 
" style="fill: none; stroke: #333333; stroke-width: 1.5; stroke-linecap: square"/>
      <g>
       <use xlink:href="#md59d28c2d5" x="239.375242" y="200.15025" style="fill: #333333; stroke: #333333"/>
      </g>
     </g>
     <g id="text_19">
      <text style="fill: #4d4d4d; font: 8.8px 'Helvetica', 'DejaVu Sans', 'Avant Garde', 'Computer Modern Sans serif', 'Arial', sans-serif; text-anchor: middle" x="239.375242" y="211.212875" transform="rotate(-0 239.375242 211.212875)">April</text>
     </g>
    </g>
   </g>
   <g id="matplotlib.axis_8">
    <g id="ytick_28">
     <g id="line2d_35">
      <path d="M 154.758667 191.127029 
L 271.106458 191.127029 
" clip-path="url(#pae836bccac)" style="fill: none; stroke-dasharray: 1.85,0.8; stroke-dashoffset: 0; stroke: #000000; stroke-opacity: 0.15; stroke-width: 0.5"/>
     </g>
    </g>
    <g id="ytick_29">
     <g id="line2d_36">
      <path d="M 154.758667 173.542472 
L 271.106458 173.542472 
" clip-path="url(#pae836bccac)" style="fill: none; stroke-dasharray: 1.85,0.8; stroke-dashoffset: 0; stroke: #000000; stroke-opacity: 0.15; stroke-width: 0.5"/>
     </g>
    </g>
    <g id="ytick_30">
     <g id="line2d_37">
      <path d="M 154.758667 155.957915 
L 271.106458 155.957915 
" clip-path="url(#pae836bccac)" style="fill: none; stroke-dasharray: 1.85,0.8; stroke-dashoffset: 0; stroke: #000000; stroke-opacity: 0.15; stroke-width: 0.5"/>
     </g>
    </g>
    <g id="ytick_31">
     <g id="line2d_38">
      <path d="M 154.758667 138.373358 
L 271.106458 138.373358 
" clip-path="url(#pae836bccac)" style="fill: none; stroke-dasharray: 1.85,0.8; stroke-dashoffset: 0; stroke: #000000; stroke-opacity: 0.15; stroke-width: 0.5"/>
     </g>
    </g>
    <g id="ytick_32">
     <g id="line2d_39">
      <path d="M 154.758667 120.788801 
L 271.106458 120.788801 
" clip-path="url(#pae836bccac)" style="fill: none; stroke-dasharray: 1.85,0.8; stroke-dashoffset: 0; stroke: #000000; stroke-opacity: 0.15; stroke-width: 0.5"/>
     </g>
    </g>
    <g id="ytick_33"/>
    <g id="ytick_34"/>
    <g id="ytick_35"/>
    <g id="ytick_36"/>
    <g id="ytick_37"/>
    <g id="ytick_38"/>
   </g>
   <g id="PathCollection_6">
    <path d="M 186.489883 149.206317 
C 186.959943 149.206317 187.410814 149.01956 187.743197 148.687177 
C 188.07558 148.354794 188.262336 147.903923 188.262336 147.433863 
C 188.262336 146.963803 188.07558 146.512932 187.743197 146.180549 
C 187.410814 145.848166 186.959943 145.661409 186.489883 145.661409 
C 186.019822 145.661409 185.568951 145.848166 185.236568 146.180549 
C 184.904186 146.512932 184.717429 146.963803 184.717429 147.433863 
C 184.717429 147.903923 184.904186 148.354794 185.236568 148.687177 
C 185.568951 149.01956 186.019822 149.206317 186.489883 149.206317 
z
" clip-path="url(#pae836bccac)" style="fill: #d3894c; fill-opacity: 0.6"/>
    <path d="M 186.489883 164.811891 
C 186.959943 164.811891 187.410814 164.625134 187.743197 164.292751 
C 188.07558 163.960369 188.262336 163.509497 188.262336 163.039437 
C 188.262336 162.569377 188.07558 162.118506 187.743197 161.786123 
C 187.410814 161.45374 186.959943 161.266983 186.489883 161.266983 
C 186.019822 161.266983 185.568951 161.45374 185.236568 161.786123 
C 184.904186 162.118506 184.717429 162.569377 184.717429 163.039437 
C 184.717429 163.509497 184.904186 163.960369 185.236568 164.292751 
C 185.568951 164.625134 186.019822 164.811891 186.489883 164.811891 
z
" clip-path="url(#pae836bccac)" style="fill: #435b97; fill-opacity: 0.6"/>
    <path d="M 186.489883 139.323239 
C 186.959943 139.323239 187.410814 139.136482 187.743197 138.804099 
C 188.07558 138.471717 188.262336 138.020846 188.262336 137.550785 
C 188.262336 137.080725 188.07558 136.629854 187.743197 136.297471 
C 187.410814 135.965088 186.959943 135.778331 186.489883 135.778331 
C 186.019822 135.778331 185.568951 135.965088 185.236568 136.297471 
C 184.904186 136.629854 184.717429 137.080725 184.717429 137.550785 
C 184.717429 138.020846 184.904186 138.471717 185.236568 138.804099 
C 185.568951 139.136482 186.019822 139.323239 186.489883 139.323239 
z
" clip-path="url(#pae836bccac)" style="fill: #d3894c; fill-opacity: 0.6"/>
    <path d="M 186.489883 169.813967 
C 186.959943 169.813967 187.410814 169.62721 187.743197 169.294827 
C 188.07558 168.962444 188.262336 168.511573 188.262336 168.041513 
C 188.262336 167.571453 188.07558 167.120582 187.743197 166.788199 
C 187.410814 166.455816 186.959943 166.269059 186.489883 166.269059 
C 186.019822 166.269059 185.568951 166.455816 185.236568 166.788199 
C 184.904186 167.120582 184.717429 167.571453 184.717429 168.041513 
C 184.717429 168.511573 184.904186 168.962444 185.236568 169.294827 
C 185.568951 169.62721 186.019822 169.813967 186.489883 169.813967 
z
" clip-path="url(#pae836bccac)" style="fill: #435b97; fill-opacity: 0.6"/>
    <path d="M 186.489883 174.102706 
C 186.959943 174.102706 187.410814 173.915949 187.743197 173.583566 
C 188.07558 173.251183 188.262336 172.800312 188.262336 172.330252 
C 188.262336 171.860192 188.07558 171.409321 187.743197 171.076938 
C 187.410814 170.744555 186.959943 170.557798 186.489883 170.557798 
C 186.019822 170.557798 185.568951 170.744555 185.236568 171.076938 
C 184.904186 171.409321 184.717429 171.860192 184.717429 172.330252 
C 184.717429 172.800312 184.904186 173.251183 185.236568 173.583566 
C 185.568951 173.915949 186.019822 174.102706 186.489883 174.102706 
z
" clip-path="url(#pae836bccac)" style="fill: #d3894c; fill-opacity: 0.6"/>
    <path d="M 186.489883 163.524646 
C 186.959943 163.524646 187.410814 163.337889 187.743197 163.005506 
C 188.07558 162.673123 188.262336 162.222252 188.262336 161.752192 
C 188.262336 161.282132 188.07558 160.831261 187.743197 160.498878 
C 187.410814 160.166495 186.959943 159.979738 186.489883 159.979738 
C 186.019822 159.979738 185.568951 160.166495 185.236568 160.498878 
C 184.904186 160.831261 184.717429 161.282132 184.717429 161.752192 
C 184.717429 162.222252 184.904186 162.673123 185.236568 163.005506 
C 185.568951 163.337889 186.019822 163.524646 186.489883 163.524646 
z
" clip-path="url(#pae836bccac)" style="fill: #d3894c; fill-opacity: 0.6"/>
    <path d="M 186.489883 146.581441 
C 186.959943 146.581441 187.410814 146.394684 187.743197 146.062301 
C 188.07558 145.729918 188.262336 145.279047 188.262336 144.808987 
C 188.262336 144.338927 188.07558 143.888055 187.743197 143.555673 
C 187.410814 143.22329 186.959943 143.036533 186.489883 143.036533 
C 186.019822 143.036533 185.568951 143.22329 185.236568 143.555673 
C 184.904186 143.888055 184.717429 144.338927 184.717429 144.808987 
C 184.717429 145.279047 184.904186 145.729918 185.236568 146.062301 
C 185.568951 146.394684 186.019822 146.581441 186.489883 146.581441 
z
" clip-path="url(#pae836bccac)" style="fill: #435b97; fill-opacity: 0.6"/>
    <path d="M 186.489883 164.911149 
C 186.959943 164.911149 187.410814 164.724392 187.743197 164.39201 
C 188.07558 164.059627 188.262336 163.608756 188.262336 163.138696 
C 188.262336 162.668635 188.07558 162.217764 187.743197 161.885381 
C 187.410814 161.552999 186.959943 161.366242 186.489883 161.366242 
C 186.019822 161.366242 185.568951 161.552999 185.236568 161.885381 
C 184.904186 162.217764 184.717429 162.668635 184.717429 163.138696 
C 184.717429 163.608756 184.904186 164.059627 185.236568 164.39201 
C 185.568951 164.724392 186.019822 164.911149 186.489883 164.911149 
z
" clip-path="url(#pae836bccac)" style="fill: #d3894c; fill-opacity: 0.6"/>
    <path d="M 186.489883 145.796771 
C 186.959943 145.796771 187.410814 145.610014 187.743197 145.277632 
C 188.07558 144.945249 188.262336 144.494378 188.262336 144.024317 
C 188.262336 143.554257 188.07558 143.103386 187.743197 142.771003 
C 187.410814 142.43862 186.959943 142.251864 186.489883 142.251864 
C 186.019822 142.251864 185.568951 142.43862 185.236568 142.771003 
C 184.904186 143.103386 184.717429 143.554257 184.717429 144.024317 
C 184.717429 144.494378 184.904186 144.945249 185.236568 145.277632 
C 185.568951 145.610014 186.019822 145.796771 186.489883 145.796771 
z
" clip-path="url(#pae836bccac)" style="fill: #435b97; fill-opacity: 0.6"/>
    <path d="M 186.489883 135.529439 
C 186.959943 135.529439 187.410814 135.342682 187.743197 135.010299 
C 188.07558 134.677916 188.262336 134.227045 188.262336 133.756985 
C 188.262336 133.286925 188.07558 132.836053 187.743197 132.503671 
C 187.410814 132.171288 186.959943 131.984531 186.489883 131.984531 
C 186.019822 131.984531 185.568951 132.171288 185.236568 132.503671 
C 184.904186 132.836053 184.717429 133.286925 184.717429 133.756985 
C 184.717429 134.227045 184.904186 134.677916 185.236568 135.010299 
C 185.568951 135.342682 186.019822 135.529439 186.489883 135.529439 
z
" clip-path="url(#pae836bccac)" style="fill: #435b97; fill-opacity: 0.6"/>
    <path d="M 186.489883 149.829456 
C 186.959943 149.829456 187.410814 149.642699 187.743197 149.310316 
C 188.07558 148.977934 188.262336 148.527063 188.262336 148.057002 
C 188.262336 147.586942 188.07558 147.136071 187.743197 146.803688 
C 187.410814 146.471305 186.959943 146.284548 186.489883 146.284548 
C 186.019822 146.284548 185.568951 146.471305 185.236568 146.803688 
C 184.904186 147.136071 184.717429 147.586942 184.717429 148.057002 
C 184.717429 148.527063 184.904186 148.977934 185.236568 149.310316 
C 185.568951 149.642699 186.019822 149.829456 186.489883 149.829456 
z
" clip-path="url(#pae836bccac)" style="fill: #435b97; fill-opacity: 0.6"/>
    <path d="M 239.375242 157.105316 
C 239.845303 157.105316 240.296174 156.918559 240.628557 156.586176 
C 240.960939 156.253793 241.147696 155.802922 241.147696 155.332862 
C 241.147696 154.862802 240.960939 154.41193 240.628557 154.079548 
C 240.296174 153.747165 239.845303 153.560408 239.375242 153.560408 
C 238.905182 153.560408 238.454311 153.747165 238.121928 154.079548 
C 237.789545 154.41193 237.602789 154.862802 237.602789 155.332862 
C 237.602789 155.802922 237.789545 156.253793 238.121928 156.586176 
C 238.454311 156.918559 238.905182 157.105316 239.375242 157.105316 
z
" clip-path="url(#pae836bccac)" style="fill: #d3894c; fill-opacity: 0.6"/>
    <path d="M 239.375242 172.011138 
C 239.845303 172.011138 240.296174 171.824381 240.628557 171.491998 
C 240.960939 171.159615 241.147696 170.708744 241.147696 170.238684 
C 241.147696 169.768623 240.960939 169.317752 240.628557 168.98537 
C 240.296174 168.652987 239.845303 168.46623 239.375242 168.46623 
C 238.905182 168.46623 238.454311 168.652987 238.121928 168.98537 
C 237.789545 169.317752 237.602789 169.768623 237.602789 170.238684 
C 237.602789 170.708744 237.789545 171.159615 238.121928 171.491998 
C 238.454311 171.824381 238.905182 172.011138 239.375242 172.011138 
z
" clip-path="url(#pae836bccac)" style="fill: #d3894c; fill-opacity: 0.6"/>
    <path d="M 239.375242 181.57921 
C 239.845303 181.57921 240.296174 181.392454 240.628557 181.060071 
C 240.960939 180.727688 241.147696 180.276817 241.147696 179.806757 
C 241.147696 179.336696 240.960939 178.885825 240.628557 178.553442 
C 240.296174 178.22106 239.845303 178.034303 239.375242 178.034303 
C 238.905182 178.034303 238.454311 178.22106 238.121928 178.553442 
C 237.789545 178.885825 237.602789 179.336696 237.602789 179.806757 
C 237.602789 180.276817 237.789545 180.727688 238.121928 181.060071 
C 238.454311 181.392454 238.905182 181.57921 239.375242 181.57921 
z
" clip-path="url(#pae836bccac)" style="fill: #435b97; fill-opacity: 0.6"/>
    <path d="M 239.375242 175.16415 
C 239.845303 175.16415 240.296174 174.977393 240.628557 174.64501 
C 240.960939 174.312627 241.147696 173.861756 241.147696 173.391696 
C 241.147696 172.921636 240.960939 172.470765 240.628557 172.138382 
C 240.296174 171.805999 239.845303 171.619242 239.375242 171.619242 
C 238.905182 171.619242 238.454311 171.805999 238.121928 172.138382 
C 237.789545 172.470765 237.602789 172.921636 237.602789 173.391696 
C 237.602789 173.861756 237.789545 174.312627 238.121928 174.64501 
C 238.454311 174.977393 238.905182 175.16415 239.375242 175.16415 
z
" clip-path="url(#pae836bccac)" style="fill: #d3894c; fill-opacity: 0.6"/>
    <path d="M 239.375242 151.761743 
C 239.845303 151.761743 240.296174 151.574986 240.628557 151.242604 
C 240.960939 150.910221 241.147696 150.45935 241.147696 149.989289 
C 241.147696 149.519229 240.960939 149.068358 240.628557 148.735975 
C 240.296174 148.403593 239.845303 148.216836 239.375242 148.216836 
C 238.905182 148.216836 238.454311 148.403593 238.121928 148.735975 
C 237.789545 149.068358 237.602789 149.519229 237.602789 149.989289 
C 237.602789 150.45935 237.789545 150.910221 238.121928 151.242604 
C 238.454311 151.574986 238.905182 151.761743 239.375242 151.761743 
z
" clip-path="url(#pae836bccac)" style="fill: #435b97; fill-opacity: 0.6"/>
    <path d="M 239.375242 170.104957 
C 239.845303 170.104957 240.296174 169.9182 240.628557 169.585817 
C 240.960939 169.253434 241.147696 168.802563 241.147696 168.332503 
C 241.147696 167.862442 240.960939 167.411571 240.628557 167.079189 
C 240.296174 166.746806 239.845303 166.560049 239.375242 166.560049 
C 238.905182 166.560049 238.454311 166.746806 238.121928 167.079189 
C 237.789545 167.411571 237.602789 167.862442 237.602789 168.332503 
C 237.602789 168.802563 237.789545 169.253434 238.121928 169.585817 
C 238.454311 169.9182 238.905182 170.104957 239.375242 170.104957 
z
" clip-path="url(#pae836bccac)" style="fill: #d3894c; fill-opacity: 0.6"/>
    <path d="M 239.375242 159.873915 
C 239.845303 159.873915 240.296174 159.687158 240.628557 159.354776 
C 240.960939 159.022393 241.147696 158.571522 241.147696 158.101461 
C 241.147696 157.631401 240.960939 157.18053 240.628557 156.848147 
C 240.296174 156.515765 239.845303 156.329008 239.375242 156.329008 
C 238.905182 156.329008 238.454311 156.515765 238.121928 156.848147 
C 237.789545 157.18053 237.602789 157.631401 237.602789 158.101461 
C 237.602789 158.571522 237.789545 159.022393 238.121928 159.354776 
C 238.454311 159.687158 238.905182 159.873915 239.375242 159.873915 
z
" clip-path="url(#pae836bccac)" style="fill: #435b97; fill-opacity: 0.6"/>
    <path d="M 239.375242 170.755302 
C 239.845303 170.755302 240.296174 170.568545 240.628557 170.236163 
C 240.960939 169.90378 241.147696 169.452909 241.147696 168.982849 
C 241.147696 168.512788 240.960939 168.061917 240.628557 167.729534 
C 240.296174 167.397152 239.845303 167.210395 239.375242 167.210395 
C 238.905182 167.210395 238.454311 167.397152 238.121928 167.729534 
C 237.789545 168.061917 237.602789 168.512788 237.602789 168.982849 
C 237.602789 169.452909 237.789545 169.90378 238.121928 170.236163 
C 238.454311 170.568545 238.905182 170.755302 239.375242 170.755302 
z
" clip-path="url(#pae836bccac)" style="fill: #d3894c; fill-opacity: 0.6"/>
    <path d="M 239.375242 166.549006 
C 239.845303 166.549006 240.296174 166.362249 240.628557 166.029866 
C 240.960939 165.697483 241.147696 165.246612 241.147696 164.776552 
C 241.147696 164.306491 240.960939 163.85562 240.628557 163.523238 
C 240.296174 163.190855 239.845303 163.004098 239.375242 163.004098 
C 238.905182 163.004098 238.454311 163.190855 238.121928 163.523238 
C 237.789545 163.85562 237.602789 164.306491 237.602789 164.776552 
C 237.602789 165.246612 237.789545 165.697483 238.121928 166.029866 
C 238.454311 166.362249 238.905182 166.549006 239.375242 166.549006 
z
" clip-path="url(#pae836bccac)" style="fill: #435b97; fill-opacity: 0.6"/>
   </g>
   <g id="LineCollection_13">
    <path d="M 186.489883 144.416652 
L 186.489883 133.756985 
" clip-path="url(#pae836bccac)" style="fill: none; stroke: #333333; stroke-width: 0.886227"/>
    <path d="M 186.489883 163.089066 
L 186.489883 172.330252 
" clip-path="url(#pae836bccac)" style="fill: none; stroke: #333333; stroke-width: 0.886227"/>
   </g>
   <g id="PolyCollection_7">
    <defs>
     <path id="m8ce0431d6c" d="M 166.657873 -71.583348 
L 166.657873 -71.583348 
L 206.321893 -71.583348 
L 206.321893 -52.910934 
L 166.657873 -52.910934 
z
" style="stroke: #333333; stroke-width: 0.886227"/>
    </defs>
    <g clip-path="url(#pae836bccac)">
     <use xlink:href="#m8ce0431d6c" x="0" y="216" style="fill: #ffffff; fill-opacity: 0.6; stroke: #333333; stroke-width: 0.886227"/>
    </g>
   </g>
   <g id="LineCollection_14">
    <path d="M 166.657873 148.057002 
L 206.321893 148.057002 
" clip-path="url(#pae836bccac)" style="fill: none; stroke: #333333; stroke-width: 1.772454"/>
   </g>
   <g id="LineCollection_15">
    <path d="M 239.375242 158.101461 
L 239.375242 149.989289 
" clip-path="url(#pae836bccac)" style="fill: none; stroke: #333333; stroke-width: 0.886227"/>
    <path d="M 239.375242 170.238684 
L 239.375242 179.806757 
" clip-path="url(#pae836bccac)" style="fill: none; stroke: #333333; stroke-width: 0.886227"/>
   </g>
   <g id="PolyCollection_8">
    <defs>
     <path id="mc907298b65" d="M 219.543232 -57.898539 
L 219.543232 -57.898539 
L 259.207252 -57.898539 
L 259.207252 -45.761316 
L 219.543232 -45.761316 
z
" style="stroke: #333333; stroke-width: 0.886227"/>
    </defs>
    <g clip-path="url(#pae836bccac)">
     <use xlink:href="#mc907298b65" x="0" y="216" style="fill: #ffffff; fill-opacity: 0.6; stroke: #333333; stroke-width: 0.886227"/>
    </g>
   </g>
   <g id="LineCollection_16">
    <path d="M 219.543232 168.332503 
L 259.207252 168.332503 
" clip-path="url(#pae836bccac)" style="fill: none; stroke: #333333; stroke-width: 1.772454"/>
   </g>
   <g id="text_20">
    <g clip-path="url(#pae836bccac)">
     <text style="font: 8px 'Helvetica', 'DejaVu Sans', 'Avant Garde', 'Computer Modern Sans serif', 'Arial', sans-serif; text-anchor: middle" x="239.375242" y="196.679565" transform="rotate(-0 239.375242 196.679565)">n = 9</text>
    </g>
   </g>
   <g id="text_21">
    <g clip-path="url(#pae836bccac)">
     <text style="font: 8px 'Helvetica', 'DejaVu Sans', 'Avant Garde', 'Computer Modern Sans serif', 'Arial', sans-serif; text-anchor: middle" x="186.489883" y="196.679565" transform="rotate(-0 186.489883 196.679565)">n = 11</text>
    </g>
   </g>
  </g>
  <g id="patch_6">
   <path d="M 35.530875 107.138271 
L 151.878667 107.138271 
L 151.878667 17.006292 
L 35.530875 17.006292 
L 35.530875 107.138271 
z
" style="fill: none; stroke: #7f7f7f; stroke-linejoin: miter"/>
  </g>
  <g id="patch_7">
   <path d="M 154.758667 107.138271 
L 271.106458 107.138271 
L 271.106458 17.006292 
L 154.758667 17.006292 
L 154.758667 107.138271 
z
" style="fill: none; stroke: #7f7f7f; stroke-linejoin: miter"/>
  </g>
  <g id="patch_8">
   <path d="M 35.530875 200.15025 
L 151.878667 200.15025 
L 151.878667 110.018271 
L 35.530875 110.018271 
L 35.530875 200.15025 
z
" style="fill: none; stroke: #7f7f7f; stroke-linejoin: miter"/>
  </g>
  <g id="patch_9">
   <path d="M 154.758667 200.15025 
L 271.106458 200.15025 
L 271.106458 110.018271 
L 154.758667 110.018271 
L 154.758667 200.15025 
z
" style="fill: none; stroke: #7f7f7f; stroke-linejoin: miter"/>
  </g>
  <g id="text_22">
   <!-- $\alpha$-Diversity  -->
   <g transform="translate(10.8 136.683271) rotate(-90)">
    <text>
     <tspan style="font: oblique 11px 'DejaVu Sans'" x="0" y="-0.109375"></tspan>
     <tspan style="font: 11px 'Helvetica'" x="7.250977 10.914062 18.85791 21.301758 26.801758 32.919434 36.58252 42.08252 44.526367 47.58252 53.08252" y="-0.109375">-Diversity</tspan>
    </text>
   </g>
  </g>
  <g id="patch_10">
   <path d="M 35.530875 17.006292 
L 151.878667 17.006292 
L 151.878667 2.99275 
L 35.530875 2.99275 
z
" style="fill: #cccccc; stroke: #7f7f7f; stroke-linejoin: miter"/>
  </g>
  <g id="text_23">
   <text style="fill: #1a1a1a; font: 8.8px 'Helvetica', 'DejaVu Sans', 'Avant Garde', 'Computer Modern Sans serif', 'Arial', sans-serif; text-anchor: middle" x="93.704771" y="13.155833" transform="rotate(-0 93.704771 13.155833)">Bacteria</text>
  </g>
  <g id="patch_11">
   <path d="M 154.758667 17.006292 
L 271.106458 17.006292 
L 271.106458 2.88 
L 154.758667 2.88 
z
" style="fill: #cccccc; stroke: #7f7f7f; stroke-linejoin: miter"/>
  </g>
  <g id="text_24">
   <text style="fill: #1a1a1a; font: 8.8px 'Helvetica', 'DejaVu Sans', 'Avant Garde', 'Computer Modern Sans serif', 'Arial', sans-serif; text-anchor: middle" x="212.932562" y="13.099458" transform="rotate(-0 212.932562 13.099458)">Fungi</text>
  </g>
  <g id="patch_12">
   <path d="M 271.106458 107.138271 
L 285.12 107.138271 
L 285.12 17.006292 
L 271.106458 17.006292 
z
" style="fill: #cccccc; stroke: #7f7f7f; stroke-linejoin: miter"/>
  </g>
  <g id="text_25">
   <text style="fill: #1a1a1a; font: 8.8px 'Helvetica', 'DejaVu Sans', 'Avant Garde', 'Computer Modern Sans serif', 'Arial', sans-serif; text-anchor: middle" x="274.956917" y="62.072281" transform="rotate(-270 274.956917 62.072281)">Chao1 Index</text>
  </g>
  <g id="patch_13">
   <path d="M 271.106458 200.15025 
L 285.12 200.15025 
L 285.12 110.018271 
L 271.106458 110.018271 
z
" style="fill: #cccccc; stroke: #7f7f7f; stroke-linejoin: miter"/>
  </g>
  <g id="text_26">
   <text style="fill: #1a1a1a; font: 8.8px 'Helvetica', 'DejaVu Sans', 'Avant Garde', 'Computer Modern Sans serif', 'Arial', sans-serif; text-anchor: middle" x="274.956917" y="155.08426" transform="rotate(-270 274.956917 155.08426)">Shannon Index</text>
  </g>
 </g>
 <defs>
  <clipPath id="p2027dbe4ad">
   <rect x="35.530875" y="17.006292" width="116.347792" height="90.131979"/>
  </clipPath>
  <clipPath id="p1a88087739">
   <rect x="154.758667" y="17.006292" width="116.347792" height="90.131979"/>
  </clipPath>
  <clipPath id="pc81ec66006">
   <rect x="35.530875" y="110.018271" width="116.347792" height="90.131979"/>
  </clipPath>
  <clipPath id="pae836bccac">
   <rect x="154.758667" y="110.018271" width="116.347792" height="90.131979"/>
  </clipPath>
 </defs>
</svg>
