<?xml version="1.0" encoding="utf-8" standalone="no"?>
<!DOCTYPE svg PUBLIC "-//W3C//DTD SVG 1.1//EN"
  "http://www.w3.org/Graphics/SVG/1.1/DTD/svg11.dtd">
<svg xmlns:xlink="http://www.w3.org/1999/xlink" width="288pt" height="216pt" viewBox="0 0 288 216" xmlns="http://www.w3.org/2000/svg" version="1.1">
 <metadata>
  <rdf:RDF xmlns:dc="http://purl.org/dc/elements/1.1/" xmlns:cc="http://creativecommons.org/ns#" xmlns:rdf="http://www.w3.org/1999/02/22-rdf-syntax-ns#">
   <cc:Work>
    <dc:type rdf:resource="http://purl.org/dc/dcmitype/StillImage"/>
    <dc:date>2024-08-02T10:46:48.792047</dc:date>
    <dc:format>image/svg+xml</dc:format>
    <dc:creator>
     <cc:Agent>
      <dc:title>Matplotlib v3.7.1, https://matplotlib.org/</dc:title>
     </cc:Agent>
    </dc:creator>
   </cc:Work>
  </rdf:RDF>
 </metadata>
 <defs>
  <style type="text/css">*{stroke-linejoin: round; stroke-linecap: butt}</style>
 </defs>
 <g id="figure_1">
  <g id="patch_1">
   <path d="M 0 216 
L 288 216 
L 288 0 
L 0 0 
z
" style="fill: #ffffff; stroke: #ffffff; stroke-linejoin: miter"/>
  </g>
  <g id="axes_1">
   <g id="patch_2">
    <path d="M 35.530875 107.108021 
L 151.878667 107.108021 
L 151.878667 17.006292 
L 35.530875 17.006292 
z
" style="fill: #ffffff"/>
   </g>
   <g id="matplotlib.axis_1">
    <g id="xtick_1">
     <g id="line2d_1">
      <path d="M 67.262091 107.108021 
L 67.262091 17.006292 
" clip-path="url(#pe183e39130)" style="fill: none; stroke-dasharray: 1.85,0.8; stroke-dashoffset: 0; stroke: #000000; stroke-opacity: 0.15; stroke-width: 0.5"/>
     </g>
    </g>
    <g id="xtick_2">
     <g id="line2d_2">
      <path d="M 120.147451 107.108021 
L 120.147451 17.006292 
" clip-path="url(#pe183e39130)" style="fill: none; stroke-dasharray: 1.85,0.8; stroke-dashoffset: 0; stroke: #000000; stroke-opacity: 0.15; stroke-width: 0.5"/>
     </g>
    </g>
   </g>
   <g id="matplotlib.axis_2">
    <g id="ytick_1">
     <g id="line2d_3">
      <path d="M 35.530875 99.441247 
L 151.878667 99.441247 
" clip-path="url(#pe183e39130)" style="fill: none; stroke-dasharray: 1.85,0.8; stroke-dashoffset: 0; stroke: #000000; stroke-opacity: 0.15; stroke-width: 0.5"/>
     </g>
     <g id="line2d_4">
      <path d="M 35.530875 99.441247 
" style="fill: none; stroke: #333333; stroke-width: 1.5; stroke-linecap: square"/>
      <defs>
       <path id="m95a4a9755c" d="M 0 0 
L -2.75 0 
" style="stroke: #333333"/>
      </defs>
      <g>
       <use xlink:href="#m95a4a9755c" x="35.530875" y="99.441247" style="fill: #333333; stroke: #333333"/>
      </g>
     </g>
     <g id="text_1">
      <text style="fill: #4d4d4d; font: 8.8px 'Helvetica', 'DejaVu Sans', 'Avant Garde', 'Computer Modern Sans serif', 'Arial', sans-serif; text-anchor: end" x="30.780875" y="102.59756" transform="rotate(-0 30.780875 102.59756)">0</text>
     </g>
    </g>
    <g id="ytick_2">
     <g id="line2d_5">
      <path d="M 35.530875 76.961337 
L 151.878667 76.961337 
" clip-path="url(#pe183e39130)" style="fill: none; stroke-dasharray: 1.85,0.8; stroke-dashoffset: 0; stroke: #000000; stroke-opacity: 0.15; stroke-width: 0.5"/>
     </g>
     <g id="line2d_6">
      <path d="M 35.530875 76.961337 
" style="fill: none; stroke: #333333; stroke-width: 1.5; stroke-linecap: square"/>
      <g>
       <use xlink:href="#m95a4a9755c" x="35.530875" y="76.961337" style="fill: #333333; stroke: #333333"/>
      </g>
     </g>
     <g id="text_2">
      <text style="fill: #4d4d4d; font: 8.8px 'Helvetica', 'DejaVu Sans', 'Avant Garde', 'Computer Modern Sans serif', 'Arial', sans-serif; text-anchor: end" x="30.780875" y="80.117649" transform="rotate(-0 30.780875 80.117649)">50</text>
     </g>
    </g>
    <g id="ytick_3">
     <g id="line2d_7">
      <path d="M 35.530875 54.481426 
L 151.878667 54.481426 
" clip-path="url(#pe183e39130)" style="fill: none; stroke-dasharray: 1.85,0.8; stroke-dashoffset: 0; stroke: #000000; stroke-opacity: 0.15; stroke-width: 0.5"/>
     </g>
     <g id="line2d_8">
      <path d="M 35.530875 54.481426 
" style="fill: none; stroke: #333333; stroke-width: 1.5; stroke-linecap: square"/>
      <g>
       <use xlink:href="#m95a4a9755c" x="35.530875" y="54.481426" style="fill: #333333; stroke: #333333"/>
      </g>
     </g>
     <g id="text_3">
      <text style="fill: #4d4d4d; font: 8.8px 'Helvetica', 'DejaVu Sans', 'Avant Garde', 'Computer Modern Sans serif', 'Arial', sans-serif; text-anchor: end" x="30.780875" y="57.637739" transform="rotate(-0 30.780875 57.637739)">100</text>
     </g>
    </g>
    <g id="ytick_4">
     <g id="line2d_9">
      <path d="M 35.530875 32.001516 
L 151.878667 32.001516 
" clip-path="url(#pe183e39130)" style="fill: none; stroke-dasharray: 1.85,0.8; stroke-dashoffset: 0; stroke: #000000; stroke-opacity: 0.15; stroke-width: 0.5"/>
     </g>
     <g id="line2d_10">
      <path d="M 35.530875 32.001516 
" style="fill: none; stroke: #333333; stroke-width: 1.5; stroke-linecap: square"/>
      <g>
       <use xlink:href="#m95a4a9755c" x="35.530875" y="32.001516" style="fill: #333333; stroke: #333333"/>
      </g>
     </g>
     <g id="text_4">
      <text style="fill: #4d4d4d; font: 8.8px 'Helvetica', 'DejaVu Sans', 'Avant Garde', 'Computer Modern Sans serif', 'Arial', sans-serif; text-anchor: end" x="30.780875" y="35.157828" transform="rotate(-0 30.780875 35.157828)">150</text>
     </g>
    </g>
    <g id="ytick_5"/>
    <g id="ytick_6"/>
    <g id="ytick_7"/>
    <g id="ytick_8"/>
   </g>
   <g id="PathCollection_1">
    <path d="M 67.262091 69.741827 
C 67.732151 69.741827 68.183022 69.55507 68.515405 69.222687 
C 68.847788 68.890304 69.034545 68.439433 69.034545 67.969373 
C 69.034545 67.499312 68.847788 67.048441 68.515405 66.716059 
C 68.183022 66.383676 67.732151 66.196919 67.262091 66.196919 
C 66.792031 66.196919 66.34116 66.383676 66.008777 66.716059 
C 65.676394 67.048441 65.489637 67.499312 65.489637 67.969373 
C 65.489637 68.439433 65.676394 68.890304 66.008777 69.222687 
C 66.34116 69.55507 66.792031 69.741827 67.262091 69.741827 
z
" clip-path="url(#pe183e39130)" style="fill-opacity: 0.6; stroke: #000000; stroke-opacity: 0.6; stroke-width: 0.886227"/>
    <path d="M 120.147451 78.733791 
C 120.617511 78.733791 121.068382 78.547034 121.400765 78.214651 
C 121.733148 77.882268 121.919905 77.431397 121.919905 76.961337 
C 121.919905 76.491277 121.733148 76.040406 121.400765 75.708023 
C 121.068382 75.37564 120.617511 75.188883 120.147451 75.188883 
C 119.677391 75.188883 119.226519 75.37564 118.894137 75.708023 
C 118.561754 76.040406 118.374997 76.491277 118.374997 76.961337 
C 118.374997 77.431397 118.561754 77.882268 118.894137 78.214651 
C 119.226519 78.547034 119.677391 78.733791 120.147451 78.733791 
z
" clip-path="url(#pe183e39130)" style="fill-opacity: 0.6; stroke: #000000; stroke-opacity: 0.6; stroke-width: 0.886227"/>
    <path d="M 67.262091 74.237809 
C 67.732151 74.237809 68.183022 74.051052 68.515405 73.718669 
C 68.847788 73.386286 69.034545 72.935415 69.034545 72.465355 
C 69.034545 71.995295 68.847788 71.544423 68.515405 71.212041 
C 68.183022 70.879658 67.732151 70.692901 67.262091 70.692901 
C 66.792031 70.692901 66.34116 70.879658 66.008777 71.212041 
C 65.676394 71.544423 65.489637 71.995295 65.489637 72.465355 
C 65.489637 72.935415 65.676394 73.386286 66.008777 73.718669 
C 66.34116 74.051052 66.792031 74.237809 67.262091 74.237809 
z
" clip-path="url(#pe183e39130)" style="fill-opacity: 0.6; stroke: #000000; stroke-opacity: 0.6; stroke-width: 0.886227"/>
    <path d="M 120.147451 88.624951 
C 120.617511 88.624951 121.068382 88.438194 121.400765 88.105812 
C 121.733148 87.773429 121.919905 87.322558 121.919905 86.852498 
C 121.919905 86.382437 121.733148 85.931566 121.400765 85.599183 
C 121.068382 85.266801 120.617511 85.080044 120.147451 85.080044 
C 119.677391 85.080044 119.226519 85.266801 118.894137 85.599183 
C 118.561754 85.931566 118.374997 86.382437 118.374997 86.852498 
C 118.374997 87.322558 118.561754 87.773429 118.894137 88.105812 
C 119.226519 88.438194 119.677391 88.624951 120.147451 88.624951 
z
" clip-path="url(#pe183e39130)" style="fill-opacity: 0.6; stroke: #000000; stroke-opacity: 0.6; stroke-width: 0.886227"/>
    <path d="M 67.262091 89.524148 
C 67.732151 89.524148 68.183022 89.337391 68.515405 89.005008 
C 68.847788 88.672625 69.034545 88.221754 69.034545 87.751694 
C 69.034545 87.281634 68.847788 86.830763 68.515405 86.49838 
C 68.183022 86.165997 67.732151 85.97924 67.262091 85.97924 
C 66.792031 85.97924 66.34116 86.165997 66.008777 86.49838 
C 65.676394 86.830763 65.489637 87.281634 65.489637 87.751694 
C 65.489637 88.221754 65.676394 88.672625 66.008777 89.005008 
C 66.34116 89.337391 66.792031 89.524148 67.262091 89.524148 
z
" clip-path="url(#pe183e39130)" style="fill-opacity: 0.6; stroke: #000000; stroke-opacity: 0.6; stroke-width: 0.886227"/>
    <path d="M 120.147451 86.37696 
C 120.617511 86.37696 121.068382 86.190203 121.400765 85.857821 
C 121.733148 85.525438 121.919905 85.074567 121.919905 84.604506 
C 121.919905 84.134446 121.733148 83.683575 121.400765 83.351192 
C 121.068382 83.01881 120.617511 82.832053 120.147451 82.832053 
C 119.677391 82.832053 119.226519 83.01881 118.894137 83.351192 
C 118.561754 83.683575 118.374997 84.134446 118.374997 84.604506 
C 118.374997 85.074567 118.561754 85.525438 118.894137 85.857821 
C 119.226519 86.190203 119.677391 86.37696 120.147451 86.37696 
z
" clip-path="url(#pe183e39130)" style="fill-opacity: 0.6; stroke: #000000; stroke-opacity: 0.6; stroke-width: 0.886227"/>
    <path d="M 67.262091 88.175353 
C 67.732151 88.175353 68.183022 87.988596 68.515405 87.656213 
C 68.847788 87.323831 69.034545 86.87296 69.034545 86.402899 
C 69.034545 85.932839 68.847788 85.481968 68.515405 85.149585 
C 68.183022 84.817202 67.732151 84.630445 67.262091 84.630445 
C 66.792031 84.630445 66.34116 84.817202 66.008777 85.149585 
C 65.676394 85.481968 65.489637 85.932839 65.489637 86.402899 
C 65.489637 86.87296 65.676394 87.323831 66.008777 87.656213 
C 66.34116 87.988596 66.792031 88.175353 67.262091 88.175353 
z
" clip-path="url(#pe183e39130)" style="fill-opacity: 0.6; stroke: #000000; stroke-opacity: 0.6; stroke-width: 0.886227"/>
    <path d="M 120.147451 94.02013 
C 120.617511 94.02013 121.068382 93.833373 121.400765 93.50099 
C 121.733148 93.168607 121.919905 92.717736 121.919905 92.247676 
C 121.919905 91.777616 121.733148 91.326745 121.400765 90.994362 
C 121.068382 90.661979 120.617511 90.475222 120.147451 90.475222 
C 119.677391 90.475222 119.226519 90.661979 118.894137 90.994362 
C 118.561754 91.326745 118.374997 91.777616 118.374997 92.247676 
C 118.374997 92.717736 118.561754 93.168607 118.894137 93.50099 
C 119.226519 93.833373 119.677391 94.02013 120.147451 94.02013 
z
" clip-path="url(#pe183e39130)" style="fill-opacity: 0.6; stroke: #000000; stroke-opacity: 0.6; stroke-width: 0.886227"/>
    <path d="M 67.262091 89.973746 
C 67.732151 89.973746 68.183022 89.786989 68.515405 89.454606 
C 68.847788 89.122223 69.034545 88.671352 69.034545 88.201292 
C 69.034545 87.731232 68.847788 87.280361 68.515405 86.947978 
C 68.183022 86.615595 67.732151 86.428838 67.262091 86.428838 
C 66.792031 86.428838 66.34116 86.615595 66.008777 86.947978 
C 65.676394 87.280361 65.489637 87.731232 65.489637 88.201292 
C 65.489637 88.671352 65.676394 89.122223 66.008777 89.454606 
C 66.34116 89.786989 66.792031 89.973746 67.262091 89.973746 
z
" clip-path="url(#pe183e39130)" style="fill-opacity: 0.6; stroke: #000000; stroke-opacity: 0.6; stroke-width: 0.886227"/>
    <path d="M 120.147451 84.578567 
C 120.617511 84.578567 121.068382 84.391811 121.400765 84.059428 
C 121.733148 83.727045 121.919905 83.276174 121.919905 82.806114 
C 121.919905 82.336053 121.733148 81.885182 121.400765 81.552799 
C 121.068382 81.220417 120.617511 81.03366 120.147451 81.03366 
C 119.677391 81.03366 119.226519 81.220417 118.894137 81.552799 
C 118.561754 81.885182 118.374997 82.336053 118.374997 82.806114 
C 118.374997 83.276174 118.561754 83.727045 118.894137 84.059428 
C 119.226519 84.391811 119.677391 84.578567 120.147451 84.578567 
z
" clip-path="url(#pe183e39130)" style="fill-opacity: 0.6; stroke: #000000; stroke-opacity: 0.6; stroke-width: 0.886227"/>
    <path d="M 120.147451 84.578567 
C 120.617511 84.578567 121.068382 84.391811 121.400765 84.059428 
C 121.733148 83.727045 121.919905 83.276174 121.919905 82.806114 
C 121.919905 82.336053 121.733148 81.885182 121.400765 81.552799 
C 121.068382 81.220417 120.617511 81.03366 120.147451 81.03366 
C 119.677391 81.03366 119.226519 81.220417 118.894137 81.552799 
C 118.561754 81.885182 118.374997 82.336053 118.374997 82.806114 
C 118.374997 83.276174 118.561754 83.727045 118.894137 84.059428 
C 119.226519 84.391811 119.677391 84.578567 120.147451 84.578567 
z
" clip-path="url(#pe183e39130)" style="fill-opacity: 0.6; stroke: #000000; stroke-opacity: 0.6; stroke-width: 0.886227"/>
    <path d="M 120.147451 84.128969 
C 120.617511 84.128969 121.068382 83.942212 121.400765 83.60983 
C 121.733148 83.277447 121.919905 82.826576 121.919905 82.356515 
C 121.919905 81.886455 121.733148 81.435584 121.400765 81.103201 
C 121.068382 80.770818 120.617511 80.584062 120.147451 80.584062 
C 119.677391 80.584062 119.226519 80.770818 118.894137 81.103201 
C 118.561754 81.435584 118.374997 81.886455 118.374997 82.356515 
C 118.374997 82.826576 118.561754 83.277447 118.894137 83.60983 
C 119.226519 83.942212 119.677391 84.128969 120.147451 84.128969 
z
" clip-path="url(#pe183e39130)" style="fill-opacity: 0.6; stroke: #000000; stroke-opacity: 0.6; stroke-width: 0.886227"/>
    <path d="M 67.262091 45.013925 
C 67.732151 45.013925 68.183022 44.827168 68.515405 44.494785 
C 68.847788 44.162403 69.034545 43.711531 69.034545 43.241471 
C 69.034545 42.771411 68.847788 42.32054 68.515405 41.988157 
C 68.183022 41.655774 67.732151 41.469017 67.262091 41.469017 
C 66.792031 41.469017 66.34116 41.655774 66.008777 41.988157 
C 65.676394 42.32054 65.489637 42.771411 65.489637 43.241471 
C 65.489637 43.711531 65.676394 44.162403 66.008777 44.494785 
C 66.34116 44.827168 66.792031 45.013925 67.262091 45.013925 
z
" clip-path="url(#pe183e39130)" style="fill-opacity: 0.6; stroke: #000000; stroke-opacity: 0.6; stroke-width: 0.886227"/>
    <path d="M 67.262091 73.338612 
C 67.732151 73.338612 68.183022 73.151855 68.515405 72.819473 
C 68.847788 72.48709 69.034545 72.036219 69.034545 71.566158 
C 69.034545 71.096098 68.847788 70.645227 68.515405 70.312844 
C 68.183022 69.980461 67.732151 69.793705 67.262091 69.793705 
C 66.792031 69.793705 66.34116 69.980461 66.008777 70.312844 
C 65.676394 70.645227 65.489637 71.096098 65.489637 71.566158 
C 65.489637 72.036219 65.676394 72.48709 66.008777 72.819473 
C 66.34116 73.151855 66.792031 73.338612 67.262091 73.338612 
z
" clip-path="url(#pe183e39130)" style="fill-opacity: 0.6; stroke: #000000; stroke-opacity: 0.6; stroke-width: 0.886227"/>
    <path d="M 120.147451 54.905086 
C 120.617511 54.905086 121.068382 54.718329 121.400765 54.385946 
C 121.733148 54.053563 121.919905 53.602692 121.919905 53.132632 
C 121.919905 52.662572 121.733148 52.2117 121.400765 51.879318 
C 121.068382 51.546935 120.617511 51.360178 120.147451 51.360178 
C 119.677391 51.360178 119.226519 51.546935 118.894137 51.879318 
C 118.561754 52.2117 118.374997 52.662572 118.374997 53.132632 
C 118.374997 53.602692 118.561754 54.053563 118.894137 54.385946 
C 119.226519 54.718329 119.677391 54.905086 120.147451 54.905086 
z
" clip-path="url(#pe183e39130)" style="fill-opacity: 0.6; stroke: #000000; stroke-opacity: 0.6; stroke-width: 0.886227"/>
    <path d="M 67.262091 74.237809 
C 67.732151 74.237809 68.183022 74.051052 68.515405 73.718669 
C 68.847788 73.386286 69.034545 72.935415 69.034545 72.465355 
C 69.034545 71.995295 68.847788 71.544423 68.515405 71.212041 
C 68.183022 70.879658 67.732151 70.692901 67.262091 70.692901 
C 66.792031 70.692901 66.34116 70.879658 66.008777 71.212041 
C 65.676394 71.544423 65.489637 71.995295 65.489637 72.465355 
C 65.489637 72.935415 65.676394 73.386286 66.008777 73.718669 
C 66.34116 74.051052 66.792031 74.237809 67.262091 74.237809 
z
" clip-path="url(#pe183e39130)" style="fill-opacity: 0.6; stroke: #000000; stroke-opacity: 0.6; stroke-width: 0.886227"/>
    <path d="M 120.147451 67.493836 
C 120.617511 67.493836 121.068382 67.307079 121.400765 66.974696 
C 121.733148 66.642313 121.919905 66.191442 121.919905 65.721382 
C 121.919905 65.251321 121.733148 64.80045 121.400765 64.468068 
C 121.068382 64.135685 120.617511 63.948928 120.147451 63.948928 
C 119.677391 63.948928 119.226519 64.135685 118.894137 64.468068 
C 118.561754 64.80045 118.374997 65.251321 118.374997 65.721382 
C 118.374997 66.191442 118.561754 66.642313 118.894137 66.974696 
C 119.226519 67.307079 119.677391 67.493836 120.147451 67.493836 
z
" clip-path="url(#pe183e39130)" style="fill-opacity: 0.6; stroke: #000000; stroke-opacity: 0.6; stroke-width: 0.886227"/>
    <path d="M 67.262091 46.36272 
C 67.732151 46.36272 68.183022 46.175963 68.515405 45.84358 
C 68.847788 45.511197 69.034545 45.060326 69.034545 44.590266 
C 69.034545 44.120206 68.847788 43.669334 68.515405 43.336952 
C 68.183022 43.004569 67.732151 42.817812 67.262091 42.817812 
C 66.792031 42.817812 66.34116 43.004569 66.008777 43.336952 
C 65.676394 43.669334 65.489637 44.120206 65.489637 44.590266 
C 65.489637 45.060326 65.676394 45.511197 66.008777 45.84358 
C 66.34116 46.175963 66.792031 46.36272 67.262091 46.36272 
z
" clip-path="url(#pe183e39130)" style="fill-opacity: 0.6; stroke: #000000; stroke-opacity: 0.6; stroke-width: 0.886227"/>
    <path d="M 120.147451 48.161113 
C 120.617511 48.161113 121.068382 47.974356 121.400765 47.641973 
C 121.733148 47.30959 121.919905 46.858719 121.919905 46.388659 
C 121.919905 45.918598 121.733148 45.467727 121.400765 45.135345 
C 121.068382 44.802962 120.617511 44.616205 120.147451 44.616205 
C 119.677391 44.616205 119.226519 44.802962 118.894137 45.135345 
C 118.561754 45.467727 118.374997 45.918598 118.374997 46.388659 
C 118.374997 46.858719 118.561754 47.30959 118.894137 47.641973 
C 119.226519 47.974356 119.677391 48.161113 120.147451 48.161113 
z
" clip-path="url(#pe183e39130)" style="fill-opacity: 0.6; stroke: #000000; stroke-opacity: 0.6; stroke-width: 0.886227"/>
    <path d="M 67.262091 36.921157 
C 67.732151 36.921157 68.183022 36.7344 68.515405 36.402018 
C 68.847788 36.069635 69.034545 35.618764 69.034545 35.148703 
C 69.034545 34.678643 68.847788 34.227772 68.515405 33.895389 
C 68.183022 33.563006 67.732151 33.37625 67.262091 33.37625 
C 66.792031 33.37625 66.34116 33.563006 66.008777 33.895389 
C 65.676394 34.227772 65.489637 34.678643 65.489637 35.148703 
C 65.489637 35.618764 65.676394 36.069635 66.008777 36.402018 
C 66.34116 36.7344 66.792031 36.921157 67.262091 36.921157 
z
" clip-path="url(#pe183e39130)" style="fill-opacity: 0.6; stroke: #000000; stroke-opacity: 0.6; stroke-width: 0.886227"/>
    <path d="M 120.147451 65.245844 
C 120.617511 65.245844 121.068382 65.059088 121.400765 64.726705 
C 121.733148 64.394322 121.919905 63.943451 121.919905 63.473391 
C 121.919905 63.00333 121.733148 62.552459 121.400765 62.220076 
C 121.068382 61.887694 120.617511 61.700937 120.147451 61.700937 
C 119.677391 61.700937 119.226519 61.887694 118.894137 62.220076 
C 118.561754 62.552459 118.374997 63.00333 118.374997 63.473391 
C 118.374997 63.943451 118.561754 64.394322 118.894137 64.726705 
C 119.226519 65.059088 119.677391 65.245844 120.147451 65.245844 
z
" clip-path="url(#pe183e39130)" style="fill-opacity: 0.6; stroke: #000000; stroke-opacity: 0.6; stroke-width: 0.886227"/>
   </g>
   <g id="LineCollection_1">
    <path d="M 67.262091 50.435043 
L 67.262091 35.148703 
" clip-path="url(#pe183e39130)" style="fill: none; stroke: #333333; stroke-width: 0.886227"/>
    <path d="M 67.262091 82.918513 
L 67.262091 88.201292 
" clip-path="url(#pe183e39130)" style="fill: none; stroke: #333333; stroke-width: 0.886227"/>
   </g>
   <g id="PolyCollection_1">
    <defs>
     <path id="m499d8e8576" d="M 47.430081 -165.564957 
L 47.430081 -165.564957 
L 87.094101 -165.564957 
L 87.094101 -133.081487 
L 47.430081 -133.081487 
z
" style="stroke: #333333; stroke-width: 0.886227"/>
    </defs>
    <g clip-path="url(#pe183e39130)">
     <use xlink:href="#m499d8e8576" x="0" y="216" style="fill: #d3894c; fill-opacity: 0.6; stroke: #333333; stroke-width: 0.886227"/>
    </g>
   </g>
   <g id="LineCollection_2">
    <path d="M 47.430081 72.015757 
L 87.094101 72.015757 
" clip-path="url(#pe183e39130)" style="fill: none; stroke: #333333; stroke-width: 1.772454"/>
   </g>
   <g id="LineCollection_3">
    <path d="M 120.147451 64.597386 
L 120.147451 46.388659 
" clip-path="url(#pe183e39130)" style="fill: none; stroke: #333333; stroke-width: 0.886227"/>
    <path d="M 120.147451 83.70531 
L 120.147451 92.247676 
" clip-path="url(#pe183e39130)" style="fill: none; stroke: #333333; stroke-width: 0.886227"/>
   </g>
   <g id="PolyCollection_2">
    <defs>
     <path id="ma3d42ee027" d="M 100.315441 -151.402614 
L 100.315441 -151.402614 
L 139.979461 -151.402614 
L 139.979461 -132.29469 
L 100.315441 -132.29469 
z
" style="stroke: #333333; stroke-width: 0.886227"/>
    </defs>
    <g clip-path="url(#pe183e39130)">
     <use xlink:href="#ma3d42ee027" x="0" y="216" style="fill: #d3894c; fill-opacity: 0.6; stroke: #333333; stroke-width: 0.886227"/>
    </g>
   </g>
   <g id="LineCollection_4">
    <path d="M 100.315441 82.356515 
L 139.979461 82.356515 
" clip-path="url(#pe183e39130)" style="fill: none; stroke: #333333; stroke-width: 1.772454"/>
   </g>
   <g id="text_5">
    <g clip-path="url(#pe183e39130)">
     <text style="font: 8px 'Helvetica', 'DejaVu Sans', 'Avant Garde', 'Computer Modern Sans serif', 'Arial', sans-serif; text-anchor: middle" x="67.262091" y="101.566792" transform="rotate(-0 67.262091 101.566792)">n = 10</text>
    </g>
   </g>
   <g id="text_6">
    <g clip-path="url(#pe183e39130)">
     <text style="font: 8px 'Helvetica', 'DejaVu Sans', 'Avant Garde', 'Computer Modern Sans serif', 'Arial', sans-serif; text-anchor: middle" x="120.147451" y="101.566792" transform="rotate(-0 120.147451 101.566792)">n = 11</text>
    </g>
   </g>
  </g>
  <g id="axes_2">
   <g id="patch_3">
    <path d="M 154.758667 107.108021 
L 271.106458 107.108021 
L 271.106458 17.006292 
L 154.758667 17.006292 
z
" style="fill: #ffffff"/>
   </g>
   <g id="matplotlib.axis_3">
    <g id="xtick_3">
     <g id="line2d_11">
      <path d="M 186.489883 107.108021 
L 186.489883 17.006292 
" clip-path="url(#p2a9c0c10bf)" style="fill: none; stroke-dasharray: 1.85,0.8; stroke-dashoffset: 0; stroke: #000000; stroke-opacity: 0.15; stroke-width: 0.5"/>
     </g>
    </g>
    <g id="xtick_4">
     <g id="line2d_12">
      <path d="M 239.375242 107.108021 
L 239.375242 17.006292 
" clip-path="url(#p2a9c0c10bf)" style="fill: none; stroke-dasharray: 1.85,0.8; stroke-dashoffset: 0; stroke: #000000; stroke-opacity: 0.15; stroke-width: 0.5"/>
     </g>
    </g>
   </g>
   <g id="matplotlib.axis_4">
    <g id="ytick_9">
     <g id="line2d_13">
      <path d="M 154.758667 99.441247 
L 271.106458 99.441247 
" clip-path="url(#p2a9c0c10bf)" style="fill: none; stroke-dasharray: 1.85,0.8; stroke-dashoffset: 0; stroke: #000000; stroke-opacity: 0.15; stroke-width: 0.5"/>
     </g>
    </g>
    <g id="ytick_10">
     <g id="line2d_14">
      <path d="M 154.758667 76.961337 
L 271.106458 76.961337 
" clip-path="url(#p2a9c0c10bf)" style="fill: none; stroke-dasharray: 1.85,0.8; stroke-dashoffset: 0; stroke: #000000; stroke-opacity: 0.15; stroke-width: 0.5"/>
     </g>
    </g>
    <g id="ytick_11">
     <g id="line2d_15">
      <path d="M 154.758667 54.481426 
L 271.106458 54.481426 
" clip-path="url(#p2a9c0c10bf)" style="fill: none; stroke-dasharray: 1.85,0.8; stroke-dashoffset: 0; stroke: #000000; stroke-opacity: 0.15; stroke-width: 0.5"/>
     </g>
    </g>
    <g id="ytick_12">
     <g id="line2d_16">
      <path d="M 154.758667 32.001516 
L 271.106458 32.001516 
" clip-path="url(#p2a9c0c10bf)" style="fill: none; stroke-dasharray: 1.85,0.8; stroke-dashoffset: 0; stroke: #000000; stroke-opacity: 0.15; stroke-width: 0.5"/>
     </g>
    </g>
    <g id="ytick_13"/>
    <g id="ytick_14"/>
    <g id="ytick_15"/>
    <g id="ytick_16"/>
   </g>
   <g id="PathCollection_2">
    <path d="M 186.489883 73.338612 
C 186.959943 73.338612 187.410814 73.151855 187.743197 72.819473 
C 188.07558 72.48709 188.262336 72.036219 188.262336 71.566158 
C 188.262336 71.096098 188.07558 70.645227 187.743197 70.312844 
C 187.410814 69.980461 186.959943 69.793705 186.489883 69.793705 
C 186.019822 69.793705 185.568951 69.980461 185.236568 70.312844 
C 184.904186 70.645227 184.717429 71.096098 184.717429 71.566158 
C 184.717429 72.036219 184.904186 72.48709 185.236568 72.819473 
C 185.568951 73.151855 186.019822 73.338612 186.489883 73.338612 
z
" clip-path="url(#p2a9c0c10bf)" style="fill-opacity: 0.6; stroke: #000000; stroke-opacity: 0.6; stroke-width: 0.886227"/>
    <path d="M 239.375242 80.981782 
C 239.845303 80.981782 240.296174 80.795025 240.628557 80.462642 
C 240.960939 80.130259 241.147696 79.679388 241.147696 79.209328 
C 241.147696 78.739268 240.960939 78.288397 240.628557 77.956014 
C 240.296174 77.623631 239.845303 77.436874 239.375242 77.436874 
C 238.905182 77.436874 238.454311 77.623631 238.121928 77.956014 
C 237.789545 78.288397 237.602789 78.739268 237.602789 79.209328 
C 237.602789 79.679388 237.789545 80.130259 238.121928 80.462642 
C 238.454311 80.795025 238.905182 80.981782 239.375242 80.981782 
z
" clip-path="url(#p2a9c0c10bf)" style="fill-opacity: 0.6; stroke: #000000; stroke-opacity: 0.6; stroke-width: 0.886227"/>
    <path d="M 186.489883 58.501871 
C 186.959943 58.501871 187.410814 58.315114 187.743197 57.982732 
C 188.07558 57.650349 188.262336 57.199478 188.262336 56.729417 
C 188.262336 56.259357 188.07558 55.808486 187.743197 55.476103 
C 187.410814 55.143721 186.959943 54.956964 186.489883 54.956964 
C 186.019822 54.956964 185.568951 55.143721 185.236568 55.476103 
C 184.904186 55.808486 184.717429 56.259357 184.717429 56.729417 
C 184.717429 57.199478 184.904186 57.650349 185.236568 57.982732 
C 185.568951 58.315114 186.019822 58.501871 186.489883 58.501871 
z
" clip-path="url(#p2a9c0c10bf)" style="fill-opacity: 0.6; stroke: #000000; stroke-opacity: 0.6; stroke-width: 0.886227"/>
    <path d="M 239.375242 91.772139 
C 239.845303 91.772139 240.296174 91.585382 240.628557 91.252999 
C 240.960939 90.920616 241.147696 90.469745 241.147696 89.999685 
C 241.147696 89.529625 240.960939 89.078754 240.628557 88.746371 
C 240.296174 88.413988 239.845303 88.227231 239.375242 88.227231 
C 238.905182 88.227231 238.454311 88.413988 238.121928 88.746371 
C 237.789545 89.078754 237.602789 89.529625 237.602789 89.999685 
C 237.602789 90.469745 237.789545 90.920616 238.121928 91.252999 
C 238.454311 91.585382 238.905182 91.772139 239.375242 91.772139 
z
" clip-path="url(#p2a9c0c10bf)" style="fill-opacity: 0.6; stroke: #000000; stroke-opacity: 0.6; stroke-width: 0.886227"/>
    <path d="M 186.489883 89.07455 
C 186.959943 89.07455 187.410814 88.887793 187.743197 88.55541 
C 188.07558 88.223027 188.262336 87.772156 188.262336 87.302096 
C 188.262336 86.832035 188.07558 86.381164 187.743197 86.048782 
C 187.410814 85.716399 186.959943 85.529642 186.489883 85.529642 
C 186.019822 85.529642 185.568951 85.716399 185.236568 86.048782 
C 184.904186 86.381164 184.717429 86.832035 184.717429 87.302096 
C 184.717429 87.772156 184.904186 88.223027 185.236568 88.55541 
C 185.568951 88.887793 186.019822 89.07455 186.489883 89.07455 
z
" clip-path="url(#p2a9c0c10bf)" style="fill-opacity: 0.6; stroke: #000000; stroke-opacity: 0.6; stroke-width: 0.886227"/>
    <path d="M 186.489883 95.818523 
C 186.959943 95.818523 187.410814 95.631766 187.743197 95.299383 
C 188.07558 94.967 188.262336 94.516129 188.262336 94.046069 
C 188.262336 93.576009 188.07558 93.125138 187.743197 92.792755 
C 187.410814 92.460372 186.959943 92.273615 186.489883 92.273615 
C 186.019822 92.273615 185.568951 92.460372 185.236568 92.792755 
C 184.904186 93.125138 184.717429 93.576009 184.717429 94.046069 
C 184.717429 94.516129 184.904186 94.967 185.236568 95.299383 
C 185.568951 95.631766 186.019822 95.818523 186.489883 95.818523 
z
" clip-path="url(#p2a9c0c10bf)" style="fill-opacity: 0.6; stroke: #000000; stroke-opacity: 0.6; stroke-width: 0.886227"/>
    <path d="M 239.375242 92.671335 
C 239.845303 92.671335 240.296174 92.484578 240.628557 92.152196 
C 240.960939 91.819813 241.147696 91.368942 241.147696 90.898881 
C 241.147696 90.428821 240.960939 89.97795 240.628557 89.645567 
C 240.296174 89.313184 239.845303 89.126428 239.375242 89.126428 
C 238.905182 89.126428 238.454311 89.313184 238.121928 89.645567 
C 237.789545 89.97795 237.602789 90.428821 237.602789 90.898881 
C 237.602789 91.368942 237.789545 91.819813 238.121928 92.152196 
C 238.454311 92.484578 238.905182 92.671335 239.375242 92.671335 
z
" clip-path="url(#p2a9c0c10bf)" style="fill-opacity: 0.6; stroke: #000000; stroke-opacity: 0.6; stroke-width: 0.886227"/>
    <path d="M 186.489883 95.818523 
C 186.959943 95.818523 187.410814 95.631766 187.743197 95.299383 
C 188.07558 94.967 188.262336 94.516129 188.262336 94.046069 
C 188.262336 93.576009 188.07558 93.125138 187.743197 92.792755 
C 187.410814 92.460372 186.959943 92.273615 186.489883 92.273615 
C 186.019822 92.273615 185.568951 92.460372 185.236568 92.792755 
C 184.904186 93.125138 184.717429 93.576009 184.717429 94.046069 
C 184.717429 94.516129 184.904186 94.967 185.236568 95.299383 
C 185.568951 95.631766 186.019822 95.818523 186.489883 95.818523 
z
" clip-path="url(#p2a9c0c10bf)" style="fill-opacity: 0.6; stroke: #000000; stroke-opacity: 0.6; stroke-width: 0.886227"/>
    <path d="M 239.375242 85.927362 
C 239.845303 85.927362 240.296174 85.740605 240.628557 85.408222 
C 240.960939 85.07584 241.147696 84.624969 241.147696 84.154908 
C 241.147696 83.684848 240.960939 83.233977 240.628557 82.901594 
C 240.296174 82.569211 239.845303 82.382454 239.375242 82.382454 
C 238.905182 82.382454 238.454311 82.569211 238.121928 82.901594 
C 237.789545 83.233977 237.602789 83.684848 237.602789 84.154908 
C 237.602789 84.624969 237.789545 85.07584 238.121928 85.408222 
C 238.454311 85.740605 238.905182 85.927362 239.375242 85.927362 
z
" clip-path="url(#p2a9c0c10bf)" style="fill-opacity: 0.6; stroke: #000000; stroke-opacity: 0.6; stroke-width: 0.886227"/>
    <path d="M 239.375242 66.145041 
C 239.845303 66.145041 240.296174 65.958284 240.628557 65.625901 
C 240.960939 65.293518 241.147696 64.842647 241.147696 64.372587 
C 241.147696 63.902527 240.960939 63.451656 240.628557 63.119273 
C 240.296174 62.78689 239.845303 62.600133 239.375242 62.600133 
C 238.905182 62.600133 238.454311 62.78689 238.121928 63.119273 
C 237.789545 63.451656 237.602789 63.902527 237.602789 64.372587 
C 237.602789 64.842647 237.789545 65.293518 238.121928 65.625901 
C 238.454311 65.958284 238.905182 66.145041 239.375242 66.145041 
z
" clip-path="url(#p2a9c0c10bf)" style="fill-opacity: 0.6; stroke: #000000; stroke-opacity: 0.6; stroke-width: 0.886227"/>
    <path d="M 239.375242 72.439416 
C 239.845303 72.439416 240.296174 72.252659 240.628557 71.920276 
C 240.960939 71.587893 241.147696 71.137022 241.147696 70.666962 
C 241.147696 70.196902 240.960939 69.746031 240.628557 69.413648 
C 240.296174 69.081265 239.845303 68.894508 239.375242 68.894508 
C 238.905182 68.894508 238.454311 69.081265 238.121928 69.413648 
C 237.789545 69.746031 237.602789 70.196902 237.602789 70.666962 
C 237.602789 71.137022 237.789545 71.587893 238.121928 71.920276 
C 238.454311 72.252659 238.905182 72.439416 239.375242 72.439416 
z
" clip-path="url(#p2a9c0c10bf)" style="fill-opacity: 0.6; stroke: #000000; stroke-opacity: 0.6; stroke-width: 0.886227"/>
    <path d="M 186.489883 81.43138 
C 186.959943 81.43138 187.410814 81.244623 187.743197 80.91224 
C 188.07558 80.579857 188.262336 80.128986 188.262336 79.658926 
C 188.262336 79.188866 188.07558 78.737995 187.743197 78.405612 
C 187.410814 78.073229 186.959943 77.886472 186.489883 77.886472 
C 186.019822 77.886472 185.568951 78.073229 185.236568 78.405612 
C 184.904186 78.737995 184.717429 79.188866 184.717429 79.658926 
C 184.717429 80.128986 184.904186 80.579857 185.236568 80.91224 
C 185.568951 81.244623 186.019822 81.43138 186.489883 81.43138 
z
" clip-path="url(#p2a9c0c10bf)" style="fill-opacity: 0.6; stroke: #000000; stroke-opacity: 0.6; stroke-width: 0.886227"/>
    <path d="M 186.489883 97.167317 
C 186.959943 97.167317 187.410814 96.98056 187.743197 96.648178 
C 188.07558 96.315795 188.262336 95.864924 188.262336 95.394863 
C 188.262336 94.924803 188.07558 94.473932 187.743197 94.141549 
C 187.410814 93.809167 186.959943 93.62241 186.489883 93.62241 
C 186.019822 93.62241 185.568951 93.809167 185.236568 94.141549 
C 184.904186 94.473932 184.717429 94.924803 184.717429 95.394863 
C 184.717429 95.864924 184.904186 96.315795 185.236568 96.648178 
C 185.568951 96.98056 186.019822 97.167317 186.489883 97.167317 
z
" clip-path="url(#p2a9c0c10bf)" style="fill-opacity: 0.6; stroke: #000000; stroke-opacity: 0.6; stroke-width: 0.886227"/>
    <path d="M 239.375242 95.368924 
C 239.845303 95.368924 240.296174 95.182168 240.628557 94.849785 
C 240.960939 94.517402 241.147696 94.066531 241.147696 93.596471 
C 241.147696 93.12641 240.960939 92.675539 240.628557 92.343157 
C 240.296174 92.010774 239.845303 91.824017 239.375242 91.824017 
C 238.905182 91.824017 238.454311 92.010774 238.121928 92.343157 
C 237.789545 92.675539 237.602789 93.12641 237.602789 93.596471 
C 237.602789 94.066531 237.789545 94.517402 238.121928 94.849785 
C 238.454311 95.182168 238.905182 95.368924 239.375242 95.368924 
z
" clip-path="url(#p2a9c0c10bf)" style="fill-opacity: 0.6; stroke: #000000; stroke-opacity: 0.6; stroke-width: 0.886227"/>
    <path d="M 186.489883 95.818523 
C 186.959943 95.818523 187.410814 95.631766 187.743197 95.299383 
C 188.07558 94.967 188.262336 94.516129 188.262336 94.046069 
C 188.262336 93.576009 188.07558 93.125138 187.743197 92.792755 
C 187.410814 92.460372 186.959943 92.273615 186.489883 92.273615 
C 186.019822 92.273615 185.568951 92.460372 185.236568 92.792755 
C 184.904186 93.125138 184.717429 93.576009 184.717429 94.046069 
C 184.717429 94.516129 184.904186 94.967 185.236568 95.299383 
C 185.568951 95.631766 186.019822 95.818523 186.489883 95.818523 
z
" clip-path="url(#p2a9c0c10bf)" style="fill-opacity: 0.6; stroke: #000000; stroke-opacity: 0.6; stroke-width: 0.886227"/>
    <path d="M 239.375242 94.469728 
C 239.845303 94.469728 240.296174 94.282971 240.628557 93.950588 
C 240.960939 93.618206 241.147696 93.167334 241.147696 92.697274 
C 241.147696 92.227214 240.960939 91.776343 240.628557 91.44396 
C 240.296174 91.111577 239.845303 90.92482 239.375242 90.92482 
C 238.905182 90.92482 238.454311 91.111577 238.121928 91.44396 
C 237.789545 91.776343 237.602789 92.227214 237.602789 92.697274 
C 237.602789 93.167334 237.789545 93.618206 238.121928 93.950588 
C 238.454311 94.282971 238.905182 94.469728 239.375242 94.469728 
z
" clip-path="url(#p2a9c0c10bf)" style="fill-opacity: 0.6; stroke: #000000; stroke-opacity: 0.6; stroke-width: 0.886227"/>
    <path d="M 186.489883 89.07455 
C 186.959943 89.07455 187.410814 88.887793 187.743197 88.55541 
C 188.07558 88.223027 188.262336 87.772156 188.262336 87.302096 
C 188.262336 86.832035 188.07558 86.381164 187.743197 86.048782 
C 187.410814 85.716399 186.959943 85.529642 186.489883 85.529642 
C 186.019822 85.529642 185.568951 85.716399 185.236568 86.048782 
C 184.904186 86.381164 184.717429 86.832035 184.717429 87.302096 
C 184.717429 87.772156 184.904186 88.223027 185.236568 88.55541 
C 185.568951 88.887793 186.019822 89.07455 186.489883 89.07455 
z
" clip-path="url(#p2a9c0c10bf)" style="fill-opacity: 0.6; stroke: #000000; stroke-opacity: 0.6; stroke-width: 0.886227"/>
    <path d="M 239.375242 89.973746 
C 239.845303 89.973746 240.296174 89.786989 240.628557 89.454606 
C 240.960939 89.122223 241.147696 88.671352 241.147696 88.201292 
C 241.147696 87.731232 240.960939 87.280361 240.628557 86.947978 
C 240.296174 86.615595 239.845303 86.428838 239.375242 86.428838 
C 238.905182 86.428838 238.454311 86.615595 238.121928 86.947978 
C 237.789545 87.280361 237.602789 87.731232 237.602789 88.201292 
C 237.602789 88.671352 237.789545 89.122223 238.121928 89.454606 
C 238.454311 89.786989 238.905182 89.973746 239.375242 89.973746 
z
" clip-path="url(#p2a9c0c10bf)" style="fill-opacity: 0.6; stroke: #000000; stroke-opacity: 0.6; stroke-width: 0.886227"/>
    <path d="M 186.489883 96.268121 
C 186.959943 96.268121 187.410814 96.081364 187.743197 95.748981 
C 188.07558 95.416598 188.262336 94.965727 188.262336 94.495667 
C 188.262336 94.025607 188.07558 93.574736 187.743197 93.242353 
C 187.410814 92.90997 186.959943 92.723213 186.489883 92.723213 
C 186.019822 92.723213 185.568951 92.90997 185.236568 93.242353 
C 184.904186 93.574736 184.717429 94.025607 184.717429 94.495667 
C 184.717429 94.965727 184.904186 95.416598 185.236568 95.748981 
C 185.568951 96.081364 186.019822 96.268121 186.489883 96.268121 
z
" clip-path="url(#p2a9c0c10bf)" style="fill-opacity: 0.6; stroke: #000000; stroke-opacity: 0.6; stroke-width: 0.886227"/>
    <path d="M 239.375242 95.818523 
C 239.845303 95.818523 240.296174 95.631766 240.628557 95.299383 
C 240.960939 94.967 241.147696 94.516129 241.147696 94.046069 
C 241.147696 93.576009 240.960939 93.125138 240.628557 92.792755 
C 240.296174 92.460372 239.845303 92.273615 239.375242 92.273615 
C 238.905182 92.273615 238.454311 92.460372 238.121928 92.792755 
C 237.789545 93.125138 237.602789 93.576009 237.602789 94.046069 
C 237.602789 94.516129 237.789545 94.967 238.121928 95.299383 
C 238.454311 95.631766 238.905182 95.818523 239.375242 95.818523 
z
" clip-path="url(#p2a9c0c10bf)" style="fill-opacity: 0.6; stroke: #000000; stroke-opacity: 0.6; stroke-width: 0.886227"/>
   </g>
   <g id="PathCollection_3">
    <defs>
     <path id="m7e985011b2" d="M 0 1.772454 
C 0.47006 1.772454 0.920931 1.585697 1.253314 1.253314 
C 1.585697 0.920931 1.772454 0.47006 1.772454 0 
C 1.772454 -0.47006 1.585697 -0.920931 1.253314 -1.253314 
C 0.920931 -1.585697 0.47006 -1.772454 0 -1.772454 
C -0.47006 -1.772454 -0.920931 -1.585697 -1.253314 -1.253314 
C -1.585697 -0.920931 -1.772454 -0.47006 -1.772454 0 
C -1.772454 0.47006 -1.585697 0.920931 -1.253314 1.253314 
C -0.920931 1.585697 -0.47006 1.772454 0 1.772454 
z
" style="stroke: #333333; stroke-opacity: 0; stroke-width: 0.886227"/>
    </defs>
    <g clip-path="url(#p2a9c0c10bf)">
     <use xlink:href="#m7e985011b2" x="186.489883" y="56.729417" style="fill: #333333; fill-opacity: 0; stroke: #333333; stroke-opacity: 0; stroke-width: 0.886227"/>
    </g>
   </g>
   <g id="LineCollection_5">
    <path d="M 186.489883 81.569719 
L 186.489883 71.566158 
" clip-path="url(#p2a9c0c10bf)" style="fill: none; stroke: #333333; stroke-width: 0.886227"/>
    <path d="M 186.489883 94.046069 
L 186.489883 95.394863 
" clip-path="url(#p2a9c0c10bf)" style="fill: none; stroke: #333333; stroke-width: 0.886227"/>
   </g>
   <g id="PolyCollection_3">
    <defs>
     <path id="mbccb821ed9" d="M 166.657873 -134.430281 
L 166.657873 -134.430281 
L 206.321893 -134.430281 
L 206.321893 -121.953931 
L 166.657873 -121.953931 
z
" style="stroke: #333333; stroke-width: 0.886227"/>
    </defs>
    <g clip-path="url(#p2a9c0c10bf)">
     <use xlink:href="#mbccb821ed9" x="0" y="216" style="fill: #435b97; fill-opacity: 0.6; stroke: #333333; stroke-width: 0.886227"/>
    </g>
   </g>
   <g id="LineCollection_6">
    <path d="M 166.657873 90.674082 
L 206.321893 90.674082 
" clip-path="url(#p2a9c0c10bf)" style="fill: none; stroke: #333333; stroke-width: 1.772454"/>
   </g>
   <g id="LineCollection_7">
    <path d="M 239.375242 80.445723 
L 239.375242 64.372587 
" clip-path="url(#p2a9c0c10bf)" style="fill: none; stroke: #333333; stroke-width: 0.886227"/>
    <path d="M 239.375242 92.247676 
L 239.375242 94.046069 
" clip-path="url(#p2a9c0c10bf)" style="fill: none; stroke: #333333; stroke-width: 0.886227"/>
   </g>
   <g id="PolyCollection_4">
    <defs>
     <path id="m602809a916" d="M 219.543232 -135.554277 
L 219.543232 -135.554277 
L 259.207252 -135.554277 
L 259.207252 -123.752324 
L 219.543232 -123.752324 
z
" style="stroke: #333333; stroke-width: 0.886227"/>
    </defs>
    <g clip-path="url(#p2a9c0c10bf)">
     <use xlink:href="#m602809a916" x="0" y="216" style="fill: #435b97; fill-opacity: 0.6; stroke: #333333; stroke-width: 0.886227"/>
    </g>
   </g>
   <g id="LineCollection_8">
    <path d="M 219.543232 89.100489 
L 259.207252 89.100489 
" clip-path="url(#p2a9c0c10bf)" style="fill: none; stroke: #333333; stroke-width: 1.772454"/>
   </g>
   <g id="text_7">
    <g clip-path="url(#p2a9c0c10bf)">
     <text style="font: 8px 'Helvetica', 'DejaVu Sans', 'Avant Garde', 'Computer Modern Sans serif', 'Arial', sans-serif; text-anchor: middle" x="186.489883" y="101.566792" transform="rotate(-0 186.489883 101.566792)">n = 10</text>
    </g>
   </g>
   <g id="text_8">
    <g clip-path="url(#p2a9c0c10bf)">
     <text style="font: 8px 'Helvetica', 'DejaVu Sans', 'Avant Garde', 'Computer Modern Sans serif', 'Arial', sans-serif; text-anchor: middle" x="239.375242" y="101.566792" transform="rotate(-0 239.375242 101.566792)">n = 10</text>
    </g>
   </g>
  </g>
  <g id="axes_3">
   <g id="patch_4">
    <path d="M 35.530875 200.08975 
L 151.878667 200.08975 
L 151.878667 109.988021 
L 35.530875 109.988021 
z
" style="fill: #ffffff"/>
   </g>
   <g id="matplotlib.axis_5">
    <g id="xtick_5">
     <g id="line2d_17">
      <path d="M 67.262091 200.08975 
L 67.262091 109.988021 
" clip-path="url(#p5a7a6b6ca3)" style="fill: none; stroke-dasharray: 1.85,0.8; stroke-dashoffset: 0; stroke: #000000; stroke-opacity: 0.15; stroke-width: 0.5"/>
     </g>
     <g id="line2d_18">
      <path d="M 67.262091 200.08975 
" style="fill: none; stroke: #333333; stroke-width: 1.5; stroke-linecap: square"/>
      <defs>
       <path id="mede9c82655" d="M 0 0 
L 0 2.75 
" style="stroke: #333333"/>
      </defs>
      <g>
       <use xlink:href="#mede9c82655" x="67.262091" y="200.08975" style="fill: #333333; stroke: #333333"/>
      </g>
     </g>
     <g id="text_9">
      <text style="fill: #4d4d4d; font: 8.8px 'Helvetica', 'DejaVu Sans', 'Avant Garde', 'Computer Modern Sans serif', 'Arial', sans-serif; text-anchor: middle" x="67.262091" y="211.173" transform="rotate(-0 67.262091 211.173)">Flight</text>
     </g>
    </g>
    <g id="xtick_6">
     <g id="line2d_19">
      <path d="M 120.147451 200.08975 
L 120.147451 109.988021 
" clip-path="url(#p5a7a6b6ca3)" style="fill: none; stroke-dasharray: 1.85,0.8; stroke-dashoffset: 0; stroke: #000000; stroke-opacity: 0.15; stroke-width: 0.5"/>
     </g>
     <g id="line2d_20">
      <path d="M 120.147451 200.08975 
" style="fill: none; stroke: #333333; stroke-width: 1.5; stroke-linecap: square"/>
      <g>
       <use xlink:href="#mede9c82655" x="120.147451" y="200.08975" style="fill: #333333; stroke: #333333"/>
      </g>
     </g>
     <g id="text_10">
      <text style="fill: #4d4d4d; font: 8.8px 'Helvetica', 'DejaVu Sans', 'Avant Garde', 'Computer Modern Sans serif', 'Arial', sans-serif; text-anchor: middle" x="120.147451" y="211.152375" transform="rotate(-0 120.147451 211.152375)">Ground</text>
     </g>
    </g>
   </g>
   <g id="matplotlib.axis_6">
    <g id="ytick_17">
     <g id="line2d_21">
      <path d="M 35.530875 191.069557 
L 151.878667 191.069557 
" clip-path="url(#p5a7a6b6ca3)" style="fill: none; stroke-dasharray: 1.85,0.8; stroke-dashoffset: 0; stroke: #000000; stroke-opacity: 0.15; stroke-width: 0.5"/>
     </g>
     <g id="line2d_22">
      <path d="M 35.530875 191.069557 
" style="fill: none; stroke: #333333; stroke-width: 1.5; stroke-linecap: square"/>
      <g>
       <use xlink:href="#m95a4a9755c" x="35.530875" y="191.069557" style="fill: #333333; stroke: #333333"/>
      </g>
     </g>
     <g id="text_11">
      <text style="fill: #4d4d4d; font: 8.8px 'Helvetica', 'DejaVu Sans', 'Avant Garde', 'Computer Modern Sans serif', 'Arial', sans-serif; text-anchor: end" x="30.780875" y="194.22587" transform="rotate(-0 30.780875 194.22587)">0</text>
     </g>
    </g>
    <g id="ytick_18">
     <g id="line2d_23">
      <path d="M 35.530875 173.490902 
L 151.878667 173.490902 
" clip-path="url(#p5a7a6b6ca3)" style="fill: none; stroke-dasharray: 1.85,0.8; stroke-dashoffset: 0; stroke: #000000; stroke-opacity: 0.15; stroke-width: 0.5"/>
     </g>
     <g id="line2d_24">
      <path d="M 35.530875 173.490902 
" style="fill: none; stroke: #333333; stroke-width: 1.5; stroke-linecap: square"/>
      <g>
       <use xlink:href="#m95a4a9755c" x="35.530875" y="173.490902" style="fill: #333333; stroke: #333333"/>
      </g>
     </g>
     <g id="text_12">
      <text style="fill: #4d4d4d; font: 8.8px 'Helvetica', 'DejaVu Sans', 'Avant Garde', 'Computer Modern Sans serif', 'Arial', sans-serif; text-anchor: end" x="30.780875" y="176.647214" transform="rotate(-0 30.780875 176.647214)">1</text>
     </g>
    </g>
    <g id="ytick_19">
     <g id="line2d_25">
      <path d="M 35.530875 155.912247 
L 151.878667 155.912247 
" clip-path="url(#p5a7a6b6ca3)" style="fill: none; stroke-dasharray: 1.85,0.8; stroke-dashoffset: 0; stroke: #000000; stroke-opacity: 0.15; stroke-width: 0.5"/>
     </g>
     <g id="line2d_26">
      <path d="M 35.530875 155.912247 
" style="fill: none; stroke: #333333; stroke-width: 1.5; stroke-linecap: square"/>
      <g>
       <use xlink:href="#m95a4a9755c" x="35.530875" y="155.912247" style="fill: #333333; stroke: #333333"/>
      </g>
     </g>
     <g id="text_13">
      <text style="fill: #4d4d4d; font: 8.8px 'Helvetica', 'DejaVu Sans', 'Avant Garde', 'Computer Modern Sans serif', 'Arial', sans-serif; text-anchor: end" x="30.780875" y="159.068559" transform="rotate(-0 30.780875 159.068559)">2</text>
     </g>
    </g>
    <g id="ytick_20">
     <g id="line2d_27">
      <path d="M 35.530875 138.333592 
L 151.878667 138.333592 
" clip-path="url(#p5a7a6b6ca3)" style="fill: none; stroke-dasharray: 1.85,0.8; stroke-dashoffset: 0; stroke: #000000; stroke-opacity: 0.15; stroke-width: 0.5"/>
     </g>
     <g id="line2d_28">
      <path d="M 35.530875 138.333592 
" style="fill: none; stroke: #333333; stroke-width: 1.5; stroke-linecap: square"/>
      <g>
       <use xlink:href="#m95a4a9755c" x="35.530875" y="138.333592" style="fill: #333333; stroke: #333333"/>
      </g>
     </g>
     <g id="text_14">
      <text style="fill: #4d4d4d; font: 8.8px 'Helvetica', 'DejaVu Sans', 'Avant Garde', 'Computer Modern Sans serif', 'Arial', sans-serif; text-anchor: end" x="30.780875" y="141.489904" transform="rotate(-0 30.780875 141.489904)">3</text>
     </g>
    </g>
    <g id="ytick_21">
     <g id="line2d_29">
      <path d="M 35.530875 120.754937 
L 151.878667 120.754937 
" clip-path="url(#p5a7a6b6ca3)" style="fill: none; stroke-dasharray: 1.85,0.8; stroke-dashoffset: 0; stroke: #000000; stroke-opacity: 0.15; stroke-width: 0.5"/>
     </g>
     <g id="line2d_30">
      <path d="M 35.530875 120.754937 
" style="fill: none; stroke: #333333; stroke-width: 1.5; stroke-linecap: square"/>
      <g>
       <use xlink:href="#m95a4a9755c" x="35.530875" y="120.754937" style="fill: #333333; stroke: #333333"/>
      </g>
     </g>
     <g id="text_15">
      <text style="fill: #4d4d4d; font: 8.8px 'Helvetica', 'DejaVu Sans', 'Avant Garde', 'Computer Modern Sans serif', 'Arial', sans-serif; text-anchor: end" x="30.780875" y="123.911249" transform="rotate(-0 30.780875 123.911249)">4</text>
     </g>
    </g>
    <g id="ytick_22"/>
    <g id="ytick_23"/>
    <g id="ytick_24"/>
    <g id="ytick_25"/>
    <g id="ytick_26"/>
    <g id="ytick_27"/>
   </g>
   <g id="PathCollection_4">
    <path d="M 67.262091 184.755469 
C 67.732151 184.755469 68.183022 184.568712 68.515405 184.23633 
C 68.847788 183.903947 69.034545 183.453076 69.034545 182.983015 
C 69.034545 182.512955 68.847788 182.062084 68.515405 181.729701 
C 68.183022 181.397318 67.732151 181.210562 67.262091 181.210562 
C 66.792031 181.210562 66.34116 181.397318 66.008777 181.729701 
C 65.676394 182.062084 65.489637 182.512955 65.489637 182.983015 
C 65.489637 183.453076 65.676394 183.903947 66.008777 184.23633 
C 66.34116 184.568712 66.792031 184.755469 67.262091 184.755469 
z
" clip-path="url(#p5a7a6b6ca3)" style="fill-opacity: 0.6; stroke: #000000; stroke-opacity: 0.6; stroke-width: 0.886227"/>
    <path d="M 120.147451 187.08026 
C 120.617511 187.08026 121.068382 186.893503 121.400765 186.56112 
C 121.733148 186.228738 121.919905 185.777866 121.919905 185.307806 
C 121.919905 184.837746 121.733148 184.386875 121.400765 184.054492 
C 121.068382 183.722109 120.617511 183.535352 120.147451 183.535352 
C 119.677391 183.535352 119.226519 183.722109 118.894137 184.054492 
C 118.561754 184.386875 118.374997 184.837746 118.374997 185.307806 
C 118.374997 185.777866 118.561754 186.228738 118.894137 186.56112 
C 119.226519 186.893503 119.677391 187.08026 120.147451 187.08026 
z
" clip-path="url(#p5a7a6b6ca3)" style="fill-opacity: 0.6; stroke: #000000; stroke-opacity: 0.6; stroke-width: 0.886227"/>
    <path d="M 67.262091 186.223071 
C 67.732151 186.223071 68.183022 186.036314 68.515405 185.703931 
C 68.847788 185.371548 69.034545 184.920677 69.034545 184.450617 
C 69.034545 183.980556 68.847788 183.529685 68.515405 183.197303 
C 68.183022 182.86492 67.732151 182.678163 67.262091 182.678163 
C 66.792031 182.678163 66.34116 182.86492 66.008777 183.197303 
C 65.676394 183.529685 65.489637 183.980556 65.489637 184.450617 
C 65.489637 184.920677 65.676394 185.371548 66.008777 185.703931 
C 66.34116 186.036314 66.792031 186.223071 67.262091 186.223071 
z
" clip-path="url(#p5a7a6b6ca3)" style="fill-opacity: 0.6; stroke: #000000; stroke-opacity: 0.6; stroke-width: 0.886227"/>
    <path d="M 120.147451 188.198027 
C 120.617511 188.198027 121.068382 188.01127 121.400765 187.678888 
C 121.733148 187.346505 121.919905 186.895634 121.919905 186.425573 
C 121.919905 185.955513 121.733148 185.504642 121.400765 185.172259 
C 121.068382 184.839876 120.617511 184.65312 120.147451 184.65312 
C 119.677391 184.65312 119.226519 184.839876 118.894137 185.172259 
C 118.561754 185.504642 118.374997 185.955513 118.374997 186.425573 
C 118.374997 186.895634 118.561754 187.346505 118.894137 187.678888 
C 119.226519 188.01127 119.677391 188.198027 120.147451 188.198027 
z
" clip-path="url(#p5a7a6b6ca3)" style="fill-opacity: 0.6; stroke: #000000; stroke-opacity: 0.6; stroke-width: 0.886227"/>
    <path d="M 67.262091 187.200283 
C 67.732151 187.200283 68.183022 187.013526 68.515405 186.681143 
C 68.847788 186.34876 69.034545 185.897889 69.034545 185.427829 
C 69.034545 184.957769 68.847788 184.506898 68.515405 184.174515 
C 68.183022 183.842132 67.732151 183.655375 67.262091 183.655375 
C 66.792031 183.655375 66.34116 183.842132 66.008777 184.174515 
C 65.676394 184.506898 65.489637 184.957769 65.489637 185.427829 
C 65.489637 185.897889 65.676394 186.34876 66.008777 186.681143 
C 66.34116 187.013526 66.792031 187.200283 67.262091 187.200283 
z
" clip-path="url(#p5a7a6b6ca3)" style="fill-opacity: 0.6; stroke: #000000; stroke-opacity: 0.6; stroke-width: 0.886227"/>
    <path d="M 120.147451 187.274414 
C 120.617511 187.274414 121.068382 187.087657 121.400765 186.755274 
C 121.733148 186.422892 121.919905 185.97202 121.919905 185.50196 
C 121.919905 185.0319 121.733148 184.581029 121.400765 184.248646 
C 121.068382 183.916263 120.617511 183.729506 120.147451 183.729506 
C 119.677391 183.729506 119.226519 183.916263 118.894137 184.248646 
C 118.561754 184.581029 118.374997 185.0319 118.374997 185.50196 
C 118.374997 185.97202 118.561754 186.422892 118.894137 186.755274 
C 119.226519 187.087657 119.677391 187.274414 120.147451 187.274414 
z
" clip-path="url(#p5a7a6b6ca3)" style="fill-opacity: 0.6; stroke: #000000; stroke-opacity: 0.6; stroke-width: 0.886227"/>
    <path d="M 67.262091 185.658332 
C 67.732151 185.658332 68.183022 185.471575 68.515405 185.139193 
C 68.847788 184.80681 69.034545 184.355939 69.034545 183.885878 
C 69.034545 183.415818 68.847788 182.964947 68.515405 182.632564 
C 68.183022 182.300182 67.732151 182.113425 67.262091 182.113425 
C 66.792031 182.113425 66.34116 182.300182 66.008777 182.632564 
C 65.676394 182.964947 65.489637 183.415818 65.489637 183.885878 
C 65.489637 184.355939 65.676394 184.80681 66.008777 185.139193 
C 66.34116 185.471575 66.792031 185.658332 67.262091 185.658332 
z
" clip-path="url(#p5a7a6b6ca3)" style="fill-opacity: 0.6; stroke: #000000; stroke-opacity: 0.6; stroke-width: 0.886227"/>
    <path d="M 120.147451 188.880227 
C 120.617511 188.880227 121.068382 188.693471 121.400765 188.361088 
C 121.733148 188.028705 121.919905 187.577834 121.919905 187.107774 
C 121.919905 186.637713 121.733148 186.186842 121.400765 185.854459 
C 121.068382 185.522077 120.617511 185.33532 120.147451 185.33532 
C 119.677391 185.33532 119.226519 185.522077 118.894137 185.854459 
C 118.561754 186.186842 118.374997 186.637713 118.374997 187.107774 
C 118.374997 187.577834 118.561754 188.028705 118.894137 188.361088 
C 119.226519 188.693471 119.677391 188.880227 120.147451 188.880227 
z
" clip-path="url(#p5a7a6b6ca3)" style="fill-opacity: 0.6; stroke: #000000; stroke-opacity: 0.6; stroke-width: 0.886227"/>
    <path d="M 67.262091 186.37702 
C 67.732151 186.37702 68.183022 186.190263 68.515405 185.85788 
C 68.847788 185.525497 69.034545 185.074626 69.034545 184.604566 
C 69.034545 184.134506 68.847788 183.683635 68.515405 183.351252 
C 68.183022 183.018869 67.732151 182.832112 67.262091 182.832112 
C 66.792031 182.832112 66.34116 183.018869 66.008777 183.351252 
C 65.676394 183.683635 65.489637 184.134506 65.489637 184.604566 
C 65.489637 185.074626 65.676394 185.525497 66.008777 185.85788 
C 66.34116 186.190263 66.792031 186.37702 67.262091 186.37702 
z
" clip-path="url(#p5a7a6b6ca3)" style="fill-opacity: 0.6; stroke: #000000; stroke-opacity: 0.6; stroke-width: 0.886227"/>
    <path d="M 120.147451 186.833421 
C 120.617511 186.833421 121.068382 186.646664 121.400765 186.314281 
C 121.733148 185.981898 121.919905 185.531027 121.919905 185.060967 
C 121.919905 184.590907 121.733148 184.140036 121.400765 183.807653 
C 121.068382 183.47527 120.617511 183.288513 120.147451 183.288513 
C 119.677391 183.288513 119.226519 183.47527 118.894137 183.807653 
C 118.561754 184.140036 118.374997 184.590907 118.374997 185.060967 
C 118.374997 185.531027 118.561754 185.981898 118.894137 186.314281 
C 119.226519 186.646664 119.677391 186.833421 120.147451 186.833421 
z
" clip-path="url(#p5a7a6b6ca3)" style="fill-opacity: 0.6; stroke: #000000; stroke-opacity: 0.6; stroke-width: 0.886227"/>
    <path d="M 120.147451 186.065793 
C 120.617511 186.065793 121.068382 185.879036 121.400765 185.546653 
C 121.733148 185.21427 121.919905 184.763399 121.919905 184.293339 
C 121.919905 183.823279 121.733148 183.372408 121.400765 183.040025 
C 121.068382 182.707642 120.617511 182.520885 120.147451 182.520885 
C 119.677391 182.520885 119.226519 182.707642 118.894137 183.040025 
C 118.561754 183.372408 118.374997 183.823279 118.374997 184.293339 
C 118.374997 184.763399 118.561754 185.21427 118.894137 185.546653 
C 119.226519 185.879036 119.677391 186.065793 120.147451 186.065793 
z
" clip-path="url(#p5a7a6b6ca3)" style="fill-opacity: 0.6; stroke: #000000; stroke-opacity: 0.6; stroke-width: 0.886227"/>
    <path d="M 120.147451 187.766672 
C 120.617511 187.766672 121.068382 187.579915 121.400765 187.247532 
C 121.733148 186.915149 121.919905 186.464278 121.919905 185.994218 
C 121.919905 185.524157 121.733148 185.073286 121.400765 184.740904 
C 121.068382 184.408521 120.617511 184.221764 120.147451 184.221764 
C 119.677391 184.221764 119.226519 184.408521 118.894137 184.740904 
C 118.561754 185.073286 118.374997 185.524157 118.374997 185.994218 
C 118.374997 186.464278 118.561754 186.915149 118.894137 187.247532 
C 119.226519 187.579915 119.677391 187.766672 120.147451 187.766672 
z
" clip-path="url(#p5a7a6b6ca3)" style="fill-opacity: 0.6; stroke: #000000; stroke-opacity: 0.6; stroke-width: 0.886227"/>
    <path d="M 67.262091 165.905301 
C 67.732151 165.905301 68.183022 165.718544 68.515405 165.386161 
C 68.847788 165.053779 69.034545 164.602908 69.034545 164.132847 
C 69.034545 163.662787 68.847788 163.211916 68.515405 162.879533 
C 68.183022 162.54715 67.732151 162.360393 67.262091 162.360393 
C 66.792031 162.360393 66.34116 162.54715 66.008777 162.879533 
C 65.676394 163.211916 65.489637 163.662787 65.489637 164.132847 
C 65.489637 164.602908 65.676394 165.053779 66.008777 165.386161 
C 66.34116 165.718544 66.792031 165.905301 67.262091 165.905301 
z
" clip-path="url(#p5a7a6b6ca3)" style="fill-opacity: 0.6; stroke: #000000; stroke-opacity: 0.6; stroke-width: 0.886227"/>
    <path d="M 67.262091 174.716065 
C 67.732151 174.716065 68.183022 174.529308 68.515405 174.196925 
C 68.847788 173.864542 69.034545 173.413671 69.034545 172.943611 
C 69.034545 172.473551 68.847788 172.02268 68.515405 171.690297 
C 68.183022 171.357914 67.732151 171.171157 67.262091 171.171157 
C 66.792031 171.171157 66.34116 171.357914 66.008777 171.690297 
C 65.676394 172.02268 65.489637 172.473551 65.489637 172.943611 
C 65.489637 173.413671 65.676394 173.864542 66.008777 174.196925 
C 66.34116 174.529308 66.792031 174.716065 67.262091 174.716065 
z
" clip-path="url(#p5a7a6b6ca3)" style="fill-opacity: 0.6; stroke: #000000; stroke-opacity: 0.6; stroke-width: 0.886227"/>
    <path d="M 120.147451 168.400557 
C 120.617511 168.400557 121.068382 168.2138 121.400765 167.881417 
C 121.733148 167.549035 121.919905 167.098163 121.919905 166.628103 
C 121.919905 166.158043 121.733148 165.707172 121.400765 165.374789 
C 121.068382 165.042406 120.617511 164.855649 120.147451 164.855649 
C 119.677391 164.855649 119.226519 165.042406 118.894137 165.374789 
C 118.561754 165.707172 118.374997 166.158043 118.374997 166.628103 
C 118.374997 167.098163 118.561754 167.549035 118.894137 167.881417 
C 119.226519 168.2138 119.677391 168.400557 120.147451 168.400557 
z
" clip-path="url(#p5a7a6b6ca3)" style="fill-opacity: 0.6; stroke: #000000; stroke-opacity: 0.6; stroke-width: 0.886227"/>
    <path d="M 67.262091 176.587132 
C 67.732151 176.587132 68.183022 176.400375 68.515405 176.067992 
C 68.847788 175.735609 69.034545 175.284738 69.034545 174.814678 
C 69.034545 174.344618 68.847788 173.893747 68.515405 173.561364 
C 68.183022 173.228981 67.732151 173.042224 67.262091 173.042224 
C 66.792031 173.042224 66.34116 173.228981 66.008777 173.561364 
C 65.676394 173.893747 65.489637 174.344618 65.489637 174.814678 
C 65.489637 175.284738 65.676394 175.735609 66.008777 176.067992 
C 66.34116 176.400375 66.792031 176.587132 67.262091 176.587132 
z
" clip-path="url(#p5a7a6b6ca3)" style="fill-opacity: 0.6; stroke: #000000; stroke-opacity: 0.6; stroke-width: 0.886227"/>
    <path d="M 120.147451 163.379018 
C 120.617511 163.379018 121.068382 163.192261 121.400765 162.859878 
C 121.733148 162.527495 121.919905 162.076624 121.919905 161.606564 
C 121.919905 161.136504 121.733148 160.685633 121.400765 160.35325 
C 121.068382 160.020867 120.617511 159.83411 120.147451 159.83411 
C 119.677391 159.83411 119.226519 160.020867 118.894137 160.35325 
C 118.561754 160.685633 118.374997 161.136504 118.374997 161.606564 
C 118.374997 162.076624 118.561754 162.527495 118.894137 162.859878 
C 119.226519 163.192261 119.677391 163.379018 120.147451 163.379018 
z
" clip-path="url(#p5a7a6b6ca3)" style="fill-opacity: 0.6; stroke: #000000; stroke-opacity: 0.6; stroke-width: 0.886227"/>
    <path d="M 67.262091 166.824812 
C 67.732151 166.824812 68.183022 166.638055 68.515405 166.305672 
C 68.847788 165.97329 69.034545 165.522419 69.034545 165.052358 
C 69.034545 164.582298 68.847788 164.131427 68.515405 163.799044 
C 68.183022 163.466661 67.732151 163.279904 67.262091 163.279904 
C 66.792031 163.279904 66.34116 163.466661 66.008777 163.799044 
C 65.676394 164.131427 65.489637 164.582298 65.489637 165.052358 
C 65.489637 165.522419 65.676394 165.97329 66.008777 166.305672 
C 66.34116 166.638055 66.792031 166.824812 67.262091 166.824812 
z
" clip-path="url(#p5a7a6b6ca3)" style="fill-opacity: 0.6; stroke: #000000; stroke-opacity: 0.6; stroke-width: 0.886227"/>
    <path d="M 120.147451 158.646853 
C 120.617511 158.646853 121.068382 158.460097 121.400765 158.127714 
C 121.733148 157.795331 121.919905 157.34446 121.919905 156.8744 
C 121.919905 156.404339 121.733148 155.953468 121.400765 155.621085 
C 121.068382 155.288703 120.617511 155.101946 120.147451 155.101946 
C 119.677391 155.101946 119.226519 155.288703 118.894137 155.621085 
C 118.561754 155.953468 118.374997 156.404339 118.374997 156.8744 
C 118.374997 157.34446 118.561754 157.795331 118.894137 158.127714 
C 119.226519 158.460097 119.677391 158.646853 120.147451 158.646853 
z
" clip-path="url(#p5a7a6b6ca3)" style="fill-opacity: 0.6; stroke: #000000; stroke-opacity: 0.6; stroke-width: 0.886227"/>
    <path d="M 67.262091 130.93332 
C 67.732151 130.93332 68.183022 130.746563 68.515405 130.41418 
C 68.847788 130.081798 69.034545 129.630927 69.034545 129.160866 
C 69.034545 128.690806 68.847788 128.239935 68.515405 127.907552 
C 68.183022 127.575169 67.732151 127.388412 67.262091 127.388412 
C 66.792031 127.388412 66.34116 127.575169 66.008777 127.907552 
C 65.676394 128.239935 65.489637 128.690806 65.489637 129.160866 
C 65.489637 129.630927 65.676394 130.081798 66.008777 130.41418 
C 66.34116 130.746563 66.792031 130.93332 67.262091 130.93332 
z
" clip-path="url(#p5a7a6b6ca3)" style="fill-opacity: 0.6; stroke: #000000; stroke-opacity: 0.6; stroke-width: 0.886227"/>
    <path d="M 120.147451 167.186097 
C 120.617511 167.186097 121.068382 166.99934 121.400765 166.666957 
C 121.733148 166.334574 121.919905 165.883703 121.919905 165.413643 
C 121.919905 164.943583 121.733148 164.492712 121.400765 164.160329 
C 121.068382 163.827946 120.617511 163.641189 120.147451 163.641189 
C 119.677391 163.641189 119.226519 163.827946 118.894137 164.160329 
C 118.561754 164.492712 118.374997 164.943583 118.374997 165.413643 
C 118.374997 165.883703 118.561754 166.334574 118.894137 166.666957 
C 119.226519 166.99934 119.677391 167.186097 120.147451 167.186097 
z
" clip-path="url(#p5a7a6b6ca3)" style="fill-opacity: 0.6; stroke: #000000; stroke-opacity: 0.6; stroke-width: 0.886227"/>
   </g>
   <g id="PathCollection_5">
    <g clip-path="url(#p5a7a6b6ca3)">
     <use xlink:href="#m7e985011b2" x="67.262091" y="129.160866" style="fill: #333333; fill-opacity: 0; stroke: #333333; stroke-opacity: 0; stroke-width: 0.886227"/>
    </g>
   </g>
   <g id="LineCollection_9">
    <path d="M 67.262091 167.025171 
L 67.262091 164.132847 
" clip-path="url(#p5a7a6b6ca3)" style="fill: none; stroke: #333333; stroke-width: 0.886227"/>
    <path d="M 67.262091 184.309432 
L 67.262091 185.427829 
" clip-path="url(#p5a7a6b6ca3)" style="fill: none; stroke: #333333; stroke-width: 0.886227"/>
   </g>
   <g id="PolyCollection_5">
    <defs>
     <path id="mabe93166a4" d="M 47.430081 -48.974829 
L 47.430081 -48.974829 
L 87.094101 -48.974829 
L 87.094101 -31.690568 
L 47.430081 -31.690568 
z
" style="stroke: #333333; stroke-width: 0.886227"/>
    </defs>
    <g clip-path="url(#p5a7a6b6ca3)">
     <use xlink:href="#mabe93166a4" x="0" y="216" style="fill: #d3894c; fill-opacity: 0.6; stroke: #333333; stroke-width: 0.886227"/>
    </g>
   </g>
   <g id="LineCollection_10">
    <path d="M 47.430081 178.898847 
L 87.094101 178.898847 
" clip-path="url(#p5a7a6b6ca3)" style="fill: none; stroke: #333333; stroke-width: 1.772454"/>
   </g>
   <g id="LineCollection_11">
    <path d="M 120.147451 166.020873 
L 120.147451 156.8744 
" clip-path="url(#p5a7a6b6ca3)" style="fill: none; stroke: #333333; stroke-width: 0.886227"/>
    <path d="M 120.147451 185.748089 
L 120.147451 187.107774 
" clip-path="url(#p5a7a6b6ca3)" style="fill: none; stroke: #333333; stroke-width: 0.886227"/>
   </g>
   <g id="PolyCollection_6">
    <defs>
     <path id="m769aae90ec" d="M 100.315441 -49.979127 
L 100.315441 -49.979127 
L 139.979461 -49.979127 
L 139.979461 -30.251911 
L 100.315441 -30.251911 
z
" style="stroke: #333333; stroke-width: 0.886227"/>
    </defs>
    <g clip-path="url(#p5a7a6b6ca3)">
     <use xlink:href="#m769aae90ec" x="0" y="216" style="fill: #d3894c; fill-opacity: 0.6; stroke: #333333; stroke-width: 0.886227"/>
    </g>
   </g>
   <g id="LineCollection_12">
    <path d="M 100.315441 185.060967 
L 139.979461 185.060967 
" clip-path="url(#p5a7a6b6ca3)" style="fill: none; stroke: #333333; stroke-width: 1.772454"/>
   </g>
   <g id="text_16">
    <g clip-path="url(#p5a7a6b6ca3)">
     <text style="font: 8px 'Helvetica', 'DejaVu Sans', 'Avant Garde', 'Computer Modern Sans serif', 'Arial', sans-serif; text-anchor: middle" x="67.262091" y="196.620913" transform="rotate(-0 67.262091 196.620913)">n = 10</text>
    </g>
   </g>
   <g id="text_17">
    <g clip-path="url(#p5a7a6b6ca3)">
     <text style="font: 8px 'Helvetica', 'DejaVu Sans', 'Avant Garde', 'Computer Modern Sans serif', 'Arial', sans-serif; text-anchor: middle" x="120.147451" y="196.620913" transform="rotate(-0 120.147451 196.620913)">n = 11</text>
    </g>
   </g>
  </g>
  <g id="axes_4">
   <g id="patch_5">
    <path d="M 154.758667 200.08975 
L 271.106458 200.08975 
L 271.106458 109.988021 
L 154.758667 109.988021 
z
" style="fill: #ffffff"/>
   </g>
   <g id="matplotlib.axis_7">
    <g id="xtick_7">
     <g id="line2d_31">
      <path d="M 186.489883 200.08975 
L 186.489883 109.988021 
" clip-path="url(#p17d36754a8)" style="fill: none; stroke-dasharray: 1.85,0.8; stroke-dashoffset: 0; stroke: #000000; stroke-opacity: 0.15; stroke-width: 0.5"/>
     </g>
     <g id="line2d_32">
      <path d="M 186.489883 200.08975 
" style="fill: none; stroke: #333333; stroke-width: 1.5; stroke-linecap: square"/>
      <g>
       <use xlink:href="#mede9c82655" x="186.489883" y="200.08975" style="fill: #333333; stroke: #333333"/>
      </g>
     </g>
     <g id="text_18">
      <text style="fill: #4d4d4d; font: 8.8px 'Helvetica', 'DejaVu Sans', 'Avant Garde', 'Computer Modern Sans serif', 'Arial', sans-serif; text-anchor: middle" x="186.489883" y="211.173" transform="rotate(-0 186.489883 211.173)">Flight</text>
     </g>
    </g>
    <g id="xtick_8">
     <g id="line2d_33">
      <path d="M 239.375242 200.08975 
L 239.375242 109.988021 
" clip-path="url(#p17d36754a8)" style="fill: none; stroke-dasharray: 1.85,0.8; stroke-dashoffset: 0; stroke: #000000; stroke-opacity: 0.15; stroke-width: 0.5"/>
     </g>
     <g id="line2d_34">
      <path d="M 239.375242 200.08975 
" style="fill: none; stroke: #333333; stroke-width: 1.5; stroke-linecap: square"/>
      <g>
       <use xlink:href="#mede9c82655" x="239.375242" y="200.08975" style="fill: #333333; stroke: #333333"/>
      </g>
     </g>
     <g id="text_19">
      <text style="fill: #4d4d4d; font: 8.8px 'Helvetica', 'DejaVu Sans', 'Avant Garde', 'Computer Modern Sans serif', 'Arial', sans-serif; text-anchor: middle" x="239.375242" y="211.152375" transform="rotate(-0 239.375242 211.152375)">Ground</text>
     </g>
    </g>
   </g>
   <g id="matplotlib.axis_8">
    <g id="ytick_28">
     <g id="line2d_35">
      <path d="M 154.758667 191.069557 
L 271.106458 191.069557 
" clip-path="url(#p17d36754a8)" style="fill: none; stroke-dasharray: 1.85,0.8; stroke-dashoffset: 0; stroke: #000000; stroke-opacity: 0.15; stroke-width: 0.5"/>
     </g>
    </g>
    <g id="ytick_29">
     <g id="line2d_36">
      <path d="M 154.758667 173.490902 
L 271.106458 173.490902 
" clip-path="url(#p17d36754a8)" style="fill: none; stroke-dasharray: 1.85,0.8; stroke-dashoffset: 0; stroke: #000000; stroke-opacity: 0.15; stroke-width: 0.5"/>
     </g>
    </g>
    <g id="ytick_30">
     <g id="line2d_37">
      <path d="M 154.758667 155.912247 
L 271.106458 155.912247 
" clip-path="url(#p17d36754a8)" style="fill: none; stroke-dasharray: 1.85,0.8; stroke-dashoffset: 0; stroke: #000000; stroke-opacity: 0.15; stroke-width: 0.5"/>
     </g>
    </g>
    <g id="ytick_31">
     <g id="line2d_38">
      <path d="M 154.758667 138.333592 
L 271.106458 138.333592 
" clip-path="url(#p17d36754a8)" style="fill: none; stroke-dasharray: 1.85,0.8; stroke-dashoffset: 0; stroke: #000000; stroke-opacity: 0.15; stroke-width: 0.5"/>
     </g>
    </g>
    <g id="ytick_32">
     <g id="line2d_39">
      <path d="M 154.758667 120.754937 
L 271.106458 120.754937 
" clip-path="url(#p17d36754a8)" style="fill: none; stroke-dasharray: 1.85,0.8; stroke-dashoffset: 0; stroke: #000000; stroke-opacity: 0.15; stroke-width: 0.5"/>
     </g>
    </g>
    <g id="ytick_33"/>
    <g id="ytick_34"/>
    <g id="ytick_35"/>
    <g id="ytick_36"/>
    <g id="ytick_37"/>
    <g id="ytick_38"/>
   </g>
   <g id="PathCollection_6">
    <path d="M 186.489883 149.163509 
C 186.959943 149.163509 187.410814 148.976752 187.743197 148.64437 
C 188.07558 148.311987 188.262336 147.861116 188.262336 147.391056 
C 188.262336 146.920995 188.07558 146.470124 187.743197 146.137741 
C 187.410814 145.805359 186.959943 145.618602 186.489883 145.618602 
C 186.019822 145.618602 185.568951 145.805359 185.236568 146.137741 
C 184.904186 146.470124 184.717429 146.920995 184.717429 147.391056 
C 184.717429 147.861116 184.904186 148.311987 185.236568 148.64437 
C 185.568951 148.976752 186.019822 149.163509 186.489883 149.163509 
z
" clip-path="url(#p17d36754a8)" style="fill-opacity: 0.6; stroke: #000000; stroke-opacity: 0.6; stroke-width: 0.886227"/>
    <path d="M 239.375242 164.763846 
C 239.845303 164.763846 240.296174 164.577089 240.628557 164.244706 
C 240.960939 163.912324 241.147696 163.461453 241.147696 162.991392 
C 241.147696 162.521332 240.960939 162.070461 240.628557 161.738078 
C 240.296174 161.405695 239.845303 161.218938 239.375242 161.218938 
C 238.905182 161.218938 238.454311 161.405695 238.121928 161.738078 
C 237.789545 162.070461 237.602789 162.521332 237.602789 162.991392 
C 237.602789 163.461453 237.789545 163.912324 238.121928 164.244706 
C 238.454311 164.577089 238.905182 164.763846 239.375242 164.763846 
z
" clip-path="url(#p17d36754a8)" style="fill-opacity: 0.6; stroke: #000000; stroke-opacity: 0.6; stroke-width: 0.886227"/>
    <path d="M 186.489883 139.283749 
C 186.959943 139.283749 187.410814 139.096992 187.743197 138.764609 
C 188.07558 138.432226 188.262336 137.981355 188.262336 137.511295 
C 188.262336 137.041235 188.07558 136.590364 187.743197 136.257981 
C 187.410814 135.925598 186.959943 135.738841 186.489883 135.738841 
C 186.019822 135.738841 185.568951 135.925598 185.236568 136.257981 
C 184.904186 136.590364 184.717429 137.041235 184.717429 137.511295 
C 184.717429 137.981355 184.904186 138.432226 185.236568 138.764609 
C 185.568951 139.096992 186.019822 139.283749 186.489883 139.283749 
z
" clip-path="url(#p17d36754a8)" style="fill-opacity: 0.6; stroke: #000000; stroke-opacity: 0.6; stroke-width: 0.886227"/>
    <path d="M 239.375242 169.764243 
C 239.845303 169.764243 240.296174 169.577486 240.628557 169.245104 
C 240.960939 168.912721 241.147696 168.46185 241.147696 167.991789 
C 241.147696 167.521729 240.960939 167.070858 240.628557 166.738475 
C 240.296174 166.406092 239.845303 166.219336 239.375242 166.219336 
C 238.905182 166.219336 238.454311 166.406092 238.121928 166.738475 
C 237.789545 167.070858 237.602789 167.521729 237.602789 167.991789 
C 237.602789 168.46185 237.789545 168.912721 238.121928 169.245104 
C 238.454311 169.577486 238.905182 169.764243 239.375242 169.764243 
z
" clip-path="url(#p17d36754a8)" style="fill-opacity: 0.6; stroke: #000000; stroke-opacity: 0.6; stroke-width: 0.886227"/>
    <path d="M 186.489883 174.051543 
C 186.959943 174.051543 187.410814 173.864786 187.743197 173.532403 
C 188.07558 173.20002 188.262336 172.749149 188.262336 172.279089 
C 188.262336 171.809029 188.07558 171.358158 187.743197 171.025775 
C 187.410814 170.693392 186.959943 170.506635 186.489883 170.506635 
C 186.019822 170.506635 185.568951 170.693392 185.236568 171.025775 
C 184.904186 171.358158 184.717429 171.809029 184.717429 172.279089 
C 184.717429 172.749149 184.904186 173.20002 185.236568 173.532403 
C 185.568951 173.864786 186.019822 174.051543 186.489883 174.051543 
z
" clip-path="url(#p17d36754a8)" style="fill-opacity: 0.6; stroke: #000000; stroke-opacity: 0.6; stroke-width: 0.886227"/>
    <path d="M 186.489883 163.477033 
C 186.959943 163.477033 187.410814 163.290276 187.743197 162.957893 
C 188.07558 162.62551 188.262336 162.174639 188.262336 161.704579 
C 188.262336 161.234519 188.07558 160.783648 187.743197 160.451265 
C 187.410814 160.118882 186.959943 159.932125 186.489883 159.932125 
C 186.019822 159.932125 185.568951 160.118882 185.236568 160.451265 
C 184.904186 160.783648 184.717429 161.234519 184.717429 161.704579 
C 184.717429 162.174639 184.904186 162.62551 185.236568 162.957893 
C 185.568951 163.290276 186.019822 163.477033 186.489883 163.477033 
z
" clip-path="url(#p17d36754a8)" style="fill-opacity: 0.6; stroke: #000000; stroke-opacity: 0.6; stroke-width: 0.886227"/>
    <path d="M 239.375242 146.539514 
C 239.845303 146.539514 240.296174 146.352757 240.628557 146.020375 
C 240.960939 145.687992 241.147696 145.237121 241.147696 144.76706 
C 241.147696 144.297 240.960939 143.846129 240.628557 143.513746 
C 240.296174 143.181363 239.845303 142.994607 239.375242 142.994607 
C 238.905182 142.994607 238.454311 143.181363 238.121928 143.513746 
C 237.789545 143.846129 237.602789 144.297 237.602789 144.76706 
C 237.602789 145.237121 237.789545 145.687992 238.121928 146.020375 
C 238.454311 146.352757 238.905182 146.539514 239.375242 146.539514 
z
" clip-path="url(#p17d36754a8)" style="fill-opacity: 0.6; stroke: #000000; stroke-opacity: 0.6; stroke-width: 0.886227"/>
    <path d="M 186.489883 164.863071 
C 186.959943 164.863071 187.410814 164.676314 187.743197 164.343931 
C 188.07558 164.011549 188.262336 163.560678 188.262336 163.090617 
C 188.262336 162.620557 188.07558 162.169686 187.743197 161.837303 
C 187.410814 161.50492 186.959943 161.318163 186.489883 161.318163 
C 186.019822 161.318163 185.568951 161.50492 185.236568 161.837303 
C 184.904186 162.169686 184.717429 162.620557 184.717429 163.090617 
C 184.717429 163.560678 184.904186 164.011549 185.236568 164.343931 
C 185.568951 164.676314 186.019822 164.863071 186.489883 164.863071 
z
" clip-path="url(#p17d36754a8)" style="fill-opacity: 0.6; stroke: #000000; stroke-opacity: 0.6; stroke-width: 0.886227"/>
    <path d="M 239.375242 145.755108 
C 239.845303 145.755108 240.296174 145.568351 240.628557 145.235968 
C 240.960939 144.903586 241.147696 144.452715 241.147696 143.982654 
C 241.147696 143.512594 240.960939 143.061723 240.628557 142.72934 
C 240.296174 142.396957 239.845303 142.2102 239.375242 142.2102 
C 238.905182 142.2102 238.454311 142.396957 238.121928 142.72934 
C 237.789545 143.061723 237.602789 143.512594 237.602789 143.982654 
C 237.602789 144.452715 237.789545 144.903586 238.121928 145.235968 
C 238.454311 145.568351 238.905182 145.755108 239.375242 145.755108 
z
" clip-path="url(#p17d36754a8)" style="fill-opacity: 0.6; stroke: #000000; stroke-opacity: 0.6; stroke-width: 0.886227"/>
    <path d="M 239.375242 135.491221 
C 239.845303 135.491221 240.296174 135.304465 240.628557 134.972082 
C 240.960939 134.639699 241.147696 134.188828 241.147696 133.718768 
C 241.147696 133.248707 240.960939 132.797836 240.628557 132.465453 
C 240.296174 132.133071 239.845303 131.946314 239.375242 131.946314 
C 238.905182 131.946314 238.454311 132.133071 238.121928 132.465453 
C 237.789545 132.797836 237.602789 133.248707 237.602789 133.718768 
C 237.602789 134.188828 237.789545 134.639699 238.121928 134.972082 
C 238.454311 135.304465 238.905182 135.491221 239.375242 135.491221 
z
" clip-path="url(#p17d36754a8)" style="fill-opacity: 0.6; stroke: #000000; stroke-opacity: 0.6; stroke-width: 0.886227"/>
    <path d="M 239.375242 149.78644 
C 239.845303 149.78644 240.296174 149.599683 240.628557 149.2673 
C 240.960939 148.934917 241.147696 148.484046 241.147696 148.013986 
C 241.147696 147.543926 240.960939 147.093054 240.628557 146.760672 
C 240.296174 146.428289 239.845303 146.241532 239.375242 146.241532 
C 238.905182 146.241532 238.454311 146.428289 238.121928 146.760672 
C 237.789545 147.093054 237.602789 147.543926 237.602789 148.013986 
C 237.602789 148.484046 237.789545 148.934917 238.121928 149.2673 
C 238.454311 149.599683 238.905182 149.78644 239.375242 149.78644 
z
" clip-path="url(#p17d36754a8)" style="fill-opacity: 0.6; stroke: #000000; stroke-opacity: 0.6; stroke-width: 0.886227"/>
    <path d="M 186.489883 157.059857 
C 186.959943 157.059857 187.410814 156.8731 187.743197 156.540717 
C 188.07558 156.208335 188.262336 155.757464 188.262336 155.287403 
C 188.262336 154.817343 188.07558 154.366472 187.743197 154.034089 
C 187.410814 153.701706 186.959943 153.514949 186.489883 153.514949 
C 186.019822 153.514949 185.568951 153.701706 185.236568 154.034089 
C 184.904186 154.366472 184.717429 154.817343 184.717429 155.287403 
C 184.717429 155.757464 184.904186 156.208335 185.236568 156.540717 
C 185.568951 156.8731 186.019822 157.059857 186.489883 157.059857 
z
" clip-path="url(#p17d36754a8)" style="fill-opacity: 0.6; stroke: #000000; stroke-opacity: 0.6; stroke-width: 0.886227"/>
    <path d="M 186.489883 171.960676 
C 186.959943 171.960676 187.410814 171.77392 187.743197 171.441537 
C 188.07558 171.109154 188.262336 170.658283 188.262336 170.188223 
C 188.262336 169.718162 188.07558 169.267291 187.743197 168.934908 
C 187.410814 168.602526 186.959943 168.415769 186.489883 168.415769 
C 186.019822 168.415769 185.568951 168.602526 185.236568 168.934908 
C 184.904186 169.267291 184.717429 169.718162 184.717429 170.188223 
C 184.717429 170.658283 184.904186 171.109154 185.236568 171.441537 
C 185.568951 171.77392 186.019822 171.960676 186.489883 171.960676 
z
" clip-path="url(#p17d36754a8)" style="fill-opacity: 0.6; stroke: #000000; stroke-opacity: 0.6; stroke-width: 0.886227"/>
    <path d="M 239.375242 181.525538 
C 239.845303 181.525538 240.296174 181.338781 240.628557 181.006398 
C 240.960939 180.674016 241.147696 180.223144 241.147696 179.753084 
C 241.147696 179.283024 240.960939 178.832153 240.628557 178.49977 
C 240.296174 178.167387 239.845303 177.98063 239.375242 177.98063 
C 238.905182 177.98063 238.454311 178.167387 238.121928 178.49977 
C 237.789545 178.832153 237.602789 179.283024 237.602789 179.753084 
C 237.602789 180.223144 237.789545 180.674016 238.121928 181.006398 
C 238.454311 181.338781 238.905182 181.525538 239.375242 181.525538 
z
" clip-path="url(#p17d36754a8)" style="fill-opacity: 0.6; stroke: #000000; stroke-opacity: 0.6; stroke-width: 0.886227"/>
    <path d="M 186.489883 175.112631 
C 186.959943 175.112631 187.410814 174.925874 187.743197 174.593491 
C 188.07558 174.261108 188.262336 173.810237 188.262336 173.340177 
C 188.262336 172.870116 188.07558 172.419245 187.743197 172.086863 
C 187.410814 171.75448 186.959943 171.567723 186.489883 171.567723 
C 186.019822 171.567723 185.568951 171.75448 185.236568 172.086863 
C 184.904186 172.419245 184.717429 172.870116 184.717429 173.340177 
C 184.717429 173.810237 184.904186 174.261108 185.236568 174.593491 
C 185.568951 174.925874 186.019822 175.112631 186.489883 175.112631 
z
" clip-path="url(#p17d36754a8)" style="fill-opacity: 0.6; stroke: #000000; stroke-opacity: 0.6; stroke-width: 0.886227"/>
    <path d="M 239.375242 151.718078 
C 239.845303 151.718078 240.296174 151.531321 240.628557 151.198939 
C 240.960939 150.866556 241.147696 150.415685 241.147696 149.945624 
C 241.147696 149.475564 240.960939 149.024693 240.628557 148.69231 
C 240.296174 148.359928 239.845303 148.173171 239.375242 148.173171 
C 238.905182 148.173171 238.454311 148.359928 238.121928 148.69231 
C 237.789545 149.024693 237.602789 149.475564 237.602789 149.945624 
C 237.602789 150.415685 237.789545 150.866556 238.121928 151.198939 
C 238.454311 151.531321 238.905182 151.718078 239.375242 151.718078 
z
" clip-path="url(#p17d36754a8)" style="fill-opacity: 0.6; stroke: #000000; stroke-opacity: 0.6; stroke-width: 0.886227"/>
    <path d="M 186.489883 170.055135 
C 186.959943 170.055135 187.410814 169.868378 187.743197 169.535996 
C 188.07558 169.203613 188.262336 168.752742 188.262336 168.282681 
C 188.262336 167.812621 188.07558 167.36175 187.743197 167.029367 
C 187.410814 166.696984 186.959943 166.510228 186.489883 166.510228 
C 186.019822 166.510228 185.568951 166.696984 185.236568 167.029367 
C 184.904186 167.36175 184.717429 167.812621 184.717429 168.282681 
C 184.717429 168.752742 184.904186 169.203613 185.236568 169.535996 
C 185.568951 169.868378 186.019822 170.055135 186.489883 170.055135 
z
" clip-path="url(#p17d36754a8)" style="fill-opacity: 0.6; stroke: #000000; stroke-opacity: 0.6; stroke-width: 0.886227"/>
    <path d="M 239.375242 159.827528 
C 239.845303 159.827528 240.296174 159.640771 240.628557 159.308388 
C 240.960939 158.976005 241.147696 158.525134 241.147696 158.055074 
C 241.147696 157.585014 240.960939 157.134142 240.628557 156.80176 
C 240.296174 156.469377 239.845303 156.28262 239.375242 156.28262 
C 238.905182 156.28262 238.454311 156.469377 238.121928 156.80176 
C 237.789545 157.134142 237.602789 157.585014 237.602789 158.055074 
C 237.602789 158.525134 237.789545 158.976005 238.121928 159.308388 
C 238.454311 159.640771 238.905182 159.827528 239.375242 159.827528 
z
" clip-path="url(#p17d36754a8)" style="fill-opacity: 0.6; stroke: #000000; stroke-opacity: 0.6; stroke-width: 0.886227"/>
    <path d="M 186.489883 170.705263 
C 186.959943 170.705263 187.410814 170.518506 187.743197 170.186123 
C 188.07558 169.85374 188.262336 169.402869 188.262336 168.932809 
C 188.262336 168.462749 188.07558 168.011878 187.743197 167.679495 
C 187.410814 167.347112 186.959943 167.160355 186.489883 167.160355 
C 186.019822 167.160355 185.568951 167.347112 185.236568 167.679495 
C 184.904186 168.011878 184.717429 168.462749 184.717429 168.932809 
C 184.717429 169.402869 184.904186 169.85374 185.236568 170.186123 
C 185.568951 170.518506 186.019822 170.705263 186.489883 170.705263 
z
" clip-path="url(#p17d36754a8)" style="fill-opacity: 0.6; stroke: #000000; stroke-opacity: 0.6; stroke-width: 0.886227"/>
    <path d="M 239.375242 166.500378 
C 239.845303 166.500378 240.296174 166.313621 240.628557 165.981238 
C 240.960939 165.648855 241.147696 165.197984 241.147696 164.727924 
C 241.147696 164.257864 240.960939 163.806992 240.628557 163.47461 
C 240.296174 163.142227 239.845303 162.95547 239.375242 162.95547 
C 238.905182 162.95547 238.454311 163.142227 238.121928 163.47461 
C 237.789545 163.806992 237.602789 164.257864 237.602789 164.727924 
C 237.602789 165.197984 237.789545 165.648855 238.121928 165.981238 
C 238.454311 166.313621 238.905182 166.500378 239.375242 166.500378 
z
" clip-path="url(#p17d36754a8)" style="fill-opacity: 0.6; stroke: #000000; stroke-opacity: 0.6; stroke-width: 0.886227"/>
   </g>
   <g id="LineCollection_13">
    <path d="M 186.489883 156.891697 
L 186.489883 137.511295 
" clip-path="url(#p17d36754a8)" style="fill: none; stroke: #333333; stroke-width: 0.886227"/>
    <path d="M 186.489883 169.874369 
L 186.489883 173.340177 
" clip-path="url(#p17d36754a8)" style="fill: none; stroke: #333333; stroke-width: 0.886227"/>
   </g>
   <g id="PolyCollection_7">
    <defs>
     <path id="md9af3541c7" d="M 166.657873 -59.108303 
L 166.657873 -59.108303 
L 206.321893 -59.108303 
L 206.321893 -46.125631 
L 166.657873 -46.125631 
z
" style="stroke: #333333; stroke-width: 0.886227"/>
    </defs>
    <g clip-path="url(#p17d36754a8)">
     <use xlink:href="#md9af3541c7" x="0" y="216" style="fill: #435b97; fill-opacity: 0.6; stroke: #333333; stroke-width: 0.886227"/>
    </g>
   </g>
   <g id="LineCollection_14">
    <path d="M 166.657873 165.686649 
L 206.321893 165.686649 
" clip-path="url(#p17d36754a8)" style="fill: none; stroke: #333333; stroke-width: 1.772454"/>
   </g>
   <g id="LineCollection_15">
    <path d="M 239.375242 145.578792 
L 239.375242 133.718768 
" clip-path="url(#p17d36754a8)" style="fill: none; stroke: #333333; stroke-width: 0.886227"/>
    <path d="M 239.375242 164.293791 
L 239.375242 179.753084 
" clip-path="url(#p17d36754a8)" style="fill: none; stroke: #333333; stroke-width: 0.886227"/>
   </g>
   <g id="PolyCollection_8">
    <defs>
     <path id="m091975e28a" d="M 219.543232 -70.421208 
L 219.543232 -70.421208 
L 259.207252 -70.421208 
L 259.207252 -51.706209 
L 219.543232 -51.706209 
z
" style="stroke: #333333; stroke-width: 0.886227"/>
    </defs>
    <g clip-path="url(#p17d36754a8)">
     <use xlink:href="#m091975e28a" x="0" y="216" style="fill: #435b97; fill-opacity: 0.6; stroke: #333333; stroke-width: 0.886227"/>
    </g>
   </g>
   <g id="LineCollection_16">
    <path d="M 219.543232 154.000349 
L 259.207252 154.000349 
" clip-path="url(#p17d36754a8)" style="fill: none; stroke: #333333; stroke-width: 1.772454"/>
   </g>
   <g id="text_20">
    <g clip-path="url(#p17d36754a8)">
     <text style="font: 8px 'Helvetica', 'DejaVu Sans', 'Avant Garde', 'Computer Modern Sans serif', 'Arial', sans-serif; text-anchor: middle" x="186.489883" y="196.620913" transform="rotate(-0 186.489883 196.620913)">n = 10</text>
    </g>
   </g>
   <g id="text_21">
    <g clip-path="url(#p17d36754a8)">
     <text style="font: 8px 'Helvetica', 'DejaVu Sans', 'Avant Garde', 'Computer Modern Sans serif', 'Arial', sans-serif; text-anchor: middle" x="239.375242" y="196.620913" transform="rotate(-0 239.375242 196.620913)">n = 10</text>
    </g>
   </g>
  </g>
  <g id="patch_6">
   <path d="M 35.530875 107.108021 
L 151.878667 107.108021 
L 151.878667 17.006292 
L 35.530875 17.006292 
L 35.530875 107.108021 
z
" style="fill: none; stroke: #7f7f7f; stroke-linejoin: miter"/>
  </g>
  <g id="patch_7">
   <path d="M 154.758667 107.108021 
L 271.106458 107.108021 
L 271.106458 17.006292 
L 154.758667 17.006292 
L 154.758667 107.108021 
z
" style="fill: none; stroke: #7f7f7f; stroke-linejoin: miter"/>
  </g>
  <g id="patch_8">
   <path d="M 35.530875 200.08975 
L 151.878667 200.08975 
L 151.878667 109.988021 
L 35.530875 109.988021 
L 35.530875 200.08975 
z
" style="fill: none; stroke: #7f7f7f; stroke-linejoin: miter"/>
  </g>
  <g id="patch_9">
   <path d="M 154.758667 200.08975 
L 271.106458 200.08975 
L 271.106458 109.988021 
L 154.758667 109.988021 
L 154.758667 200.08975 
z
" style="fill: none; stroke: #7f7f7f; stroke-linejoin: miter"/>
  </g>
  <g id="text_22">
   <!-- $\alpha$-Diversity  -->
   <g transform="translate(10.8 136.653021) rotate(-90)">
    <text>
     <tspan style="font: oblique 11px 'DejaVu Sans'" x="0" y="-0.109375"></tspan>
     <tspan style="font: 11px 'Helvetica'" x="7.250977 10.914062 18.85791 21.301758 26.801758 32.919434 36.58252 42.08252 44.526367 47.58252 53.08252" y="-0.109375">-Diversity</tspan>
    </text>
   </g>
  </g>
  <g id="patch_10">
   <path d="M 35.530875 17.006292 
L 151.878667 17.006292 
L 151.878667 2.99275 
L 35.530875 2.99275 
z
" style="fill: #cccccc; stroke: #7f7f7f; stroke-linejoin: miter"/>
  </g>
  <g id="text_23">
   <text style="fill: #1a1a1a; font: 8.8px 'Helvetica', 'DejaVu Sans', 'Avant Garde', 'Computer Modern Sans serif', 'Arial', sans-serif; text-anchor: middle" x="93.704771" y="13.155833" transform="rotate(-0 93.704771 13.155833)">Bacteria</text>
  </g>
  <g id="patch_11">
   <path d="M 154.758667 17.006292 
L 271.106458 17.006292 
L 271.106458 2.88 
L 154.758667 2.88 
z
" style="fill: #cccccc; stroke: #7f7f7f; stroke-linejoin: miter"/>
  </g>
  <g id="text_24">
   <text style="fill: #1a1a1a; font: 8.8px 'Helvetica', 'DejaVu Sans', 'Avant Garde', 'Computer Modern Sans serif', 'Arial', sans-serif; text-anchor: middle" x="212.932562" y="13.099458" transform="rotate(-0 212.932562 13.099458)">Fungi</text>
  </g>
  <g id="patch_12">
   <path d="M 271.106458 107.108021 
L 285.12 107.108021 
L 285.12 17.006292 
L 271.106458 17.006292 
z
" style="fill: #cccccc; stroke: #7f7f7f; stroke-linejoin: miter"/>
  </g>
  <g id="text_25">
   <text style="fill: #1a1a1a; font: 8.8px 'Helvetica', 'DejaVu Sans', 'Avant Garde', 'Computer Modern Sans serif', 'Arial', sans-serif; text-anchor: middle" x="274.956917" y="62.057156" transform="rotate(-270 274.956917 62.057156)">Chao1 Index</text>
  </g>
  <g id="patch_13">
   <path d="M 271.106458 200.08975 
L 285.12 200.08975 
L 285.12 109.988021 
L 271.106458 109.988021 
z
" style="fill: #cccccc; stroke: #7f7f7f; stroke-linejoin: miter"/>
  </g>
  <g id="text_26">
   <text style="fill: #1a1a1a; font: 8.8px 'Helvetica', 'DejaVu Sans', 'Avant Garde', 'Computer Modern Sans serif', 'Arial', sans-serif; text-anchor: middle" x="274.956917" y="155.038885" transform="rotate(-270 274.956917 155.038885)">Shannon Index</text>
  </g>
 </g>
 <defs>
  <clipPath id="pe183e39130">
   <rect x="35.530875" y="17.006292" width="116.347792" height="90.101729"/>
  </clipPath>
  <clipPath id="p2a9c0c10bf">
   <rect x="154.758667" y="17.006292" width="116.347792" height="90.101729"/>
  </clipPath>
  <clipPath id="p5a7a6b6ca3">
   <rect x="35.530875" y="109.988021" width="116.347792" height="90.101729"/>
  </clipPath>
  <clipPath id="p17d36754a8">
   <rect x="154.758667" y="109.988021" width="116.347792" height="90.101729"/>
  </clipPath>
 </defs>
</svg>
